{"glyphs":{"0":{"ha":1094,"x_min":75,"x_max":1021,"o":"m 597 821 q 817 769 721 821 q 967 628 914 718 q 1021 428 1021 539 q 939 208 1021 310 q 734 46 857 106 q 499 -14 611 -14 q 280 38 376 -14 q 129 178 183 89 q 75 379 75 268 q 157 599 75 497 q 362 761 239 701 q 597 821 485 821 m 517 658 q 353 446 353 658 q 411 233 353 317 q 579 149 469 149 q 743 363 743 149 q 685 575 743 492 q 517 658 626 658 z "},"1":{"ha":708,"x_min":67,"x_max":643,"o":"m 593 0 l 92 0 l 92 89 l 226 194 l 226 665 l 67 706 l 117 807 l 618 807 l 618 718 l 483 613 l 483 142 l 643 101 l 593 0 z "},"2":{"ha":932,"x_min":50,"x_max":869,"o":"m 869 -26 l 749 -1 l 60 -1 l 60 88 q 324 300 233 221 q 450 429 414 379 q 486 522 486 479 q 451 602 486 571 q 360 633 415 633 q 92 556 264 633 l 50 642 l 242 796 q 399 819 306 819 q 597 792 511 819 q 728 716 682 765 q 775 601 775 667 q 699 460 775 549 q 467 258 622 372 l 732 258 l 785 382 l 869 356 l 869 -26 z "},"3":{"ha":778,"x_min":22,"x_max":726,"o":"m 447 351 q 660 248 593 303 q 726 117 726 193 q 568 -147 726 -32 q 63 -367 410 -262 l 31 -256 q 285 -151 199 -196 q 408 -60 372 -107 q 443 51 443 -14 q 399 159 443 113 q 257 247 354 206 l 257 326 q 356 422 326 378 q 385 522 385 467 q 354 613 385 578 q 275 647 324 647 q 64 569 217 647 l 22 656 l 215 810 q 296 821 257 821 q 483 792 397 821 q 618 712 568 763 q 668 601 668 661 q 607 476 661 536 q 447 351 553 417 z "},"4":{"ha":1015,"x_min":42,"x_max":1025,"o":"m 813 63 l 813 -215 l 556 -297 l 556 63 l 42 63 l 42 150 l 556 765 l 813 847 l 813 206 l 1025 206 l 976 63 l 813 63 m 556 564 l 257 206 l 556 206 l 556 564 z "},"5":{"ha":869,"x_min":51,"x_max":769,"o":"m 232 490 q 562 363 446 424 q 724 240 678 303 q 769 94 769 176 q 671 -110 769 -24 q 428 -254 572 -197 q 83 -367 283 -311 l 51 -256 q 328 -156 235 -199 q 454 -71 421 -112 q 488 29 488 -29 q 457 115 488 78 q 340 191 426 151 q 85 283 254 231 l 189 807 l 597 807 l 650 931 l 736 906 l 736 524 l 615 549 l 243 549 l 232 490 z "},"6":{"ha":1074,"x_min":103,"x_max":1000,"o":"m 876 1125 q 494 803 607 956 q 381 478 381 650 q 405 315 381 390 q 477 194 429 240 q 592 149 525 149 q 722 331 722 149 q 659 539 722 457 q 499 664 596 621 l 565 771 q 781 722 681 771 q 940 590 881 674 q 1000 410 1000 507 q 928 205 1000 303 q 741 47 856 107 q 507 -14 626 -14 q 300 42 392 -14 q 156 200 208 99 q 103 429 103 301 q 261 838 103 640 q 819 1226 419 1035 l 876 1125 z "},"7":{"ha":914,"x_min":86,"x_max":888,"o":"m 888 708 l 296 -367 l 192 -321 l 672 550 l 225 550 l 172 428 l 86 453 l 86 832 l 207 807 l 888 807 l 888 708 z "},"8":{"ha":1078,"x_min":75,"x_max":1003,"o":"m 701 686 q 860 585 800 628 q 961 483 919 542 q 1003 354 1003 425 q 931 193 1003 279 q 756 47 858 107 q 571 -12 654 -12 q 314 31 426 -12 q 138 151 201 75 q 75 318 75 226 q 140 456 75 386 q 354 624 206 525 q 201 753 256 688 q 147 901 147 818 q 215 1044 147 968 q 378 1174 282 1121 q 556 1226 475 1226 q 746 1192 663 1226 q 875 1101 829 1158 q 921 975 921 1043 q 871 850 917 914 q 701 683 825 786 l 701 686 m 544 1088 q 456 1054 489 1088 q 424 968 424 1021 q 472 850 424 903 q 608 742 519 797 q 657 836 646 803 q 668 913 668 869 q 633 1038 668 988 q 544 1088 599 1088 m 579 132 q 687 179 646 132 q 728 292 728 226 q 689 394 728 347 q 597 477 650 442 q 440 574 544 513 q 370 474 388 514 q 353 386 353 433 q 384 260 353 318 q 467 167 415 201 q 578 132 518 132 l 579 132 z "},"9":{"ha":1074,"x_min":75,"x_max":972,"o":"m 568 821 q 774 765 682 821 q 919 610 867 710 q 972 386 972 511 q 910 131 972 253 q 693 -116 849 10 q 265 -367 538 -242 l 210 -265 q 495 -60 389 -157 q 648 133 601 38 q 694 338 694 229 q 670 494 694 421 q 598 613 646 568 q 482 658 550 658 q 353 476 353 658 q 415 268 353 350 q 572 143 476 186 l 507 36 q 293 85 393 36 q 134 217 193 133 q 75 397 75 300 q 147 601 75 503 q 333 760 218 700 q 568 821 449 821 z "}," ":{"ha":388,"x_min":0,"x_max":0,"o":""},"A":{"ha":1290,"x_min":-1,"x_max":1301,"o":"m 1251 0 l 706 0 l 706 89 l 864 178 l 786 368 l 368 368 l 301 204 l 506 101 l 456 0 l -1 0 l -1 89 l 156 206 l 500 1047 l 769 1118 l 1158 169 l 1301 101 l 1251 0 m 578 882 l 417 486 l 739 486 l 578 882 z "},"Á":{"ha":1290,"x_min":-1,"x_max":1301,"o":"m 1251 0 l 706 0 l 706 89 l 864 178 l 786 368 l 368 368 l 301 204 l 506 101 l 456 0 l -1 0 l -1 89 l 156 206 l 500 1047 l 769 1118 l 1158 169 l 1301 101 l 1251 0 m 578 882 l 417 486 l 739 486 l 578 882 m 972 1475 l 596 1267 l 510 1307 l 658 1579 l 935 1553 l 972 1475 z "},"Ă":{"ha":1290,"x_min":-1,"x_max":1301,"o":"m 1251 0 l 706 0 l 706 89 l 864 178 l 786 368 l 368 368 l 301 204 l 506 101 l 456 0 l -1 0 l -1 89 l 156 206 l 500 1047 l 769 1118 l 1158 169 l 1301 101 l 1251 0 m 578 882 l 417 486 l 739 486 l 578 882 m 994 1574 q 922 1409 979 1485 q 785 1290 864 1333 q 629 1246 707 1246 q 438 1288 529 1246 q 301 1401 346 1329 l 521 1574 q 580 1463 540 1501 q 679 1424 619 1424 q 742 1442 717 1424 q 775 1493 767 1460 l 994 1574 z "},"Â":{"ha":1290,"x_min":-1,"x_max":1301,"o":"m 1251 0 l 706 0 l 706 89 l 864 178 l 786 368 l 368 368 l 301 204 l 506 101 l 456 0 l -1 0 l -1 89 l 156 206 l 500 1047 l 769 1118 l 1158 169 l 1301 101 l 1251 0 m 578 882 l 417 486 l 739 486 l 578 882 m 968 1285 l 693 1258 l 594 1421 l 342 1258 l 285 1351 l 628 1572 l 1006 1364 l 968 1285 z "},"Ä":{"ha":1290,"x_min":-1,"x_max":1301,"o":"m 369 1260 q 274 1298 313 1260 q 236 1393 236 1336 q 263 1469 236 1433 q 331 1525 290 1504 q 410 1546 372 1546 q 506 1507 468 1546 q 543 1411 543 1468 q 516 1336 543 1371 q 448 1281 489 1301 q 369 1260 407 1260 m 868 1260 q 773 1298 811 1260 q 735 1393 735 1336 q 762 1469 735 1433 q 830 1525 789 1504 q 908 1546 871 1546 q 1004 1507 967 1546 q 1042 1411 1042 1468 q 1015 1336 1042 1371 q 947 1281 988 1301 q 868 1260 906 1260 m 1251 0 l 706 0 l 706 89 l 864 178 l 786 368 l 368 368 l 301 204 l 506 101 l 456 0 l -1 0 l -1 89 l 156 206 l 500 1047 l 769 1118 l 1158 169 l 1301 101 l 1251 0 m 578 882 l 417 486 l 739 486 l 578 882 z "},"À":{"ha":1290,"x_min":-1,"x_max":1301,"o":"m 1251 0 l 706 0 l 706 89 l 864 178 l 786 368 l 368 368 l 301 204 l 506 101 l 456 0 l -1 0 l -1 89 l 156 206 l 500 1047 l 769 1118 l 1158 169 l 1301 101 l 1251 0 m 578 882 l 417 486 l 739 486 l 578 882 m 681 1267 l 304 1475 l 343 1553 l 619 1579 l 768 1307 l 681 1267 z "},"Ā":{"ha":1290,"x_min":-1,"x_max":1301,"o":"m 1251 0 l 706 0 l 706 89 l 864 178 l 786 368 l 368 368 l 301 204 l 506 101 l 456 0 l -1 0 l -1 89 l 156 206 l 500 1047 l 769 1118 l 1158 169 l 1301 101 l 1251 0 m 578 882 l 417 486 l 739 486 l 578 882 m 275 1465 l 1001 1465 l 1001 1347 l 275 1347 l 275 1465 z "},"Ą":{"ha":1290,"x_min":-1,"x_max":1301,"o":"m 1251 0 l 706 0 l 706 89 l 864 178 l 786 368 l 368 368 l 301 204 l 506 101 l 456 0 l -1 0 l -1 89 l 156 206 l 500 1047 l 769 1118 l 1158 169 l 1301 101 l 1251 0 m 578 882 l 417 486 l 739 486 l 578 882 m 1253 0 q 1193 -136 1193 -92 q 1209 -171 1193 -160 q 1261 -183 1225 -182 l 1261 -282 l 1154 -367 q 997 -308 1051 -350 q 942 -204 942 -267 q 953 -146 942 -165 l 1169 29 l 1253 0 z "},"Å":{"ha":1290,"x_min":-1,"x_max":1301,"o":"m 1251 0 l 706 0 l 706 89 l 864 178 l 786 368 l 368 368 l 301 204 l 506 101 l 456 0 l -1 0 l -1 89 l 156 206 l 500 1047 l 769 1118 l 1158 169 l 1301 101 l 1251 0 m 578 882 l 417 486 l 739 486 l 578 882 m 686 1578 q 828 1535 772 1578 q 885 1431 885 1493 q 839 1334 885 1379 q 723 1262 793 1289 q 588 1235 653 1235 q 447 1277 504 1235 q 390 1382 390 1319 q 436 1478 390 1433 q 551 1551 482 1524 q 686 1578 621 1578 m 606 1483 q 568 1472 582 1483 q 554 1438 554 1460 q 584 1360 554 1390 q 668 1329 614 1329 q 706 1342 692 1329 q 719 1376 719 1354 q 690 1453 719 1422 q 606 1483 660 1483 z "},"Ã":{"ha":1290,"x_min":-1,"x_max":1301,"o":"m 1251 0 l 706 0 l 706 89 l 864 178 l 786 368 l 368 368 l 301 204 l 506 101 l 456 0 l -1 0 l -1 89 l 156 206 l 500 1047 l 769 1118 l 1158 169 l 1301 101 l 1251 0 m 578 882 l 417 486 l 739 486 l 578 882 m 613 1601 q 718 1508 678 1536 q 792 1479 758 1479 q 849 1499 818 1479 l 926 1549 l 983 1456 l 657 1247 q 551 1342 592 1314 q 478 1369 511 1369 q 419 1350 451 1369 l 344 1301 l 286 1393 l 613 1601 z "},"Æ":{"ha":1563,"x_min":-1,"x_max":1481,"o":"m 1372 0 l 535 0 l 535 89 l 665 192 l 665 499 l 454 499 l 310 190 l 453 101 l 403 0 l -1 0 l -1 89 l 158 207 l 503 942 l 331 992 l 381 1092 l 1358 1092 l 1467 1117 l 1467 753 l 1379 715 l 1207 972 l 940 972 l 940 617 l 1038 617 l 1139 767 l 1228 767 l 1228 367 l 1126 317 l 1035 499 l 940 499 l 940 119 l 1194 119 l 1393 404 l 1481 368 l 1481 -25 l 1372 0 m 665 953 l 508 617 l 665 617 l 665 953 z "},"B":{"ha":1107,"x_min":35,"x_max":1079,"o":"m 868 592 q 1023 481 967 553 q 1079 319 1079 408 q 1001 155 1079 232 q 808 32 924 78 q 589 -14 693 -14 q 453 -7 519 -14 q 281 0 342 0 l 60 0 l 60 89 l 190 192 l 190 953 l 35 992 l 85 1092 l 279 1092 q 528 1100 406 1092 q 667 1106 622 1106 q 854 1069 774 1106 q 979 972 935 1033 q 1024 833 1024 910 q 982 703 1024 765 q 869 593 940 642 l 868 592 m 735 756 q 690 912 735 853 q 558 971 646 971 q 465 954 508 971 l 465 601 l 607 601 q 735 756 735 601 m 626 132 q 745 171 701 132 q 789 278 789 210 q 740 426 789 368 q 594 490 690 485 l 567 490 l 464 490 l 464 160 q 628 133 539 133 l 626 132 z "},"C":{"ha":1169,"x_min":75,"x_max":1119,"o":"m 717 1119 q 911 1099 800 1119 q 1074 1054 1022 1078 l 1074 751 l 919 751 q 636 946 815 946 q 504 899 564 946 q 410 771 444 853 q 375 588 375 689 q 410 377 375 472 q 516 226 444 282 q 693 169 588 169 q 1060 297 822 169 l 1119 201 l 864 3 q 742 -22 800 -15 q 615 -28 683 -28 q 334 43 457 -28 q 143 238 211 114 q 75 521 75 363 q 176 822 75 683 q 429 1040 278 960 q 717 1119 581 1119 z "},"Ć":{"ha":1169,"x_min":75,"x_max":1119,"o":"m 717 1119 q 911 1099 800 1119 q 1074 1054 1022 1078 l 1074 751 l 919 751 q 636 946 815 946 q 504 899 564 946 q 410 771 444 853 q 375 588 375 689 q 410 377 375 472 q 516 226 444 282 q 693 169 588 169 q 1060 297 822 169 l 1119 201 l 864 3 q 742 -22 800 -15 q 615 -28 683 -28 q 334 43 457 -28 q 143 238 211 114 q 75 521 75 363 q 176 822 75 683 q 429 1040 278 960 q 717 1119 581 1119 m 961 1475 l 585 1267 l 499 1307 l 647 1579 l 924 1553 l 961 1475 z "},"Č":{"ha":1169,"x_min":75,"x_max":1119,"o":"m 717 1119 q 911 1099 800 1119 q 1074 1054 1022 1078 l 1074 751 l 919 751 q 636 946 815 946 q 504 899 564 946 q 410 771 444 853 q 375 588 375 689 q 410 377 375 472 q 516 226 444 282 q 693 169 588 169 q 1060 297 822 169 l 1119 201 l 864 3 q 742 -22 800 -15 q 615 -28 683 -28 q 334 43 457 -28 q 143 238 211 114 q 75 521 75 363 q 176 822 75 683 q 429 1040 278 960 q 717 1119 581 1119 m 636 1265 l 258 1475 l 297 1553 l 571 1579 l 669 1417 l 922 1579 l 979 1488 l 636 1265 z "},"Ç":{"ha":1169,"x_min":75,"x_max":1119,"o":"m 865 3 q 744 -21 808 -14 q 678 -78 700 -60 q 778 -152 751 -119 q 804 -226 804 -185 q 728 -324 804 -290 q 493 -365 651 -358 l 493 -278 q 557 -244 538 -262 q 576 -197 576 -225 q 560 -148 576 -169 q 499 -96 543 -126 q 582 -26 526 -74 q 317 53 432 -19 q 138 247 201 125 q 75 521 75 368 q 176 822 75 683 q 429 1040 278 960 q 717 1119 581 1119 q 911 1099 800 1119 q 1074 1054 1022 1078 l 1074 751 l 919 751 q 636 946 815 946 q 504 899 564 946 q 410 771 444 853 q 375 588 375 689 q 410 377 375 472 q 516 226 444 282 q 693 169 588 169 q 1060 297 822 169 l 1119 201 l 864 3 l 865 3 z "},"Ċ":{"ha":1169,"x_min":75,"x_max":1119,"o":"m 717 1119 q 911 1099 800 1119 q 1074 1054 1022 1078 l 1074 751 l 919 751 q 636 946 815 946 q 504 899 564 946 q 410 771 444 853 q 375 588 375 689 q 410 377 375 472 q 516 226 444 282 q 693 169 588 169 q 1060 297 822 169 l 1119 201 l 864 3 q 742 -22 800 -15 q 615 -28 683 -28 q 334 43 457 -28 q 143 238 211 114 q 75 521 75 363 q 176 822 75 683 q 429 1040 278 960 q 717 1119 581 1119 m 646 1538 q 752 1497 711 1538 q 793 1396 793 1456 q 763 1316 793 1353 q 688 1257 733 1279 q 601 1235 643 1235 q 495 1276 538 1235 q 453 1376 453 1317 q 483 1456 453 1419 q 558 1515 513 1493 q 646 1538 604 1538 z "},"D":{"ha":1292,"x_min":36,"x_max":1217,"o":"m 675 1106 q 958 1037 835 1106 q 1149 846 1082 968 q 1217 569 1217 724 q 1115 277 1217 411 q 863 65 1014 143 q 576 -14 713 -14 q 453 -7 515 -14 q 293 0 349 0 l 61 0 l 61 89 l 192 192 l 192 944 l 36 992 l 86 1092 l 292 1092 q 542 1100 419 1092 q 675 1106 633 1106 m 617 121 q 769 171 700 121 q 878 308 839 221 q 918 503 918 394 q 880 738 918 632 q 763 908 842 844 q 568 971 685 971 q 467 943 514 971 l 467 146 q 615 122 531 122 l 617 121 z "},"Ð":{"ha":1292,"x_min":36,"x_max":1217,"o":"m 675 1106 q 958 1037 835 1106 q 1149 846 1082 968 q 1217 569 1217 724 q 1115 277 1217 411 q 863 65 1014 143 q 576 -14 713 -14 q 453 -7 515 -14 q 293 0 349 0 l 61 0 l 61 89 l 192 192 l 192 501 l 74 501 l 74 597 l 192 597 l 192 944 l 36 992 l 86 1092 l 292 1092 q 542 1100 419 1092 q 675 1106 633 1106 m 617 121 q 769 171 700 121 q 878 308 839 221 q 918 503 918 394 q 880 738 918 632 q 763 908 842 844 q 568 971 685 971 q 467 943 514 971 l 467 597 l 663 597 l 663 501 l 467 501 l 467 146 q 615 122 531 122 l 617 121 z "},"Ď":{"ha":1292,"x_min":36,"x_max":1217,"o":"m 675 1106 q 958 1037 835 1106 q 1149 846 1082 968 q 1217 569 1217 724 q 1115 277 1217 411 q 863 65 1014 143 q 576 -14 713 -14 q 453 -7 515 -14 q 293 0 349 0 l 61 0 l 61 89 l 192 192 l 192 944 l 36 992 l 86 1092 l 292 1092 q 542 1100 419 1092 q 675 1106 633 1106 m 617 121 q 769 171 700 121 q 878 308 839 221 q 918 503 918 394 q 880 738 918 632 q 763 908 842 844 q 568 971 685 971 q 467 943 514 971 l 467 146 q 615 122 531 122 l 617 121 m 594 1265 l 217 1475 l 256 1553 l 529 1579 l 628 1417 l 881 1579 l 938 1488 l 594 1265 z "},"Đ":{"ha":1292,"x_min":36,"x_max":1217,"o":"m 675 1106 q 958 1037 835 1106 q 1149 846 1082 968 q 1217 569 1217 724 q 1115 277 1217 411 q 863 65 1014 143 q 576 -14 713 -14 q 453 -7 515 -14 q 293 0 349 0 l 61 0 l 61 89 l 192 192 l 192 501 l 74 501 l 74 597 l 192 597 l 192 944 l 36 992 l 86 1092 l 292 1092 q 542 1100 419 1092 q 675 1106 633 1106 m 617 121 q 769 171 700 121 q 878 308 839 221 q 918 503 918 394 q 880 738 918 632 q 763 908 842 844 q 568 971 685 971 q 467 943 514 971 l 467 597 l 663 597 l 663 501 l 467 501 l 467 146 q 615 122 531 122 l 617 121 z "},"E":{"ha":1142,"x_min":36,"x_max":1060,"o":"m 951 0 l 61 0 l 61 89 l 192 192 l 192 947 l 36 992 l 86 1092 l 938 1092 l 1046 1117 l 1046 753 l 958 715 l 786 972 l 467 972 l 467 617 l 617 617 l 718 767 l 807 767 l 807 367 l 706 317 l 614 499 l 467 499 l 467 119 l 774 119 l 972 404 l 1060 368 l 1060 -25 l 951 0 z "},"É":{"ha":1142,"x_min":36,"x_max":1060,"o":"m 951 0 l 61 0 l 61 89 l 192 192 l 192 947 l 36 992 l 86 1092 l 938 1092 l 1046 1117 l 1046 753 l 958 715 l 786 972 l 467 972 l 467 617 l 617 617 l 718 767 l 807 767 l 807 367 l 706 317 l 614 499 l 467 499 l 467 119 l 774 119 l 972 404 l 1060 368 l 1060 -25 l 951 0 m 922 1475 l 546 1267 l 460 1307 l 608 1579 l 885 1553 l 922 1475 z "},"Ě":{"ha":1142,"x_min":36,"x_max":1060,"o":"m 951 0 l 61 0 l 61 89 l 192 192 l 192 947 l 36 992 l 86 1092 l 938 1092 l 1046 1117 l 1046 753 l 958 715 l 786 972 l 467 972 l 467 617 l 617 617 l 718 767 l 807 767 l 807 367 l 706 317 l 614 499 l 467 499 l 467 119 l 774 119 l 972 404 l 1060 368 l 1060 -25 l 951 0 m 597 1265 l 219 1475 l 258 1553 l 532 1579 l 631 1417 l 883 1579 l 940 1488 l 597 1265 z "},"Ê":{"ha":1142,"x_min":36,"x_max":1060,"o":"m 951 0 l 61 0 l 61 89 l 192 192 l 192 947 l 36 992 l 86 1092 l 938 1092 l 1046 1117 l 1046 753 l 958 715 l 786 972 l 467 972 l 467 617 l 617 617 l 718 767 l 807 767 l 807 367 l 706 317 l 614 499 l 467 499 l 467 119 l 774 119 l 972 404 l 1060 368 l 1060 -25 l 951 0 m 918 1285 l 643 1258 l 544 1421 l 292 1258 l 235 1351 l 578 1572 l 956 1364 l 918 1285 z "},"Ë":{"ha":1142,"x_min":36,"x_max":1060,"o":"m 318 1260 q 223 1298 261 1260 q 185 1393 185 1336 q 212 1469 185 1433 q 280 1525 239 1504 q 358 1546 321 1546 q 454 1507 417 1546 q 492 1411 492 1468 q 465 1336 492 1371 q 397 1281 438 1301 q 318 1260 356 1260 m 817 1260 q 722 1298 760 1260 q 683 1393 683 1336 q 710 1469 683 1433 q 778 1525 738 1504 q 857 1546 819 1546 q 953 1507 915 1546 q 990 1411 990 1468 q 963 1336 990 1371 q 895 1281 936 1301 q 817 1260 854 1260 m 951 0 l 61 0 l 61 89 l 192 192 l 192 947 l 36 992 l 86 1092 l 938 1092 l 1046 1117 l 1046 753 l 958 715 l 786 972 l 467 972 l 467 617 l 617 617 l 718 767 l 807 767 l 807 367 l 706 317 l 614 499 l 467 499 l 467 119 l 774 119 l 972 404 l 1060 368 l 1060 -25 l 951 0 z "},"Ė":{"ha":1142,"x_min":36,"x_max":1060,"o":"m 951 0 l 61 0 l 61 89 l 192 192 l 192 947 l 36 992 l 86 1092 l 938 1092 l 1046 1117 l 1046 753 l 958 715 l 786 972 l 467 972 l 467 617 l 617 617 l 718 767 l 807 767 l 807 367 l 706 317 l 614 499 l 467 499 l 467 119 l 774 119 l 972 404 l 1060 368 l 1060 -25 l 951 0 m 607 1538 q 713 1497 672 1538 q 754 1396 754 1456 q 724 1316 754 1353 q 649 1257 694 1279 q 563 1235 604 1235 q 456 1276 499 1235 q 414 1376 414 1317 q 444 1456 414 1419 q 519 1515 474 1493 q 607 1538 565 1538 z "},"È":{"ha":1142,"x_min":36,"x_max":1060,"o":"m 951 0 l 61 0 l 61 89 l 192 192 l 192 947 l 36 992 l 86 1092 l 938 1092 l 1046 1117 l 1046 753 l 958 715 l 786 972 l 467 972 l 467 617 l 617 617 l 718 767 l 807 767 l 807 367 l 706 317 l 614 499 l 467 499 l 467 119 l 774 119 l 972 404 l 1060 368 l 1060 -25 l 951 0 m 631 1267 l 254 1475 l 293 1553 l 569 1579 l 718 1307 l 631 1267 z "},"Ē":{"ha":1142,"x_min":36,"x_max":1060,"o":"m 951 0 l 61 0 l 61 89 l 192 192 l 192 947 l 36 992 l 86 1092 l 938 1092 l 1046 1117 l 1046 753 l 958 715 l 786 972 l 467 972 l 467 617 l 617 617 l 718 767 l 807 767 l 807 367 l 706 317 l 614 499 l 467 499 l 467 119 l 774 119 l 972 404 l 1060 368 l 1060 -25 l 951 0 m 225 1465 l 951 1465 l 951 1347 l 225 1347 l 225 1465 z "},"Ę":{"ha":1142,"x_min":36,"x_max":1060,"o":"m 996 -11 q 943 -136 943 -94 q 959 -171 943 -160 q 1011 -183 975 -182 l 1011 -282 l 904 -367 q 747 -308 801 -350 q 692 -204 692 -267 q 703 -146 692 -165 l 883 0 l 61 0 l 61 89 l 192 192 l 192 947 l 36 992 l 86 1092 l 938 1092 l 1046 1117 l 1046 753 l 958 715 l 786 972 l 467 972 l 467 617 l 617 617 l 718 767 l 807 767 l 807 367 l 706 317 l 614 499 l 467 499 l 467 119 l 774 119 l 972 404 l 1060 368 l 1060 -25 l 996 -11 z "},"F":{"ha":1086,"x_min":36,"x_max":1046,"o":"m 1046 753 l 958 715 l 781 972 l 467 972 l 467 617 l 617 617 l 718 767 l 807 767 l 807 353 l 706 301 l 611 499 l 467 499 l 467 151 l 715 101 l 665 0 l 61 0 l 61 89 l 192 192 l 192 947 l 36 992 l 86 1092 l 938 1092 l 1046 1117 l 1046 753 z "},"G":{"ha":1321,"x_min":76,"x_max":1281,"o":"m 1150 249 l 1188 158 l 932 1 q 796 -24 861 -18 q 656 -29 731 -29 q 353 42 485 -29 q 149 237 222 113 q 76 519 76 361 q 184 820 76 682 q 452 1038 292 958 q 757 1118 613 1118 q 967 1097 847 1118 q 1142 1053 1086 1076 l 1142 704 l 988 704 q 676 944 872 944 q 524 898 593 944 q 416 769 456 851 q 376 586 376 688 q 415 365 376 465 q 535 206 454 265 q 733 146 615 146 q 783 146 740 146 q 874 151 825 146 l 874 410 l 649 464 l 699 564 l 1281 564 l 1281 476 l 1150 361 l 1150 249 z "},"Ğ":{"ha":1321,"x_min":76,"x_max":1281,"o":"m 1150 249 l 1188 158 l 932 1 q 796 -24 861 -18 q 656 -29 731 -29 q 353 42 485 -29 q 149 237 222 113 q 76 519 76 361 q 184 820 76 682 q 452 1038 292 958 q 757 1118 613 1118 q 967 1097 847 1118 q 1142 1053 1086 1076 l 1142 704 l 988 704 q 676 944 872 944 q 524 898 593 944 q 416 769 456 851 q 376 586 376 688 q 415 365 376 465 q 535 206 454 265 q 733 146 615 146 q 783 146 740 146 q 874 151 825 146 l 874 410 l 649 464 l 699 564 l 1281 564 l 1281 476 l 1150 361 l 1150 249 m 1043 1574 q 970 1409 1028 1485 q 834 1290 913 1333 q 678 1246 756 1246 q 486 1288 578 1246 q 350 1401 394 1329 l 569 1574 q 628 1463 589 1501 q 728 1424 668 1424 q 790 1442 765 1424 q 824 1493 815 1460 l 1043 1574 z "},"Ģ":{"ha":1321,"x_min":76,"x_max":1281,"o":"m 1150 249 l 1188 158 l 932 1 q 796 -24 861 -18 q 656 -29 731 -29 q 353 42 485 -29 q 149 237 222 113 q 76 519 76 361 q 184 820 76 682 q 452 1038 292 958 q 757 1118 613 1118 q 967 1097 847 1118 q 1142 1053 1086 1076 l 1142 704 l 988 704 q 676 944 872 944 q 524 898 593 944 q 416 769 456 851 q 376 586 376 688 q 415 365 376 465 q 535 206 454 265 q 733 146 615 146 q 783 146 740 146 q 874 151 825 146 l 874 410 l 649 464 l 699 564 l 1281 564 l 1281 476 l 1150 361 l 1150 249 m 896 -204 l 718 -422 l 586 -422 l 628 -283 l 501 -217 l 553 -115 l 896 -115 l 896 -204 z "},"Ġ":{"ha":1321,"x_min":76,"x_max":1281,"o":"m 1150 249 l 1188 158 l 932 1 q 796 -24 861 -18 q 656 -29 731 -29 q 353 42 485 -29 q 149 237 222 113 q 76 519 76 361 q 184 820 76 682 q 452 1038 292 958 q 757 1118 613 1118 q 967 1097 847 1118 q 1142 1053 1086 1076 l 1142 704 l 988 704 q 676 944 872 944 q 524 898 593 944 q 416 769 456 851 q 376 586 376 688 q 415 365 376 465 q 535 206 454 265 q 733 146 615 146 q 783 146 740 146 q 874 151 825 146 l 874 410 l 649 464 l 699 564 l 1281 564 l 1281 476 l 1150 361 l 1150 249 m 706 1538 q 812 1497 771 1538 q 853 1396 853 1456 q 823 1316 853 1353 q 748 1257 793 1279 q 661 1235 703 1235 q 555 1276 597 1235 q 513 1376 513 1317 q 542 1456 513 1419 q 618 1515 572 1493 q 706 1538 664 1538 z "},"H":{"ha":1382,"x_min":36,"x_max":1346,"o":"m 1296 0 l 783 0 l 783 89 l 914 201 l 914 485 l 467 485 l 467 144 l 624 101 l 574 0 l 61 0 l 61 89 l 192 201 l 192 949 l 36 992 l 86 1092 l 599 1092 l 599 1004 l 467 890 l 467 603 l 914 603 l 914 949 l 758 992 l 808 1092 l 1321 1092 l 1321 1004 l 1189 890 l 1189 144 l 1346 101 l 1296 0 z "},"Ħ":{"ha":1382,"x_min":0,"x_max":1381,"o":"m 1189 144 l 1346 101 l 1296 0 l 783 0 l 783 89 l 914 201 l 914 485 l 467 485 l 467 144 l 624 101 l 574 0 l 61 0 l 61 89 l 192 201 l 192 724 l 0 724 l 0 842 l 192 842 l 192 949 l 36 992 l 86 1092 l 599 1092 l 599 1004 l 467 890 l 467 842 l 914 842 l 914 949 l 758 992 l 808 1092 l 1321 1092 l 1321 1004 l 1189 890 l 1189 842 l 1381 842 l 1381 724 l 1189 724 l 1189 144 m 467 724 l 467 603 l 914 603 l 914 724 l 467 724 z "},"I":{"ha":660,"x_min":36,"x_max":624,"o":"m 574 0 l 61 0 l 61 89 l 192 201 l 192 949 l 36 992 l 86 1092 l 599 1092 l 599 1004 l 467 890 l 467 144 l 624 101 l 574 0 z "},"Ĳ":{"ha":1271,"x_min":36,"x_max":1236,"o":"m 574 0 l 61 0 l 61 89 l 192 201 l 192 949 l 36 992 l 86 1092 l 599 1092 l 599 1004 l 467 890 l 467 144 l 624 101 l 574 0 m 1104 138 q 1108 35 1104 82 q 1117 -28 1111 -11 l 788 -367 l 689 -292 q 801 -124 772 -193 q 829 49 829 -54 l 829 949 l 644 992 l 696 1092 l 1236 1092 l 1236 1004 l 1104 901 l 1104 138 z "},"Í":{"ha":660,"x_min":36,"x_max":664,"o":"m 574 0 l 61 0 l 61 89 l 192 201 l 192 949 l 36 992 l 86 1092 l 599 1092 l 599 1004 l 467 890 l 467 144 l 624 101 l 574 0 m 664 1475 l 288 1267 l 201 1307 l 350 1579 l 626 1553 l 664 1475 z "},"Î":{"ha":660,"x_min":-24,"x_max":697,"o":"m 574 0 l 61 0 l 61 89 l 192 201 l 192 949 l 36 992 l 86 1092 l 599 1092 l 599 1004 l 467 890 l 467 144 l 624 101 l 574 0 m 660 1285 l 385 1258 l 286 1421 l 33 1258 l -24 1351 l 319 1572 l 697 1364 l 660 1285 z "},"Ï":{"ha":660,"x_min":-26,"x_max":688,"o":"m 267 1411 q 241 1339 267 1372 q 176 1285 215 1306 q 101 1265 138 1265 q 10 1302 46 1265 q -26 1393 -26 1339 q -1 1466 -26 1432 q 65 1520 25 1500 q 140 1540 104 1540 q 231 1503 196 1540 q 267 1411 267 1467 m 561 1540 q 652 1503 617 1540 q 688 1411 688 1467 q 662 1339 688 1372 q 597 1285 636 1306 q 522 1265 558 1265 q 431 1302 467 1265 q 394 1393 394 1339 q 420 1466 394 1432 q 485 1520 446 1500 q 561 1540 525 1540 m 624 101 l 574 0 l 61 0 l 61 89 l 192 201 l 192 949 l 36 992 l 86 1092 l 599 1092 l 599 1004 l 467 890 l 467 144 l 624 101 z "},"İ":{"ha":660,"x_min":36,"x_max":624,"o":"m 574 0 l 61 0 l 61 89 l 192 201 l 192 949 l 36 992 l 86 1092 l 599 1092 l 599 1004 l 467 890 l 467 144 l 624 101 l 574 0 m 349 1538 q 455 1497 414 1538 q 496 1396 496 1456 q 466 1316 496 1353 q 391 1257 436 1279 q 304 1235 346 1235 q 198 1276 240 1235 q 156 1376 156 1317 q 185 1456 156 1419 q 261 1515 215 1493 q 349 1538 307 1538 z "},"Ì":{"ha":660,"x_min":-4,"x_max":624,"o":"m 574 0 l 61 0 l 61 89 l 192 201 l 192 949 l 36 992 l 86 1092 l 599 1092 l 599 1004 l 467 890 l 467 144 l 624 101 l 574 0 m 372 1267 l -4 1475 l 35 1553 l 311 1579 l 460 1307 l 372 1267 z "},"Ī":{"ha":660,"x_min":-33,"x_max":693,"o":"m 574 0 l 61 0 l 61 89 l 192 201 l 192 949 l 36 992 l 86 1092 l 599 1092 l 599 1004 l 467 890 l 467 144 l 624 101 l 574 0 m -33 1465 l 693 1465 l 693 1347 l -33 1347 l -33 1465 z "},"Į":{"ha":660,"x_min":36,"x_max":624,"o":"m 514 -136 q 530 -171 514 -160 q 582 -183 546 -182 l 582 -282 l 475 -367 q 317 -308 372 -350 q 263 -204 263 -267 q 274 -146 263 -165 l 454 0 l 61 0 l 61 89 l 192 201 l 192 949 l 36 992 l 86 1092 l 599 1092 l 599 1004 l 467 890 l 467 144 l 624 101 l 574 0 q 514 -136 514 -92 z "},"J":{"ha":611,"x_min":-15,"x_max":576,"o":"m 444 138 q 448 35 444 82 q 457 -28 451 -11 l 128 -367 l 29 -292 q 141 -124 113 -193 q 169 49 169 -54 l 169 949 l -15 992 l 36 1092 l 576 1092 l 576 1004 l 444 901 l 444 138 z "},"K":{"ha":1274,"x_min":36,"x_max":1256,"o":"m 624 101 l 574 0 l 61 0 l 61 89 l 192 201 l 192 949 l 36 992 l 86 1092 l 599 1092 l 599 1004 l 467 890 l 467 144 l 624 101 m 1206 0 l 897 0 l 513 547 l 906 894 l 743 992 l 793 1092 l 1224 1092 l 1224 1004 l 785 615 l 1107 169 l 1256 101 l 1206 0 z "},"Ķ":{"ha":1274,"x_min":36,"x_max":1256,"o":"m 624 101 l 574 0 l 61 0 l 61 89 l 192 201 l 192 949 l 36 992 l 86 1092 l 599 1092 l 599 1004 l 467 890 l 467 144 l 624 101 m 1206 0 l 897 0 l 513 547 l 906 894 l 743 992 l 793 1092 l 1224 1092 l 1224 1004 l 785 615 l 1107 169 l 1256 101 l 1206 0 m 872 -204 l 694 -422 l 563 -422 l 604 -283 l 478 -217 l 529 -115 l 872 -115 l 872 -204 z "},"L":{"ha":1111,"x_min":36,"x_max":1071,"o":"m 963 -1 l 61 -1 l 61 88 l 192 190 l 192 953 l 36 992 l 86 1092 l 599 1092 l 599 1004 l 467 901 l 467 119 l 765 119 l 983 432 l 1071 396 l 1071 -26 l 963 -1 z "},"Ĺ":{"ha":1111,"x_min":36,"x_max":1071,"o":"m 963 -1 l 61 -1 l 61 88 l 192 190 l 192 953 l 36 992 l 86 1092 l 599 1092 l 599 1004 l 467 901 l 467 119 l 765 119 l 983 432 l 1071 396 l 1071 -26 l 963 -1 m 682 1475 l 306 1267 l 219 1307 l 368 1579 l 644 1553 l 682 1475 z "},"Ľ":{"ha":1111,"x_min":36,"x_max":1071,"o":"m 963 -1 l 61 -1 l 61 88 l 192 190 l 192 953 l 36 992 l 86 1092 l 599 1092 l 599 1004 l 467 901 l 467 119 l 765 119 l 983 432 l 1071 396 l 1071 -26 l 963 -1 m 1003 844 l 849 674 l 750 749 q 783 865 775 807 l 706 919 l 706 1008 l 906 1092 l 1003 1093 l 1003 844 z "},"Ļ":{"ha":1111,"x_min":36,"x_max":1071,"o":"m 963 -1 l 61 -1 l 61 88 l 192 190 l 192 953 l 36 992 l 86 1092 l 599 1092 l 599 1004 l 467 901 l 467 119 l 765 119 l 983 432 l 1071 396 l 1071 -26 l 963 -1 m 774 -204 l 596 -422 l 464 -422 l 506 -283 l 379 -217 l 431 -115 l 774 -115 l 774 -204 z "},"Ŀ":{"ha":1111,"x_min":36,"x_max":1071,"o":"m 963 -1 l 61 -1 l 61 88 l 192 190 l 192 953 l 36 992 l 86 1092 l 599 1092 l 599 1004 l 467 901 l 467 119 l 765 119 l 983 432 l 1071 396 l 1071 -26 l 963 -1 m 869 865 q 976 824 935 865 q 1017 724 1017 783 q 987 645 1017 682 q 912 586 957 608 q 825 564 867 564 q 719 604 761 564 q 676 704 676 644 q 706 784 676 747 q 782 843 736 821 q 869 865 828 865 z "},"Ł":{"ha":1089,"x_min":0,"x_max":1071,"o":"m 963 -3 l 61 -3 l 61 86 l 192 189 l 192 368 l 0 217 l 0 296 l 192 447 l 192 951 l 36 990 l 86 1090 l 599 1090 l 599 1003 l 467 900 l 467 604 l 772 846 l 772 767 l 467 525 l 467 119 l 765 119 l 983 432 l 1071 396 l 1071 -28 l 963 -3 z "},"M":{"ha":1607,"x_min":36,"x_max":1572,"o":"m 1521 -1 l 1008 -1 l 1008 88 l 1139 190 l 1139 822 l 803 -1 l 669 -1 l 324 835 l 324 160 l 482 100 l 431 -1 l 61 -1 l 61 88 l 192 190 l 192 929 l 36 992 l 86 1092 l 504 1092 l 813 350 l 1114 1092 l 1547 1092 l 1547 1004 l 1415 901 l 1415 140 l 1572 100 l 1521 -1 z "},"N":{"ha":1260,"x_min":36,"x_max":1238,"o":"m 1106 888 l 1106 -3 l 972 -3 l 324 714 l 324 174 l 538 100 l 488 -1 l 61 -1 l 61 88 l 192 200 l 192 903 l 36 992 l 86 1092 l 340 1092 l 972 396 l 972 918 l 761 992 l 811 1092 l 1238 1092 l 1238 1001 l 1106 888 z "},"Ń":{"ha":1260,"x_min":36,"x_max":1238,"o":"m 1106 888 l 1106 -3 l 972 -3 l 324 714 l 324 174 l 538 100 l 488 -1 l 61 -1 l 61 88 l 192 200 l 192 903 l 36 992 l 86 1092 l 340 1092 l 972 396 l 972 918 l 761 992 l 811 1092 l 1238 1092 l 1238 1001 l 1106 888 m 969 1475 l 593 1267 l 507 1307 l 656 1579 l 932 1553 l 969 1475 z "},"Ň":{"ha":1260,"x_min":36,"x_max":1238,"o":"m 1106 888 l 1106 -3 l 972 -3 l 324 714 l 324 174 l 538 100 l 488 -1 l 61 -1 l 61 88 l 192 200 l 192 903 l 36 992 l 86 1092 l 340 1092 l 972 396 l 972 918 l 761 992 l 811 1092 l 1238 1092 l 1238 1001 l 1106 888 m 644 1265 l 267 1475 l 306 1553 l 579 1579 l 678 1417 l 931 1579 l 988 1488 l 644 1265 z "},"Ņ":{"ha":1260,"x_min":36,"x_max":1238,"o":"m 1106 888 l 1106 -3 l 972 -3 l 324 714 l 324 174 l 538 100 l 488 -1 l 61 -1 l 61 88 l 192 200 l 192 903 l 36 992 l 86 1092 l 340 1092 l 972 396 l 972 918 l 761 992 l 811 1092 l 1238 1092 l 1238 1001 l 1106 888 m 831 -204 l 653 -422 l 521 -422 l 563 -283 l 436 -217 l 488 -115 l 831 -115 l 831 -204 z "},"Ŋ":{"ha":1260,"x_min":36,"x_max":1238,"o":"m 1106 136 q 1109 34 1106 81 q 1118 -29 1113 -12 l 789 -368 l 692 -293 q 814 -140 772 -204 q 871 -22 856 -76 q 883 96 886 32 l 324 714 l 324 174 l 538 100 l 488 -1 l 61 -1 l 61 88 l 192 200 l 192 903 l 36 992 l 86 1092 l 340 1092 l 972 396 l 972 918 l 761 992 l 811 1092 l 1238 1092 l 1238 1004 l 1106 889 l 1106 136 z "},"Ñ":{"ha":1260,"x_min":36,"x_max":1238,"o":"m 1106 888 l 1106 -3 l 972 -3 l 324 714 l 324 174 l 538 100 l 488 -1 l 61 -1 l 61 88 l 192 200 l 192 903 l 36 992 l 86 1092 l 340 1092 l 972 396 l 972 918 l 761 992 l 811 1092 l 1238 1092 l 1238 1001 l 1106 888 m 610 1601 q 715 1508 675 1536 q 789 1479 756 1479 q 846 1499 815 1479 l 924 1549 l 981 1456 l 654 1247 q 549 1342 589 1314 q 475 1369 508 1369 q 417 1350 449 1369 l 342 1301 l 283 1393 l 610 1601 z "},"O":{"ha":1347,"x_min":75,"x_max":1272,"o":"m 722 1119 q 1011 1049 886 1119 q 1204 853 1136 978 q 1272 569 1272 728 q 1169 269 1272 407 q 913 52 1065 132 q 624 -28 760 -28 q 337 42 461 -28 q 144 238 213 113 q 75 521 75 363 q 178 822 75 683 q 433 1040 281 960 q 722 1119 586 1119 m 642 946 q 507 899 568 946 q 410 771 446 853 q 375 588 375 689 q 411 365 375 465 q 522 206 447 265 q 704 146 596 146 q 839 192 778 146 q 936 321 900 239 q 972 504 972 403 q 936 727 972 626 q 825 887 900 828 q 642 946 750 946 z "},"Ó":{"ha":1347,"x_min":75,"x_max":1272,"o":"m 722 1119 q 1011 1049 886 1119 q 1204 853 1136 978 q 1272 569 1272 728 q 1169 269 1272 407 q 913 52 1065 132 q 624 -28 760 -28 q 337 42 461 -28 q 144 238 213 113 q 75 521 75 363 q 178 822 75 683 q 433 1040 281 960 q 722 1119 586 1119 m 642 946 q 507 899 568 946 q 410 771 446 853 q 375 588 375 689 q 411 365 375 465 q 522 206 447 265 q 704 146 596 146 q 839 192 778 146 q 936 321 900 239 q 972 504 972 403 q 936 727 972 626 q 825 887 900 828 q 642 946 750 946 m 1008 1475 l 632 1267 l 546 1307 l 694 1579 l 971 1553 l 1008 1475 z "},"Ô":{"ha":1347,"x_min":75,"x_max":1272,"o":"m 722 1119 q 1011 1049 886 1119 q 1204 853 1136 978 q 1272 569 1272 728 q 1169 269 1272 407 q 913 52 1065 132 q 624 -28 760 -28 q 337 42 461 -28 q 144 238 213 113 q 75 521 75 363 q 178 822 75 683 q 433 1040 281 960 q 722 1119 586 1119 m 642 946 q 507 899 568 946 q 410 771 446 853 q 375 588 375 689 q 411 365 375 465 q 522 206 447 265 q 704 146 596 146 q 839 192 778 146 q 936 321 900 239 q 972 504 972 403 q 936 727 972 626 q 825 887 900 828 q 642 946 750 946 m 1004 1285 l 729 1258 l 631 1421 l 378 1258 l 321 1351 l 664 1572 l 1042 1364 l 1004 1285 z "},"Ö":{"ha":1347,"x_min":75,"x_max":1272,"o":"m 446 1546 q 542 1507 504 1546 q 579 1411 579 1468 q 552 1336 579 1371 q 484 1281 525 1301 q 406 1260 443 1260 q 310 1298 349 1260 q 272 1393 272 1336 q 299 1469 272 1433 q 367 1525 326 1504 q 446 1546 408 1546 m 944 1546 q 1040 1507 1003 1546 q 1078 1411 1078 1468 q 1051 1336 1078 1371 q 983 1281 1024 1301 q 904 1260 942 1260 q 809 1298 847 1260 q 771 1393 771 1336 q 798 1469 771 1433 q 866 1525 825 1504 q 944 1546 907 1546 m 722 1119 q 1011 1049 886 1119 q 1204 853 1136 978 q 1272 569 1272 728 q 1169 269 1272 407 q 913 52 1065 132 q 624 -28 760 -28 q 337 42 461 -28 q 144 238 213 113 q 75 521 75 363 q 178 822 75 683 q 433 1040 281 960 q 722 1119 586 1119 m 642 946 q 507 899 568 946 q 410 771 446 853 q 375 588 375 689 q 411 365 375 465 q 522 206 447 265 q 704 146 596 146 q 839 192 778 146 q 936 321 900 239 q 972 504 972 403 q 936 727 972 626 q 825 887 900 828 q 642 946 750 946 z "},"Ò":{"ha":1347,"x_min":75,"x_max":1272,"o":"m 722 1119 q 1011 1049 886 1119 q 1204 853 1136 978 q 1272 569 1272 728 q 1169 269 1272 407 q 913 52 1065 132 q 624 -28 760 -28 q 337 42 461 -28 q 144 238 213 113 q 75 521 75 363 q 178 822 75 683 q 433 1040 281 960 q 722 1119 586 1119 m 642 946 q 507 899 568 946 q 410 771 446 853 q 375 588 375 689 q 411 365 375 465 q 522 206 447 265 q 704 146 596 146 q 839 192 778 146 q 936 321 900 239 q 972 504 972 403 q 936 727 972 626 q 825 887 900 828 q 642 946 750 946 m 717 1267 l 340 1475 l 379 1553 l 656 1579 l 804 1307 l 717 1267 z "},"Ő":{"ha":1347,"x_min":75,"x_max":1272,"o":"m 722 1119 q 1011 1049 886 1119 q 1204 853 1136 978 q 1272 569 1272 728 q 1169 269 1272 407 q 913 52 1065 132 q 624 -28 760 -28 q 337 42 461 -28 q 144 238 213 113 q 75 521 75 363 q 178 822 75 683 q 433 1040 281 960 q 722 1119 586 1119 m 642 946 q 507 899 568 946 q 410 771 446 853 q 375 588 375 689 q 411 365 375 465 q 522 206 447 265 q 704 146 596 146 q 839 192 778 146 q 936 321 900 239 q 972 504 972 403 q 936 727 972 626 q 825 887 900 828 q 642 946 750 946 m 674 1429 l 424 1272 l 367 1358 l 475 1574 l 688 1547 l 674 1429 m 1138 1429 l 888 1272 l 831 1358 l 939 1574 l 1151 1547 l 1138 1429 z "},"Ō":{"ha":1347,"x_min":75,"x_max":1272,"o":"m 722 1119 q 1011 1049 886 1119 q 1204 853 1136 978 q 1272 569 1272 728 q 1169 269 1272 407 q 913 52 1065 132 q 624 -28 760 -28 q 337 42 461 -28 q 144 238 213 113 q 75 521 75 363 q 178 822 75 683 q 433 1040 281 960 q 722 1119 586 1119 m 642 946 q 507 899 568 946 q 410 771 446 853 q 375 588 375 689 q 411 365 375 465 q 522 206 447 265 q 704 146 596 146 q 839 192 778 146 q 936 321 900 239 q 972 504 972 403 q 936 727 972 626 q 825 887 900 828 q 642 946 750 946 m 311 1465 l 1038 1465 l 1038 1347 l 311 1347 l 311 1465 z "},"Ø":{"ha":1347,"x_min":75,"x_max":1274,"o":"m 1024 1042 q 1208 848 1142 971 q 1274 569 1274 725 q 1170 269 1274 407 q 914 52 1067 132 q 625 -28 761 -28 q 425 4 518 -28 l 296 -219 l 204 -167 l 328 49 q 142 242 208 119 q 75 521 75 365 q 178 822 75 683 q 433 1040 281 960 q 722 1119 586 1119 q 925 1088 832 1119 l 1054 1310 l 1146 1257 l 1022 1042 l 1024 1042 m 376 588 q 397 415 376 496 q 458 274 418 333 l 815 893 q 643 946 740 946 q 509 899 571 946 q 412 771 447 853 q 376 588 376 689 m 704 143 q 839 190 778 143 q 936 319 900 236 q 972 503 972 401 q 952 674 972 594 q 892 814 932 754 l 535 194 q 706 144 607 144 l 704 143 z "},"Õ":{"ha":1347,"x_min":75,"x_max":1272,"o":"m 722 1119 q 1011 1049 886 1119 q 1204 853 1136 978 q 1272 569 1272 728 q 1169 269 1272 407 q 913 52 1065 132 q 624 -28 760 -28 q 337 42 461 -28 q 144 238 213 113 q 75 521 75 363 q 178 822 75 683 q 433 1040 281 960 q 722 1119 586 1119 m 642 946 q 507 899 568 946 q 410 771 446 853 q 375 588 375 689 q 411 365 375 465 q 522 206 447 265 q 704 146 596 146 q 839 192 778 146 q 936 321 900 239 q 972 504 972 403 q 936 727 972 626 q 825 887 900 828 q 642 946 750 946 m 649 1601 q 754 1508 714 1536 q 828 1479 794 1479 q 885 1499 854 1479 l 963 1549 l 1019 1456 l 693 1247 q 588 1342 628 1314 q 514 1369 547 1369 q 456 1350 488 1369 l 381 1301 l 322 1393 l 649 1601 z "},"Œ":{"ha":1722,"x_min":75,"x_max":1640,"o":"m 1532 0 l 994 0 q 744 -8 867 0 q 611 -14 653 -14 q 331 55 453 -14 q 142 246 210 124 q 75 522 75 368 q 176 815 75 681 q 426 1027 276 949 q 710 1106 575 1106 q 833 1099 771 1106 q 993 1092 938 1092 l 1518 1092 l 1626 1117 l 1626 753 l 1539 715 l 1367 972 l 1094 972 l 1094 617 l 1200 617 l 1310 767 l 1399 767 l 1399 367 l 1297 317 l 1197 499 l 1094 499 l 1094 119 l 1354 119 l 1553 404 l 1640 368 l 1640 -25 l 1532 0 m 374 589 q 411 353 374 460 q 526 185 449 247 q 718 122 604 122 q 819 150 772 122 l 819 946 q 671 969 756 969 q 521 919 589 969 q 414 783 453 869 q 375 588 375 696 l 374 589 z "},"P":{"ha":1104,"x_min":36,"x_max":1078,"o":"m 629 544 q 738 596 699 544 q 778 738 778 647 q 728 907 778 842 q 581 972 678 972 q 467 935 519 972 l 467 151 l 715 101 l 665 0 l 61 0 l 61 89 l 192 192 l 192 944 l 36 992 l 86 1092 l 338 1092 q 575 1100 458 1092 q 700 1106 658 1106 q 897 1063 811 1106 q 1031 947 983 1021 q 1078 781 1078 872 q 999 592 1078 681 q 802 453 921 504 q 571 408 683 403 l 513 444 l 563 544 l 629 544 z "},"Þ":{"ha":1082,"x_min":36,"x_max":1056,"o":"m 629 388 q 721 424 688 388 q 754 528 754 461 q 710 658 754 607 q 581 708 665 708 q 467 671 519 708 l 467 144 l 624 101 l 574 0 l 61 0 l 61 89 l 192 201 l 192 949 l 36 992 l 86 1092 l 599 1092 l 599 1004 l 467 890 l 467 831 q 525 833 500 832 q 569 836 550 835 q 700 842 658 842 q 885 806 804 842 q 1011 707 967 769 q 1056 569 1056 644 q 981 408 1056 485 q 792 288 906 332 q 571 250 678 244 l 513 286 l 563 388 l 629 388 z "},"Q":{"ha":1347,"x_min":75,"x_max":1492,"o":"m 1492 -264 q 1114 -367 1217 -367 q 969 -265 1068 -367 q 744 -12 871 -162 q 624 -28 679 -28 q 337 42 461 -28 q 144 238 213 113 q 75 521 75 363 q 178 822 75 683 q 433 1040 281 960 q 722 1119 586 1119 q 1011 1049 886 1119 q 1204 853 1136 978 q 1272 569 1272 728 q 1172 274 1272 410 q 918 56 1071 138 q 1133 -92 1033 -28 q 1254 -157 1232 -157 l 1442 -157 l 1492 -264 m 375 588 q 411 365 375 465 q 522 206 447 265 q 704 146 596 146 q 839 192 778 146 q 936 321 900 239 q 972 504 972 403 q 936 727 972 626 q 825 887 900 828 q 642 946 750 946 q 507 899 568 946 q 410 771 446 853 q 375 588 375 689 z "},"R":{"ha":1193,"x_min":36,"x_max":1204,"o":"m 1153 1 l 839 1 l 583 478 l 524 514 l 561 589 l 622 589 q 730 635 690 589 q 769 763 769 681 q 720 915 769 856 q 576 974 671 974 q 467 939 517 974 l 467 146 l 624 103 l 574 1 l 61 1 l 61 90 l 192 203 l 192 951 l 36 993 l 86 1093 l 338 1093 q 572 1101 456 1093 q 696 1107 656 1107 q 891 1069 806 1107 q 1023 965 976 1031 q 1069 817 1069 899 q 986 638 1069 721 q 779 511 903 556 l 896 479 l 1065 165 l 1204 103 l 1153 1 z "},"Ŕ":{"ha":1193,"x_min":36,"x_max":1204,"o":"m 1153 1 l 839 1 l 583 478 l 524 514 l 561 589 l 622 589 q 730 635 690 589 q 769 763 769 681 q 720 915 769 856 q 576 974 671 974 q 467 939 517 974 l 467 146 l 624 103 l 574 1 l 61 1 l 61 90 l 192 203 l 192 951 l 36 993 l 86 1093 l 338 1093 q 572 1101 456 1093 q 696 1107 656 1107 q 891 1069 806 1107 q 1023 965 976 1031 q 1069 817 1069 899 q 986 638 1069 721 q 779 511 903 556 l 896 479 l 1065 165 l 1204 103 l 1153 1 m 908 1475 l 532 1267 l 446 1307 l 594 1579 l 871 1553 l 908 1475 z "},"Ř":{"ha":1193,"x_min":36,"x_max":1204,"o":"m 1153 1 l 839 1 l 583 478 l 524 514 l 561 589 l 622 589 q 730 635 690 589 q 769 763 769 681 q 720 915 769 856 q 576 974 671 974 q 467 939 517 974 l 467 146 l 624 103 l 574 1 l 61 1 l 61 90 l 192 203 l 192 951 l 36 993 l 86 1093 l 338 1093 q 572 1101 456 1093 q 696 1107 656 1107 q 891 1069 806 1107 q 1023 965 976 1031 q 1069 817 1069 899 q 986 638 1069 721 q 779 511 903 556 l 896 479 l 1065 165 l 1204 103 l 1153 1 m 583 1265 l 206 1475 l 244 1553 l 518 1579 l 617 1417 l 869 1579 l 926 1488 l 583 1265 z "},"Ŗ":{"ha":1193,"x_min":36,"x_max":1204,"o":"m 1153 1 l 839 1 l 583 478 l 524 514 l 561 589 l 622 589 q 730 635 690 589 q 769 763 769 681 q 720 915 769 856 q 576 974 671 974 q 467 939 517 974 l 467 146 l 624 103 l 574 1 l 61 1 l 61 90 l 192 203 l 192 951 l 36 993 l 86 1093 l 338 1093 q 572 1101 456 1093 q 696 1107 656 1107 q 891 1069 806 1107 q 1023 965 976 1031 q 1069 817 1069 899 q 986 638 1069 721 q 779 511 903 556 l 896 479 l 1065 165 l 1204 103 l 1153 1 m 840 -204 l 663 -422 l 531 -422 l 572 -283 l 446 -217 l 497 -115 l 840 -115 l 840 -204 z "},"S":{"ha":972,"x_min":60,"x_max":921,"o":"m 629 224 q 597 303 629 265 q 517 372 564 340 q 385 451 469 403 q 218 553 281 511 q 111 653 156 596 q 67 781 67 711 q 132 930 67 850 q 292 1065 197 1010 q 467 1119 388 1119 q 691 1099 563 1119 q 879 1054 819 1078 l 879 740 l 724 740 q 603 915 671 853 q 461 978 535 978 q 385 947 413 978 q 357 867 357 915 q 390 783 357 822 q 473 710 424 743 q 608 631 522 678 q 772 532 710 574 q 877 434 833 490 q 921 310 921 378 q 851 160 921 240 q 681 26 781 81 q 497 -29 581 -29 q 258 -8 396 -29 q 60 36 121 13 l 60 351 l 214 351 q 348 176 271 239 q 504 114 425 114 q 595 146 561 114 q 629 224 629 178 z "},"Ś":{"ha":972,"x_min":60,"x_max":921,"o":"m 629 224 q 597 303 629 265 q 517 372 564 340 q 385 451 469 403 q 218 553 281 511 q 111 653 156 596 q 67 781 67 711 q 132 930 67 850 q 292 1065 197 1010 q 467 1119 388 1119 q 691 1099 563 1119 q 879 1054 819 1078 l 879 740 l 724 740 q 603 915 671 853 q 461 978 535 978 q 385 947 413 978 q 357 867 357 915 q 390 783 357 822 q 473 710 424 743 q 608 631 522 678 q 772 532 710 574 q 877 434 833 490 q 921 310 921 378 q 851 160 921 240 q 681 26 781 81 q 497 -29 581 -29 q 258 -8 396 -29 q 60 36 121 13 l 60 351 l 214 351 q 348 176 271 239 q 504 114 425 114 q 595 146 561 114 q 629 224 629 178 m 807 1475 l 431 1267 l 344 1307 l 493 1579 l 769 1553 l 807 1475 z "},"Š":{"ha":972,"x_min":60,"x_max":921,"o":"m 629 224 q 597 303 629 265 q 517 372 564 340 q 385 451 469 403 q 218 553 281 511 q 111 653 156 596 q 67 781 67 711 q 132 930 67 850 q 292 1065 197 1010 q 467 1119 388 1119 q 691 1099 563 1119 q 879 1054 819 1078 l 879 740 l 724 740 q 603 915 671 853 q 461 978 535 978 q 385 947 413 978 q 357 867 357 915 q 390 783 357 822 q 473 710 424 743 q 608 631 522 678 q 772 532 710 574 q 877 434 833 490 q 921 310 921 378 q 851 160 921 240 q 681 26 781 81 q 497 -29 581 -29 q 258 -8 396 -29 q 60 36 121 13 l 60 351 l 214 351 q 348 176 271 239 q 504 114 425 114 q 595 146 561 114 q 629 224 629 178 m 482 1265 l 104 1475 l 143 1553 l 417 1579 l 515 1417 l 768 1579 l 825 1488 l 482 1265 z "},"Ş":{"ha":972,"x_min":60,"x_max":921,"o":"m 919 313 q 881 203 919 261 q 778 93 842 144 q 644 10 714 42 q 547 -78 611 -22 q 647 -152 621 -119 q 674 -226 674 -185 q 597 -324 674 -290 q 363 -365 521 -358 l 363 -278 q 426 -244 407 -262 q 446 -197 446 -225 q 429 -148 446 -169 q 368 -96 413 -126 l 450 -26 q 231 -3 349 -22 q 60 36 114 15 l 60 351 l 214 351 q 348 176 271 239 q 504 114 425 114 q 595 146 561 114 q 629 224 629 178 q 597 303 629 265 q 517 372 564 340 q 385 451 469 403 q 218 553 281 511 q 111 653 156 596 q 67 781 67 711 q 132 930 67 850 q 292 1065 197 1010 q 467 1119 388 1119 q 691 1099 563 1119 q 879 1054 819 1078 l 879 740 l 724 740 q 603 915 671 853 q 461 978 535 978 q 385 947 413 978 q 357 867 357 915 q 390 783 357 822 q 473 710 424 743 q 608 631 522 678 q 772 532 710 574 q 877 434 833 490 q 921 310 921 378 l 919 313 z "},"Ș":{"ha":972,"x_min":60,"x_max":921,"o":"m 629 224 q 597 303 629 265 q 517 372 564 340 q 385 451 469 403 q 218 553 281 511 q 111 653 156 596 q 67 781 67 711 q 132 930 67 850 q 292 1065 197 1010 q 467 1119 388 1119 q 691 1099 563 1119 q 879 1054 819 1078 l 879 740 l 724 740 q 603 915 671 853 q 461 978 535 978 q 385 947 413 978 q 357 867 357 915 q 390 783 357 822 q 473 710 424 743 q 608 631 522 678 q 772 532 710 574 q 877 434 833 490 q 921 310 921 378 q 851 160 921 240 q 681 26 781 81 q 497 -29 581 -29 q 258 -8 396 -29 q 60 36 121 13 l 60 351 l 214 351 q 348 176 271 239 q 504 114 425 114 q 595 146 561 114 q 629 224 629 178 m 685 -204 l 507 -422 l 375 -422 l 417 -283 l 290 -217 l 342 -115 l 685 -115 l 685 -204 z "},"ẞ":{"ha":1304,"x_min":36,"x_max":1251,"o":"m 911 710 l 1250 710 l 1250 611 l 871 257 l 1094 257 l 1150 382 l 1238 357 l 1238 -25 l 1115 0 l 533 0 l 533 99 l 913 453 l 551 453 l 551 550 l 908 865 q 847 886 874 876 q 801 903 821 896 q 667 949 724 933 q 547 965 610 965 q 469 934 497 965 q 442 854 442 903 l 442 0 l 36 0 l 36 89 l 167 201 l 167 781 q 232 930 167 850 q 392 1065 297 1010 q 567 1119 488 1119 q 814 1108 642 1119 q 1251 1092 1039 1092 l 1250 996 l 911 710 z "},"T":{"ha":1178,"x_min":53,"x_max":1126,"o":"m 1126 725 l 1039 688 l 842 972 l 725 972 l 725 140 l 882 101 l 832 0 l 319 0 l 319 89 l 450 192 l 450 972 l 336 972 l 139 688 l 53 725 l 53 1117 l 160 1092 l 1018 1092 l 1126 1117 l 1126 725 z "},"Ŧ":{"ha":1178,"x_min":53,"x_max":1126,"o":"m 1126 725 l 1039 688 l 842 972 l 725 972 l 725 603 l 992 603 l 992 485 l 725 485 l 725 140 l 882 101 l 832 0 l 319 0 l 319 89 l 450 192 l 450 485 l 186 485 l 186 603 l 450 603 l 450 972 l 336 972 l 139 688 l 53 725 l 53 1117 l 160 1092 l 1018 1092 l 1126 1117 l 1126 725 z "},"Ť":{"ha":1178,"x_min":53,"x_max":1126,"o":"m 1126 725 l 1039 688 l 842 972 l 725 972 l 725 140 l 882 101 l 832 0 l 319 0 l 319 89 l 450 192 l 450 972 l 336 972 l 139 688 l 53 725 l 53 1117 l 160 1092 l 1018 1092 l 1126 1117 l 1126 725 m 599 1265 l 221 1475 l 260 1553 l 533 1579 l 632 1417 l 885 1579 l 942 1488 l 599 1265 z "},"Ţ":{"ha":1178,"x_min":53,"x_max":1128,"o":"m 1128 726 l 1040 689 l 843 974 l 726 974 l 726 154 l 731 161 l 792 125 l 882 103 l 832 1 l 722 1 q 633 -78 690 -28 q 733 -152 707 -119 q 760 -226 760 -185 q 683 -324 760 -290 q 449 -365 607 -358 l 449 -278 q 513 -244 493 -262 q 532 -197 532 -225 q 515 -148 532 -169 q 454 -96 499 -126 q 568 0 528 -36 l 319 0 l 319 89 l 450 192 l 450 972 l 336 972 l 139 688 l 53 725 l 53 1117 l 160 1092 l 1018 1092 l 1128 1118 l 1128 726 z "},"Ț":{"ha":1178,"x_min":53,"x_max":1126,"o":"m 1126 725 l 1039 688 l 842 972 l 725 972 l 725 140 l 882 101 l 832 0 l 319 0 l 319 89 l 450 192 l 450 972 l 336 972 l 139 688 l 53 725 l 53 1117 l 160 1092 l 1018 1092 l 1126 1117 l 1126 725 m 771 -204 l 593 -422 l 461 -422 l 503 -283 l 376 -217 l 428 -115 l 771 -115 l 771 -204 z "},"U":{"ha":1247,"x_min":-1,"x_max":1228,"o":"m 1096 901 l 1096 431 q 1023 181 1096 285 q 841 24 950 76 q 629 -28 732 -28 q 385 27 493 -28 q 216 178 276 82 q 156 396 156 275 l 156 953 l -1 992 l 50 1092 l 563 1092 l 563 1004 l 431 901 l 431 440 q 503 223 431 300 q 724 146 575 146 q 835 179 779 146 q 928 276 892 213 q 964 426 964 340 l 964 931 l 796 992 l 847 1092 l 1228 1092 l 1228 1004 l 1096 901 z "},"Ú":{"ha":1247,"x_min":-1,"x_max":1228,"o":"m 1096 901 l 1096 431 q 1023 181 1096 285 q 841 24 950 76 q 629 -28 732 -28 q 385 27 493 -28 q 216 178 276 82 q 156 396 156 275 l 156 953 l -1 992 l 50 1092 l 563 1092 l 563 1004 l 431 901 l 431 440 q 503 223 431 300 q 724 146 575 146 q 835 179 779 146 q 928 276 892 213 q 964 426 964 340 l 964 931 l 796 992 l 847 1092 l 1228 1092 l 1228 1004 l 1096 901 m 976 1475 l 600 1267 l 514 1307 l 663 1579 l 939 1553 l 976 1475 z "},"Û":{"ha":1247,"x_min":-1,"x_max":1228,"o":"m 1096 901 l 1096 431 q 1023 181 1096 285 q 841 24 950 76 q 629 -28 732 -28 q 385 27 493 -28 q 216 178 276 82 q 156 396 156 275 l 156 953 l -1 992 l 50 1092 l 563 1092 l 563 1004 l 431 901 l 431 440 q 503 223 431 300 q 724 146 575 146 q 835 179 779 146 q 928 276 892 213 q 964 426 964 340 l 964 931 l 796 992 l 847 1092 l 1228 1092 l 1228 1004 l 1096 901 m 972 1285 l 697 1258 l 599 1421 l 346 1258 l 289 1351 l 632 1572 l 1010 1364 l 972 1285 z "},"Ü":{"ha":1247,"x_min":-1,"x_max":1228,"o":"m 372 1260 q 277 1298 315 1260 q 239 1393 239 1336 q 266 1469 239 1433 q 334 1525 293 1504 q 413 1546 375 1546 q 508 1507 471 1546 q 546 1411 546 1468 q 519 1336 546 1371 q 451 1281 492 1301 q 372 1260 410 1260 m 871 1260 q 776 1298 814 1260 q 738 1393 738 1336 q 765 1469 738 1433 q 833 1525 792 1504 q 911 1546 874 1546 q 1007 1507 969 1546 q 1044 1411 1044 1468 q 1017 1336 1044 1371 q 949 1281 990 1301 q 871 1260 908 1260 m 1096 901 l 1096 431 q 1023 181 1096 285 q 841 24 950 76 q 629 -28 732 -28 q 385 27 493 -28 q 216 178 276 82 q 156 396 156 275 l 156 953 l -1 992 l 50 1092 l 563 1092 l 563 1004 l 431 901 l 431 440 q 503 223 431 300 q 724 146 575 146 q 835 179 779 146 q 928 276 892 213 q 964 426 964 340 l 964 931 l 796 992 l 847 1092 l 1228 1092 l 1228 1004 l 1096 901 z "},"Ù":{"ha":1247,"x_min":-1,"x_max":1228,"o":"m 1096 901 l 1096 431 q 1023 181 1096 285 q 841 24 950 76 q 629 -28 732 -28 q 385 27 493 -28 q 216 178 276 82 q 156 396 156 275 l 156 953 l -1 992 l 50 1092 l 563 1092 l 563 1004 l 431 901 l 431 440 q 503 223 431 300 q 724 146 575 146 q 835 179 779 146 q 928 276 892 213 q 964 426 964 340 l 964 931 l 796 992 l 847 1092 l 1228 1092 l 1228 1004 l 1096 901 m 685 1267 l 308 1475 l 347 1553 l 624 1579 l 772 1307 l 685 1267 z "},"Ű":{"ha":1247,"x_min":-1,"x_max":1228,"o":"m 1096 901 l 1096 431 q 1023 181 1096 285 q 841 24 950 76 q 629 -28 732 -28 q 385 27 493 -28 q 216 178 276 82 q 156 396 156 275 l 156 953 l -1 992 l 50 1092 l 563 1092 l 563 1004 l 431 901 l 431 440 q 503 223 431 300 q 724 146 575 146 q 835 179 779 146 q 928 276 892 213 q 964 426 964 340 l 964 931 l 796 992 l 847 1092 l 1228 1092 l 1228 1004 l 1096 901 m 642 1429 l 392 1272 l 335 1358 l 443 1574 l 656 1547 l 642 1429 m 1106 1429 l 856 1272 l 799 1358 l 907 1574 l 1119 1547 l 1106 1429 z "},"Ū":{"ha":1247,"x_min":-1,"x_max":1228,"o":"m 1096 901 l 1096 431 q 1023 181 1096 285 q 841 24 950 76 q 629 -28 732 -28 q 385 27 493 -28 q 216 178 276 82 q 156 396 156 275 l 156 953 l -1 992 l 50 1092 l 563 1092 l 563 1004 l 431 901 l 431 440 q 503 223 431 300 q 724 146 575 146 q 835 179 779 146 q 928 276 892 213 q 964 426 964 340 l 964 931 l 796 992 l 847 1092 l 1228 1092 l 1228 1004 l 1096 901 m 279 1465 l 1006 1465 l 1006 1347 l 279 1347 l 279 1465 z "},"Ų":{"ha":1247,"x_min":-1,"x_max":1229,"o":"m 1097 904 l 1097 433 q 988 136 1097 260 q 835 -46 869 10 q 800 -128 800 -101 q 824 -169 800 -157 q 904 -182 847 -181 l 904 -281 l 797 -365 q 640 -308 696 -349 q 585 -210 585 -268 q 596 -144 585 -167 l 726 -15 q 629 -28 676 -28 q 385 27 493 -28 q 216 178 276 82 q 156 396 156 275 l 156 953 l -1 992 l 50 1092 l 563 1092 l 563 1004 l 431 901 l 431 440 q 503 223 431 300 q 724 146 575 146 q 835 179 779 146 q 928 276 892 213 q 964 426 964 340 l 964 931 l 796 992 l 847 1092 l 1228 1092 l 1229 1007 l 1097 904 z "},"Ů":{"ha":1247,"x_min":-1,"x_max":1228,"o":"m 1096 901 l 1096 431 q 1023 181 1096 285 q 841 24 950 76 q 629 -28 732 -28 q 385 27 493 -28 q 216 178 276 82 q 156 396 156 275 l 156 953 l -1 992 l 50 1092 l 563 1092 l 563 1004 l 431 901 l 431 440 q 503 223 431 300 q 724 146 575 146 q 835 179 779 146 q 928 276 892 213 q 964 426 964 340 l 964 931 l 796 992 l 847 1092 l 1228 1092 l 1228 1004 l 1096 901 m 690 1578 q 833 1535 776 1578 q 889 1431 889 1493 q 843 1334 889 1379 q 727 1262 797 1289 q 592 1235 657 1235 q 451 1277 508 1235 q 394 1382 394 1319 q 440 1478 394 1433 q 556 1551 486 1524 q 690 1578 625 1578 m 610 1483 q 572 1472 586 1483 q 558 1438 558 1460 q 588 1360 558 1390 q 672 1329 618 1329 q 710 1342 696 1329 q 724 1376 724 1354 q 694 1453 724 1422 q 610 1483 664 1483 z "},"V":{"ha":1292,"x_min":-11,"x_max":1292,"o":"m 1136 888 l 790 44 l 522 -26 l 132 924 l -11 992 l 39 1092 l 586 1092 l 586 1004 l 426 915 l 714 211 l 989 888 l 785 992 l 836 1092 l 1292 1092 l 1292 1004 l 1136 888 z "},"W":{"ha":1815,"x_min":-10,"x_max":1817,"o":"m 1669 894 l 1368 44 l 1100 -26 l 911 503 l 771 44 l 501 -26 l 131 925 l -10 992 l 40 1092 l 511 1092 l 511 1004 l 414 933 l 686 222 l 836 708 l 758 926 l 632 992 l 682 1092 l 1192 1092 l 1192 1004 l 1049 921 l 1290 221 l 1521 883 l 1310 992 l 1360 1092 l 1815 1092 l 1817 1004 l 1669 894 z "},"Ẃ":{"ha":1815,"x_min":-10,"x_max":1817,"o":"m 1669 894 l 1368 44 l 1100 -26 l 911 503 l 771 44 l 501 -26 l 131 925 l -10 992 l 40 1092 l 511 1092 l 511 1004 l 414 933 l 686 222 l 836 708 l 758 926 l 632 992 l 682 1092 l 1192 1092 l 1192 1004 l 1049 921 l 1290 221 l 1521 883 l 1310 992 l 1360 1092 l 1815 1092 l 1817 1004 l 1669 894 m 1282 1475 l 906 1267 l 819 1307 l 968 1579 l 1244 1553 l 1282 1475 z "},"Ŵ":{"ha":1815,"x_min":-10,"x_max":1817,"o":"m 1669 894 l 1368 44 l 1100 -26 l 911 503 l 771 44 l 501 -26 l 131 925 l -10 992 l 40 1092 l 511 1092 l 511 1004 l 414 933 l 686 222 l 836 708 l 758 926 l 632 992 l 682 1092 l 1192 1092 l 1192 1004 l 1049 921 l 1290 221 l 1521 883 l 1310 992 l 1360 1092 l 1815 1092 l 1817 1004 l 1669 894 m 1278 1285 l 1003 1258 l 904 1421 l 651 1258 l 594 1351 l 938 1572 l 1315 1364 l 1278 1285 z "},"Ẅ":{"ha":1815,"x_min":-10,"x_max":1817,"o":"m 678 1260 q 583 1298 621 1260 q 544 1393 544 1336 q 572 1469 544 1433 q 640 1525 599 1504 q 718 1546 681 1546 q 814 1507 776 1546 q 851 1411 851 1468 q 824 1336 851 1371 q 756 1281 797 1301 q 678 1260 715 1260 m 1176 1260 q 1081 1298 1119 1260 q 1043 1393 1043 1336 q 1070 1469 1043 1433 q 1138 1525 1097 1504 q 1217 1546 1179 1546 q 1313 1507 1275 1546 q 1350 1411 1350 1468 q 1323 1336 1350 1371 q 1255 1281 1296 1301 q 1176 1260 1214 1260 m 1669 894 l 1368 44 l 1100 -26 l 911 503 l 771 44 l 501 -26 l 131 925 l -10 992 l 40 1092 l 511 1092 l 511 1004 l 414 933 l 686 222 l 836 708 l 758 926 l 632 992 l 682 1092 l 1192 1092 l 1192 1004 l 1049 921 l 1290 221 l 1521 883 l 1310 992 l 1360 1092 l 1815 1092 l 1817 1004 l 1669 894 z "},"Ẁ":{"ha":1815,"x_min":-10,"x_max":1817,"o":"m 1669 894 l 1368 44 l 1100 -26 l 911 503 l 771 44 l 501 -26 l 131 925 l -10 992 l 40 1092 l 511 1092 l 511 1004 l 414 933 l 686 222 l 836 708 l 758 926 l 632 992 l 682 1092 l 1192 1092 l 1192 1004 l 1049 921 l 1290 221 l 1521 883 l 1310 992 l 1360 1092 l 1815 1092 l 1817 1004 l 1669 894 m 990 1267 l 614 1475 l 653 1553 l 929 1579 l 1078 1307 l 990 1267 z "},"X":{"ha":1235,"x_min":7,"x_max":1229,"o":"m 1178 0 l 678 0 l 678 89 l 786 157 l 571 408 l 353 188 l 513 101 l 463 0 l 7 0 l 7 89 l 179 207 l 481 511 l 117 929 l 10 992 l 60 1092 l 561 1092 l 561 1004 l 446 942 l 664 688 l 860 903 l 697 992 l 747 1092 l 1204 1092 l 1204 1004 l 1044 894 l 756 583 l 1133 149 l 1229 101 l 1178 0 z "},"Y":{"ha":1194,"x_min":-11,"x_max":1194,"o":"m 731 143 l 888 103 l 838 1 l 336 1 l 336 90 l 467 193 l 467 358 l 89 946 l -11 993 l 17 1093 l 507 1093 l 507 1006 l 408 929 l 649 558 l 886 892 l 688 992 l 739 1092 l 1194 1092 l 1194 1004 l 1046 890 l 731 440 l 731 143 z "},"Ý":{"ha":1194,"x_min":-11,"x_max":1194,"o":"m 731 143 l 888 103 l 838 1 l 336 1 l 336 90 l 467 193 l 467 358 l 89 946 l -11 993 l 17 1093 l 507 1093 l 507 1006 l 408 929 l 649 558 l 886 892 l 688 992 l 739 1092 l 1194 1092 l 1194 1004 l 1046 890 l 731 440 l 731 143 m 939 1475 l 563 1267 l 476 1307 l 625 1579 l 901 1553 l 939 1475 z "},"Ŷ":{"ha":1194,"x_min":-11,"x_max":1194,"o":"m 731 143 l 888 103 l 838 1 l 336 1 l 336 90 l 467 193 l 467 358 l 89 946 l -11 993 l 17 1093 l 507 1093 l 507 1006 l 408 929 l 649 558 l 886 892 l 688 992 l 739 1092 l 1194 1092 l 1194 1004 l 1046 890 l 731 440 l 731 143 m 935 1285 l 660 1258 l 561 1421 l 308 1258 l 251 1351 l 594 1572 l 972 1364 l 935 1285 z "},"Ÿ":{"ha":1194,"x_min":-11,"x_max":1194,"o":"m 335 1260 q 240 1298 278 1260 q 201 1393 201 1336 q 228 1469 201 1433 q 297 1525 256 1504 q 375 1546 338 1546 q 471 1507 433 1546 q 508 1411 508 1468 q 481 1336 508 1371 q 413 1281 454 1301 q 335 1260 372 1260 m 833 1260 q 738 1298 776 1260 q 700 1393 700 1336 q 727 1469 700 1433 q 795 1525 754 1504 q 874 1546 836 1546 q 969 1507 932 1546 q 1007 1411 1007 1468 q 980 1336 1007 1371 q 912 1281 953 1301 q 833 1260 871 1260 m 731 143 l 888 103 l 838 1 l 336 1 l 336 90 l 467 193 l 467 358 l 89 946 l -11 993 l 17 1093 l 507 1093 l 507 1006 l 408 929 l 649 558 l 886 892 l 688 992 l 739 1092 l 1194 1092 l 1194 1004 l 1046 890 l 731 440 l 731 143 z "},"Ỳ":{"ha":1194,"x_min":-11,"x_max":1194,"o":"m 731 143 l 888 103 l 838 1 l 336 1 l 336 90 l 467 193 l 467 358 l 89 946 l -11 993 l 17 1093 l 507 1093 l 507 1006 l 408 929 l 649 558 l 886 892 l 688 992 l 739 1092 l 1194 1092 l 1194 1004 l 1046 890 l 731 440 l 731 143 m 647 1267 l 271 1475 l 310 1553 l 586 1579 l 735 1307 l 647 1267 z "},"Z":{"ha":1097,"x_min":51,"x_max":1040,"o":"m 751 119 l 939 418 l 1026 382 l 1026 -25 l 918 0 l 51 0 l 51 119 l 714 972 l 350 972 l 181 701 l 94 739 l 94 1117 l 201 1092 l 1040 1092 l 1040 972 l 376 119 l 751 119 z "},"Ź":{"ha":1097,"x_min":51,"x_max":1040,"o":"m 751 119 l 939 418 l 1026 382 l 1026 -25 l 918 0 l 51 0 l 51 119 l 714 972 l 350 972 l 181 701 l 94 739 l 94 1117 l 201 1092 l 1040 1092 l 1040 972 l 376 119 l 751 119 m 883 1475 l 507 1267 l 421 1307 l 569 1579 l 846 1553 l 883 1475 z "},"Ž":{"ha":1097,"x_min":51,"x_max":1040,"o":"m 751 119 l 939 418 l 1026 382 l 1026 -25 l 918 0 l 51 0 l 51 119 l 714 972 l 350 972 l 181 701 l 94 739 l 94 1117 l 201 1092 l 1040 1092 l 1040 972 l 376 119 l 751 119 m 558 1265 l 181 1475 l 219 1553 l 493 1579 l 592 1417 l 844 1579 l 901 1488 l 558 1265 z "},"Ż":{"ha":1097,"x_min":51,"x_max":1040,"o":"m 751 119 l 939 418 l 1026 382 l 1026 -25 l 918 0 l 51 0 l 51 119 l 714 972 l 350 972 l 181 701 l 94 739 l 94 1117 l 201 1092 l 1040 1092 l 1040 972 l 376 119 l 751 119 m 568 1538 q 674 1497 633 1538 q 715 1396 715 1456 q 685 1316 715 1353 q 610 1257 656 1279 q 524 1235 565 1235 q 417 1276 460 1235 q 375 1376 375 1317 q 405 1456 375 1419 q 481 1515 435 1493 q 568 1538 526 1538 z "},"a":{"ha":942,"x_min":61,"x_max":929,"o":"m 879 0 l 547 0 l 547 121 l 390 -3 q 321 -14 363 -14 q 122 53 183 -14 q 61 215 61 121 q 94 322 61 269 q 189 419 128 375 l 547 419 l 547 425 q 508 533 547 497 q 403 568 468 568 q 135 501 307 568 l 93 588 l 285 742 q 458 765 358 765 q 713 692 622 765 q 804 478 804 618 l 804 150 l 929 101 l 879 0 m 400 194 q 547 247 465 194 l 547 318 l 329 318 q 314 264 314 293 q 337 213 314 232 q 400 194 360 194 z "},"á":{"ha":942,"x_min":61,"x_max":929,"o":"m 879 0 l 547 0 l 547 121 l 390 -3 q 321 -14 363 -14 q 122 53 183 -14 q 61 215 61 121 q 94 322 61 269 q 189 419 128 375 l 547 419 l 547 425 q 508 533 547 497 q 403 568 468 568 q 135 501 307 568 l 93 588 l 285 742 q 458 765 358 765 q 713 692 622 765 q 804 478 804 618 l 804 150 l 929 101 l 879 0 m 400 194 q 547 247 465 194 l 547 318 l 329 318 q 314 264 314 293 q 337 213 314 232 q 400 194 360 194 m 779 1135 l 403 926 l 317 967 l 465 1239 l 742 1213 l 779 1135 z "},"ă":{"ha":942,"x_min":61,"x_max":929,"o":"m 879 0 l 547 0 l 547 121 l 390 -3 q 321 -14 363 -14 q 122 53 183 -14 q 61 215 61 121 q 94 322 61 269 q 189 419 128 375 l 547 419 l 547 425 q 508 533 547 497 q 403 568 468 568 q 135 501 307 568 l 93 588 l 285 742 q 458 765 358 765 q 713 692 622 765 q 804 478 804 618 l 804 150 l 929 101 l 879 0 m 400 194 q 547 247 465 194 l 547 318 l 329 318 q 314 264 314 293 q 337 213 314 232 q 400 194 360 194 m 801 1233 q 728 1069 786 1144 q 592 949 671 993 q 436 906 514 906 q 244 947 336 906 q 108 1061 153 989 l 328 1233 q 387 1122 347 1161 q 486 1083 426 1083 q 549 1101 524 1083 q 582 1153 574 1119 l 801 1233 z "},"â":{"ha":942,"x_min":61,"x_max":929,"o":"m 879 0 l 547 0 l 547 121 l 390 -3 q 321 -14 363 -14 q 122 53 183 -14 q 61 215 61 121 q 94 322 61 269 q 189 419 128 375 l 547 419 l 547 425 q 508 533 547 497 q 403 568 468 568 q 135 501 307 568 l 93 588 l 285 742 q 458 765 358 765 q 713 692 622 765 q 804 478 804 618 l 804 150 l 929 101 l 879 0 m 400 194 q 547 247 465 194 l 547 318 l 329 318 q 314 264 314 293 q 337 213 314 232 q 400 194 360 194 m 775 944 l 500 918 l 401 1081 l 149 918 l 92 1011 l 435 1232 l 813 1024 l 775 944 z "},"ä":{"ha":942,"x_min":61,"x_max":929,"o":"m 217 925 q 125 962 161 925 q 89 1053 89 999 q 115 1126 89 1092 q 180 1180 140 1160 q 256 1200 219 1200 q 347 1163 311 1200 q 382 1071 382 1126 q 356 999 382 1032 q 292 945 331 965 q 217 925 253 925 m 638 925 q 546 962 582 925 q 510 1053 510 999 q 535 1126 510 1092 q 601 1180 561 1160 q 676 1200 640 1200 q 767 1163 732 1200 q 803 1071 803 1126 q 777 999 803 1032 q 713 945 751 965 q 638 925 674 925 m 879 0 l 547 0 l 547 121 l 390 -3 q 321 -14 363 -14 q 122 53 183 -14 q 61 215 61 121 q 94 322 61 269 q 189 419 128 375 l 547 419 l 547 425 q 508 533 547 497 q 403 568 468 568 q 135 501 307 568 l 93 588 l 285 742 q 458 765 358 765 q 713 692 622 765 q 804 478 804 618 l 804 150 l 929 101 l 879 0 m 400 194 q 547 247 465 194 l 547 318 l 329 318 q 314 264 314 293 q 337 213 314 232 q 400 194 360 194 z "},"à":{"ha":942,"x_min":61,"x_max":929,"o":"m 879 0 l 547 0 l 547 121 l 390 -3 q 321 -14 363 -14 q 122 53 183 -14 q 61 215 61 121 q 94 322 61 269 q 189 419 128 375 l 547 419 l 547 425 q 508 533 547 497 q 403 568 468 568 q 135 501 307 568 l 93 588 l 285 742 q 458 765 358 765 q 713 692 622 765 q 804 478 804 618 l 804 150 l 929 101 l 879 0 m 400 194 q 547 247 465 194 l 547 318 l 329 318 q 314 264 314 293 q 337 213 314 232 q 400 194 360 194 m 488 926 l 111 1135 l 150 1213 l 426 1239 l 575 967 l 488 926 z "},"ā":{"ha":942,"x_min":61,"x_max":929,"o":"m 879 0 l 547 0 l 547 121 l 390 -3 q 321 -14 363 -14 q 122 53 183 -14 q 61 215 61 121 q 94 322 61 269 q 189 419 128 375 l 547 419 l 547 425 q 508 533 547 497 q 403 568 468 568 q 135 501 307 568 l 93 588 l 285 742 q 458 765 358 765 q 713 692 622 765 q 804 478 804 618 l 804 150 l 929 101 l 879 0 m 400 194 q 547 247 465 194 l 547 318 l 329 318 q 314 264 314 293 q 337 213 314 232 q 400 194 360 194 m 110 1125 l 781 1125 l 781 1022 l 110 1022 l 110 1125 z "},"ą":{"ha":942,"x_min":61,"x_max":929,"o":"m 819 -136 q 835 -171 819 -160 q 888 -183 851 -182 l 888 -282 l 781 -367 q 623 -308 678 -350 q 568 -204 568 -267 q 579 -146 568 -165 l 760 0 l 547 0 l 547 121 l 390 -3 q 321 -14 363 -14 q 122 53 183 -14 q 61 215 61 121 q 94 322 61 269 q 189 419 128 375 l 547 419 l 547 425 q 508 533 547 497 q 403 568 468 568 q 135 501 307 568 l 93 588 l 285 742 q 458 765 358 765 q 713 692 622 765 q 804 478 804 618 l 804 150 l 929 101 l 879 0 q 819 -136 819 -92 m 400 194 q 547 247 465 194 l 547 318 l 329 318 q 314 264 314 293 q 337 213 314 232 q 400 194 360 194 z "},"å":{"ha":942,"x_min":61,"x_max":929,"o":"m 879 0 l 547 0 l 547 121 l 390 -3 q 321 -14 363 -14 q 122 53 183 -14 q 61 215 61 121 q 94 322 61 269 q 189 419 128 375 l 547 419 l 547 425 q 508 533 547 497 q 403 568 468 568 q 135 501 307 568 l 93 588 l 285 742 q 458 765 358 765 q 713 692 622 765 q 804 478 804 618 l 804 150 l 929 101 l 879 0 m 400 194 q 547 247 465 194 l 547 318 l 329 318 q 314 264 314 293 q 337 213 314 232 q 400 194 360 194 m 493 1238 q 635 1195 579 1238 q 692 1090 692 1153 q 646 994 692 1039 q 530 922 600 949 q 394 894 460 894 q 254 937 311 894 q 197 1042 197 979 q 243 1138 197 1093 q 358 1210 289 1183 q 493 1238 428 1238 m 413 1143 q 375 1131 389 1143 q 361 1097 361 1119 q 391 1019 361 1050 q 475 989 421 989 q 513 1001 499 989 q 526 1036 526 1014 q 497 1113 526 1082 q 413 1143 467 1143 z "},"ã":{"ha":942,"x_min":61,"x_max":929,"o":"m 879 0 l 547 0 l 547 121 l 390 -3 q 321 -14 363 -14 q 122 53 183 -14 q 61 215 61 121 q 94 322 61 269 q 189 419 128 375 l 547 419 l 547 425 q 508 533 547 497 q 403 568 468 568 q 135 501 307 568 l 93 588 l 285 742 q 458 765 358 765 q 713 692 622 765 q 804 478 804 618 l 804 150 l 929 101 l 879 0 m 400 194 q 547 247 465 194 l 547 318 l 329 318 q 314 264 314 293 q 337 213 314 232 q 400 194 360 194 m 419 1261 q 525 1167 485 1196 q 599 1139 565 1139 q 656 1158 625 1139 l 733 1208 l 790 1115 l 464 907 q 358 1001 399 974 q 285 1029 318 1029 q 226 1010 258 1029 l 151 961 l 93 1053 l 419 1261 z "},"æ":{"ha":1329,"x_min":63,"x_max":1260,"o":"m 961 764 q 1182 651 1104 764 q 1257 332 1260 538 l 790 332 q 842 215 804 258 q 940 171 881 171 q 1213 251 1032 171 l 1254 165 l 1058 8 q 860 -15 975 -15 q 713 18 781 -15 q 600 111 646 51 l 456 -4 q 322 -15 404 -15 q 124 52 185 -15 q 63 214 63 119 q 96 321 63 268 q 190 418 129 374 l 524 418 l 524 424 q 488 531 524 496 q 392 567 451 567 q 136 500 301 567 l 94 586 l 286 740 q 449 764 354 764 q 704 672 621 764 q 831 741 764 717 q 958 765 897 765 l 961 764 m 886 590 q 812 552 836 590 q 785 435 788 514 l 1001 435 q 968 552 993 514 q 886 590 943 590 m 417 169 q 550 200 479 169 q 525 317 529 254 l 332 317 q 317 263 317 292 q 343 196 317 221 q 417 171 369 171 l 417 169 z "},"b":{"ha":1025,"x_min":13,"x_max":950,"o":"m 640 765 q 800 717 729 765 q 910 585 871 669 q 950 400 950 501 q 878 194 950 290 q 697 42 806 99 q 486 -14 588 -14 q 384 7 432 -14 q 299 65 336 28 l 233 0 l 136 0 l 136 925 l 13 1007 l 13 1096 l 294 1213 l 393 1213 l 393 638 l 539 754 q 640 765 583 765 m 567 160 q 679 335 679 160 q 647 503 679 438 q 550 569 614 569 q 393 528 465 569 l 393 303 q 438 201 393 242 q 567 160 483 160 z "},"c":{"ha":897,"x_min":75,"x_max":832,"o":"m 510 765 q 667 749 578 765 q 797 714 756 733 l 797 443 l 699 443 q 582 552 647 513 q 444 592 517 592 q 372 547 399 592 q 346 418 346 501 q 391 242 346 313 q 519 172 436 172 q 790 251 613 172 l 832 165 l 638 10 q 439 -14 554 -14 q 251 34 335 -14 q 122 165 168 82 q 75 351 75 249 q 142 558 75 463 q 312 709 210 653 q 510 765 414 765 z "},"ć":{"ha":897,"x_min":75,"x_max":832,"o":"m 510 765 q 667 749 578 765 q 797 714 756 733 l 797 443 l 699 443 q 582 552 647 513 q 444 592 517 592 q 372 547 399 592 q 346 418 346 501 q 391 242 346 313 q 519 172 436 172 q 790 251 613 172 l 832 165 l 638 10 q 439 -14 554 -14 q 251 34 335 -14 q 122 165 168 82 q 75 351 75 249 q 142 558 75 463 q 312 709 210 653 q 510 765 414 765 m 797 1135 l 421 926 l 335 967 l 483 1239 l 760 1213 l 797 1135 z "},"č":{"ha":897,"x_min":75,"x_max":832,"o":"m 510 765 q 667 749 578 765 q 797 714 756 733 l 797 443 l 699 443 q 582 552 647 513 q 444 592 517 592 q 372 547 399 592 q 346 418 346 501 q 391 242 346 313 q 519 172 436 172 q 790 251 613 172 l 832 165 l 638 10 q 439 -14 554 -14 q 251 34 335 -14 q 122 165 168 82 q 75 351 75 249 q 142 558 75 463 q 312 709 210 653 q 510 765 414 765 m 472 925 l 94 1135 l 133 1213 l 407 1239 l 506 1076 l 758 1239 l 815 1147 l 472 925 z "},"ç":{"ha":897,"x_min":75,"x_max":832,"o":"m 540 -79 q 640 -153 614 -121 q 667 -228 667 -186 q 590 -326 667 -292 q 356 -367 514 -360 l 356 -279 q 419 -245 400 -264 q 439 -199 439 -226 q 422 -149 439 -171 q 361 -97 406 -128 q 460 -14 421 -47 l 439 -14 q 251 34 335 -14 q 122 165 168 82 q 75 351 75 249 q 142 558 75 463 q 312 709 210 653 q 510 765 414 765 q 667 749 578 765 q 797 714 756 733 l 797 443 l 699 443 q 582 552 647 513 q 444 592 517 592 q 372 547 399 592 q 346 418 346 501 q 391 242 346 313 q 519 172 436 172 q 790 251 613 172 l 832 165 l 658 26 q 542 -79 619 -12 l 540 -79 z "},"ċ":{"ha":897,"x_min":75,"x_max":832,"o":"m 510 765 q 667 749 578 765 q 797 714 756 733 l 797 443 l 699 443 q 582 552 647 513 q 444 592 517 592 q 372 547 399 592 q 346 418 346 501 q 391 242 346 313 q 519 172 436 172 q 790 251 613 172 l 832 165 l 638 10 q 439 -14 554 -14 q 251 34 335 -14 q 122 165 168 82 q 75 351 75 249 q 142 558 75 463 q 312 709 210 653 q 510 765 414 765 m 482 1197 q 588 1156 547 1197 q 629 1056 629 1115 q 599 976 629 1013 q 524 917 569 939 q 438 894 479 894 q 331 935 374 894 q 289 1036 289 976 q 319 1116 289 1079 q 394 1175 349 1153 q 482 1197 440 1197 z "},"d":{"ha":1025,"x_min":75,"x_max":1013,"o":"m 963 -1 l 631 -1 l 631 103 l 497 -4 q 394 -15 453 -15 q 230 33 303 -15 q 116 165 157 81 q 75 350 75 249 q 147 556 75 461 q 328 708 219 651 q 538 764 436 764 q 631 740 588 764 l 631 925 l 507 1007 l 507 1096 l 789 1213 l 888 1213 l 888 142 l 1013 100 l 963 -1 m 483 193 q 631 226 564 193 l 631 476 q 578 558 622 526 q 457 590 533 590 q 346 415 346 590 q 381 255 346 318 q 485 192 417 192 l 483 193 z "},"ð":{"ha":932,"x_min":42,"x_max":892,"o":"m 601 1038 q 813 770 735 918 q 892 476 892 622 q 826 235 892 349 q 650 54 760 122 q 417 -14 540 -14 q 228 33 313 -14 q 94 165 143 81 q 46 351 46 249 q 113 545 46 450 q 288 701 181 640 q 507 765 394 763 q 372 913 453 847 l 96 763 l 69 814 l 321 951 q 42 1074 199 1036 l 42 1163 l 294 1226 q 553 1078 431 1174 l 825 1226 l 854 1175 l 601 1038 m 497 160 q 588 216 560 160 q 617 397 617 272 q 589 592 617 497 l 435 592 q 351 548 379 592 q 324 418 324 504 q 371 230 324 300 q 497 160 418 160 z "},"ď":{"ha":1025,"x_min":75,"x_max":1267,"o":"m 963 -1 l 631 -1 l 631 103 l 497 -4 q 394 -15 453 -15 q 230 33 303 -15 q 116 165 157 81 q 75 350 75 249 q 147 556 75 461 q 328 708 219 651 q 538 764 436 764 q 631 740 588 764 l 631 925 l 507 1007 l 507 1096 l 789 1213 l 888 1213 l 888 142 l 1013 100 l 963 -1 m 483 193 q 631 226 564 193 l 631 476 q 578 558 622 526 q 457 590 533 590 q 346 415 346 590 q 381 255 346 318 q 485 192 417 192 l 483 193 m 1267 965 l 1113 794 l 1014 869 q 1047 986 1039 928 l 969 1040 l 969 1129 l 1169 1213 l 1267 1214 l 1267 965 z "},"đ":{"ha":1025,"x_min":75,"x_max":1025,"o":"m 888 140 l 1013 100 l 963 -1 l 631 -1 l 631 103 l 497 -4 q 394 -15 453 -15 q 230 33 303 -15 q 116 165 157 81 q 75 350 75 249 q 147 556 75 461 q 328 708 219 651 q 538 764 436 764 q 631 740 588 764 l 631 904 l 354 904 l 354 1006 l 631 1006 l 631 1163 l 789 1229 l 888 1229 l 888 1006 l 1025 1006 l 1025 904 l 888 903 l 888 140 m 483 193 q 631 226 564 193 l 631 476 q 578 558 622 526 q 457 590 533 590 q 346 415 346 590 q 381 255 346 318 q 485 192 417 192 l 483 193 z "},"e":{"ha":925,"x_min":75,"x_max":853,"o":"m 538 765 q 770 652 688 765 q 850 333 853 539 l 354 333 q 411 216 369 260 q 519 172 453 172 q 807 257 618 172 l 849 171 l 649 10 q 439 -14 561 -14 q 251 34 335 -14 q 122 165 168 82 q 75 351 75 249 q 147 558 75 463 q 328 709 219 653 q 538 765 436 765 m 463 592 q 377 553 406 592 q 346 436 349 515 l 593 436 q 556 553 585 515 q 463 592 526 592 z "},"é":{"ha":925,"x_min":75,"x_max":853,"o":"m 538 765 q 770 652 688 765 q 850 333 853 539 l 354 333 q 411 216 369 260 q 519 172 453 172 q 807 257 618 172 l 849 171 l 649 10 q 439 -14 561 -14 q 251 34 335 -14 q 122 165 168 82 q 75 351 75 249 q 147 558 75 463 q 328 709 219 653 q 538 765 436 765 m 463 592 q 377 553 406 592 q 346 436 349 515 l 593 436 q 556 553 585 515 q 463 592 526 592 m 804 1135 l 428 926 l 342 967 l 490 1239 l 767 1213 l 804 1135 z "},"ě":{"ha":925,"x_min":75,"x_max":853,"o":"m 538 765 q 770 652 688 765 q 850 333 853 539 l 354 333 q 411 216 369 260 q 519 172 453 172 q 807 257 618 172 l 849 171 l 649 10 q 439 -14 561 -14 q 251 34 335 -14 q 122 165 168 82 q 75 351 75 249 q 147 558 75 463 q 328 709 219 653 q 538 765 436 765 m 463 592 q 377 553 406 592 q 346 436 349 515 l 593 436 q 556 553 585 515 q 463 592 526 592 m 479 925 l 101 1135 l 140 1213 l 414 1239 l 513 1076 l 765 1239 l 822 1147 l 479 925 z "},"ê":{"ha":925,"x_min":75,"x_max":853,"o":"m 538 765 q 770 652 688 765 q 850 333 853 539 l 354 333 q 411 216 369 260 q 519 172 453 172 q 807 257 618 172 l 849 171 l 649 10 q 439 -14 561 -14 q 251 34 335 -14 q 122 165 168 82 q 75 351 75 249 q 147 558 75 463 q 328 709 219 653 q 538 765 436 765 m 463 592 q 377 553 406 592 q 346 436 349 515 l 593 436 q 556 553 585 515 q 463 592 526 592 m 800 944 l 525 918 l 426 1081 l 174 918 l 117 1011 l 460 1232 l 838 1024 l 800 944 z "},"ë":{"ha":925,"x_min":75,"x_max":853,"o":"m 242 925 q 150 962 186 925 q 114 1053 114 999 q 140 1126 114 1092 q 205 1180 165 1160 q 281 1200 244 1200 q 372 1163 336 1200 q 407 1071 407 1126 q 381 999 407 1032 q 317 945 356 965 q 242 925 278 925 m 663 925 q 571 962 607 925 q 535 1053 535 999 q 560 1126 535 1092 q 626 1180 586 1160 q 701 1200 665 1200 q 792 1163 757 1200 q 828 1071 828 1126 q 802 999 828 1032 q 738 945 776 965 q 663 925 699 925 m 538 765 q 770 652 688 765 q 850 333 853 539 l 354 333 q 411 216 369 260 q 519 172 453 172 q 807 257 618 172 l 849 171 l 649 10 q 439 -14 561 -14 q 251 34 335 -14 q 122 165 168 82 q 75 351 75 249 q 147 558 75 463 q 328 709 219 653 q 538 765 436 765 m 463 592 q 377 553 406 592 q 346 436 349 515 l 593 436 q 556 553 585 515 q 463 592 526 592 z "},"ė":{"ha":925,"x_min":75,"x_max":853,"o":"m 538 765 q 770 652 688 765 q 850 333 853 539 l 354 333 q 411 216 369 260 q 519 172 453 172 q 807 257 618 172 l 849 171 l 649 10 q 439 -14 561 -14 q 251 34 335 -14 q 122 165 168 82 q 75 351 75 249 q 147 558 75 463 q 328 709 219 653 q 538 765 436 765 m 463 592 q 377 553 406 592 q 346 436 349 515 l 593 436 q 556 553 585 515 q 463 592 526 592 m 489 1197 q 595 1156 554 1197 q 636 1056 636 1115 q 606 976 636 1013 q 531 917 576 939 q 444 894 486 894 q 338 935 381 894 q 296 1036 296 976 q 326 1116 296 1079 q 401 1175 356 1153 q 489 1197 447 1197 z "},"è":{"ha":925,"x_min":75,"x_max":853,"o":"m 538 765 q 770 652 688 765 q 850 333 853 539 l 354 333 q 411 216 369 260 q 519 172 453 172 q 807 257 618 172 l 849 171 l 649 10 q 439 -14 561 -14 q 251 34 335 -14 q 122 165 168 82 q 75 351 75 249 q 147 558 75 463 q 328 709 219 653 q 538 765 436 765 m 463 592 q 377 553 406 592 q 346 436 349 515 l 593 436 q 556 553 585 515 q 463 592 526 592 m 513 926 l 136 1135 l 175 1213 l 451 1239 l 600 967 l 513 926 z "},"ē":{"ha":925,"x_min":75,"x_max":853,"o":"m 538 765 q 770 652 688 765 q 850 333 853 539 l 354 333 q 411 216 369 260 q 519 172 453 172 q 807 257 618 172 l 849 171 l 649 10 q 439 -14 561 -14 q 251 34 335 -14 q 122 165 168 82 q 75 351 75 249 q 147 558 75 463 q 328 709 219 653 q 538 765 436 765 m 463 592 q 377 553 406 592 q 346 436 349 515 l 593 436 q 556 553 585 515 q 463 592 526 592 m 135 1125 l 806 1125 l 806 1022 l 135 1022 l 135 1125 z "},"ę":{"ha":925,"x_min":75,"x_max":854,"o":"m 539 765 q 772 652 689 765 q 851 333 854 539 l 356 333 q 413 216 371 260 q 521 172 454 172 q 808 257 619 172 l 850 171 l 657 15 q 560 -132 560 -69 q 582 -171 560 -160 q 660 -183 604 -182 l 660 -282 l 554 -367 q 401 -310 456 -350 q 346 -211 346 -269 q 357 -146 346 -168 l 493 -12 q 439 -14 474 -14 q 251 34 335 -14 q 122 165 168 82 q 75 351 75 249 q 147 558 75 463 q 328 709 219 653 q 538 765 436 765 l 539 765 m 464 592 q 378 553 407 592 q 347 436 350 515 l 594 436 q 557 553 586 515 q 464 592 528 592 z "},"f":{"ha":699,"x_min":35,"x_max":813,"o":"m 597 1226 q 717 1212 650 1226 q 813 1181 783 1197 l 813 921 l 715 921 q 632 1022 681 985 q 533 1058 583 1058 q 461 1019 488 1058 q 435 907 435 981 l 435 710 l 663 710 l 663 607 l 435 607 l 435 156 l 651 101 l 601 0 l 54 0 l 54 89 l 178 194 l 178 607 l 35 607 l 35 710 l 178 710 l 178 813 q 244 1018 178 922 q 408 1170 310 1114 q 597 1226 507 1226 z "},"g":{"ha":889,"x_min":43,"x_max":893,"o":"m 756 604 q 775 518 775 563 q 703 357 775 435 q 526 239 632 279 q 489 156 489 194 q 519 117 489 136 q 611 71 549 99 q 756 -8 706 28 q 807 -92 807 -44 q 751 -203 807 -136 q 611 -319 694 -269 q 449 -368 528 -368 q 242 -342 361 -368 q 43 -289 122 -315 l 43 -31 l 140 -31 q 272 -167 204 -121 q 424 -214 339 -214 q 496 -198 467 -214 q 525 -162 525 -182 q 490 -108 525 -132 q 382 -51 454 -83 q 262 13 303 -15 q 221 81 221 42 q 274 149 221 114 q 401 210 328 183 q 364 208 389 208 q 204 242 278 208 q 88 333 131 276 q 46 453 46 389 q 107 604 46 532 q 264 721 168 676 q 458 765 360 765 q 660 710 574 765 l 893 710 l 893 604 l 756 604 m 296 518 q 337 418 296 457 q 443 379 378 379 q 526 453 526 379 q 485 552 526 515 q 376 589 444 589 q 296 518 296 589 z "},"ğ":{"ha":889,"x_min":43,"x_max":893,"o":"m 756 604 q 775 518 775 563 q 703 357 775 435 q 526 239 632 279 q 489 156 489 194 q 519 117 489 136 q 611 71 549 99 q 756 -8 706 28 q 807 -92 807 -44 q 751 -203 807 -136 q 611 -319 694 -269 q 449 -368 528 -368 q 242 -342 361 -368 q 43 -289 122 -315 l 43 -31 l 140 -31 q 272 -167 204 -121 q 424 -214 339 -214 q 496 -198 467 -214 q 525 -162 525 -182 q 490 -108 525 -132 q 382 -51 454 -83 q 262 13 303 -15 q 221 81 221 42 q 274 149 221 114 q 401 210 328 183 q 364 208 389 208 q 204 242 278 208 q 88 333 131 276 q 46 453 46 389 q 107 604 46 532 q 264 721 168 676 q 458 765 360 765 q 660 710 574 765 l 893 710 l 893 604 l 756 604 m 296 518 q 337 418 296 457 q 443 379 378 379 q 526 453 526 379 q 485 552 526 515 q 376 589 444 589 q 296 518 296 589 m 781 1233 q 708 1069 765 1144 q 572 949 650 993 q 415 906 493 906 q 224 947 315 906 q 88 1061 132 989 l 307 1233 q 366 1122 326 1161 q 465 1083 406 1083 q 528 1101 503 1083 q 561 1153 553 1119 l 781 1233 z "},"ģ":{"ha":889,"x_min":43,"x_max":893,"o":"m 756 604 q 775 518 775 563 q 703 357 775 435 q 526 239 632 279 q 489 156 489 194 q 519 117 489 136 q 611 71 549 99 q 756 -8 706 28 q 807 -92 807 -44 q 751 -203 807 -136 q 611 -319 694 -269 q 449 -368 528 -368 q 242 -342 361 -368 q 43 -289 122 -315 l 43 -31 l 140 -31 q 272 -167 204 -121 q 424 -214 339 -214 q 496 -198 467 -214 q 525 -162 525 -182 q 490 -108 525 -132 q 382 -51 454 -83 q 262 13 303 -15 q 221 81 221 42 q 274 149 221 114 q 401 210 328 183 q 364 208 389 208 q 204 242 278 208 q 88 333 131 276 q 46 453 46 389 q 107 604 46 532 q 264 721 168 676 q 458 765 360 765 q 660 710 574 765 l 893 710 l 893 604 l 756 604 m 296 518 q 337 418 296 457 q 443 379 378 379 q 526 453 526 379 q 485 552 526 515 q 376 589 444 589 q 296 518 296 589 m 231 1064 l 408 1282 l 540 1282 l 499 1143 l 625 1076 l 574 975 l 231 975 l 231 1064 z "},"ġ":{"ha":889,"x_min":43,"x_max":893,"o":"m 756 604 q 775 518 775 563 q 703 357 775 435 q 526 239 632 279 q 489 156 489 194 q 519 117 489 136 q 611 71 549 99 q 756 -8 706 28 q 807 -92 807 -44 q 751 -203 807 -136 q 611 -319 694 -269 q 449 -368 528 -368 q 242 -342 361 -368 q 43 -289 122 -315 l 43 -31 l 140 -31 q 272 -167 204 -121 q 424 -214 339 -214 q 496 -198 467 -214 q 525 -162 525 -182 q 490 -108 525 -132 q 382 -51 454 -83 q 262 13 303 -15 q 221 81 221 42 q 274 149 221 114 q 401 210 328 183 q 364 208 389 208 q 204 242 278 208 q 88 333 131 276 q 46 453 46 389 q 107 604 46 532 q 264 721 168 676 q 458 765 360 765 q 660 710 574 765 l 893 710 l 893 604 l 756 604 m 296 518 q 337 418 296 457 q 443 379 378 379 q 526 453 526 379 q 485 552 526 515 q 376 589 444 589 q 296 518 296 589 m 443 1197 q 549 1156 508 1197 q 590 1056 590 1115 q 560 976 590 1013 q 485 917 531 939 q 399 894 440 894 q 292 935 335 894 q 250 1036 250 976 q 280 1116 250 1079 q 356 1175 310 1153 q 443 1197 401 1197 z "},"h":{"ha":1017,"x_min":26,"x_max":1004,"o":"m 954 0 l 622 0 l 622 436 q 603 525 622 499 q 539 551 585 551 q 407 514 474 551 l 407 142 l 532 101 l 482 0 l 26 0 l 26 89 l 150 194 l 150 925 l 26 1007 l 26 1096 l 308 1213 l 407 1213 l 407 638 l 551 754 q 639 765 589 765 q 814 708 749 765 q 879 551 879 650 l 879 142 l 1004 101 l 954 0 z "},"ħ":{"ha":1017,"x_min":0,"x_max":1004,"o":"m 954 0 l 622 0 l 622 436 q 603 525 622 499 q 539 551 585 551 q 407 514 474 551 l 407 142 l 532 101 l 482 0 l 26 0 l 26 89 l 150 194 l 150 904 l 0 904 l 0 1006 l 150 1006 l 150 1161 l 308 1229 l 407 1229 l 407 1006 l 671 1006 l 671 904 l 407 904 l 407 638 l 551 754 q 639 765 589 765 q 814 708 749 765 q 879 551 879 650 l 879 142 l 1004 101 l 954 0 z "},"i":{"ha":574,"x_min":54,"x_max":560,"o":"m 510 0 l 54 0 l 54 89 l 178 194 l 178 490 l 54 572 l 54 660 l 336 778 l 435 778 l 435 142 l 560 101 l 510 0 m 306 1197 q 412 1156 371 1197 q 453 1056 453 1115 q 423 976 453 1013 q 348 917 393 939 q 261 894 303 894 q 155 935 197 894 q 113 1036 113 976 q 142 1116 113 1079 q 218 1175 172 1153 q 306 1197 264 1197 z "},"ı":{"ha":574,"x_min":54,"x_max":560,"o":"m 510 0 l 54 0 l 54 89 l 178 194 l 178 490 l 54 572 l 54 660 l 336 778 l 435 778 l 435 142 l 560 101 l 510 0 z "},"í":{"ha":574,"x_min":54,"x_max":621,"o":"m 510 0 l 54 0 l 54 89 l 178 194 l 178 490 l 54 572 l 54 660 l 336 778 l 435 778 l 435 142 l 560 101 l 510 0 m 621 1135 l 244 926 l 158 967 l 307 1239 l 583 1213 l 621 1135 z "},"î":{"ha":574,"x_min":-67,"x_max":654,"o":"m 510 0 l 54 0 l 54 89 l 178 194 l 178 490 l 54 572 l 54 660 l 336 778 l 435 778 l 435 142 l 560 101 l 510 0 m 617 944 l 342 918 l 243 1081 l -10 918 l -67 1011 l 276 1232 l 654 1024 l 617 944 z "},"ï":{"ha":574,"x_min":-69,"x_max":644,"o":"m 224 1071 q 198 999 224 1032 q 133 945 172 965 q 58 925 94 925 q -33 962 3 925 q -69 1053 -69 999 q -44 1126 -69 1092 q 22 1180 -18 1160 q 97 1200 61 1200 q 188 1163 153 1200 q 224 1071 224 1126 m 518 1200 q 609 1163 574 1200 q 644 1071 644 1126 q 619 999 644 1032 q 554 945 593 965 q 479 925 515 925 q 388 962 424 925 q 351 1053 351 999 q 377 1126 351 1092 q 442 1180 403 1160 q 518 1200 482 1200 m 560 101 l 510 0 l 54 0 l 54 89 l 178 194 l 178 490 l 54 572 l 54 660 l 336 778 l 435 778 l 435 142 l 560 101 z "},"ì":{"ha":574,"x_min":-47,"x_max":560,"o":"m 510 0 l 54 0 l 54 89 l 178 194 l 178 490 l 54 572 l 54 660 l 336 778 l 435 778 l 435 142 l 560 101 l 510 0 m 329 926 l -47 1135 l -8 1213 l 268 1239 l 417 967 l 329 926 z "},"ĳ":{"ha":1113,"x_min":54,"x_max":1001,"o":"m 261 894 q 155 935 197 894 q 113 1036 113 976 q 142 1116 113 1079 q 218 1175 172 1153 q 306 1197 264 1197 q 412 1156 371 1197 q 453 1056 453 1115 q 423 976 453 1013 q 348 917 393 939 q 261 894 303 894 m 810 881 q 703 922 746 881 q 661 1022 661 963 q 691 1102 661 1065 q 767 1161 721 1139 q 854 1183 813 1183 q 960 1142 919 1183 q 1001 1042 1001 1101 q 972 962 1001 999 q 897 903 942 925 q 810 881 851 881 m 560 101 l 510 0 l 54 0 l 54 89 l 178 194 l 178 490 l 54 572 l 54 660 l 336 778 l 435 778 l 435 142 l 560 101 m 982 138 q 985 35 982 82 q 994 -28 989 -11 l 683 -367 l 585 -292 q 697 -124 668 -193 q 725 49 725 -54 l 725 514 l 601 600 l 601 689 l 885 778 l 982 778 l 982 138 z "},"ī":{"ha":574,"x_min":-49,"x_max":622,"o":"m 510 0 l 54 0 l 54 89 l 178 194 l 178 490 l 54 572 l 54 660 l 336 778 l 435 778 l 435 142 l 560 101 l 510 0 m -49 1125 l 622 1125 l 622 1022 l -49 1022 l -49 1125 z "},"į":{"ha":574,"x_min":54,"x_max":560,"o":"m 261 894 q 155 935 197 894 q 113 1036 113 976 q 142 1116 113 1079 q 218 1175 172 1153 q 306 1197 264 1197 q 412 1156 371 1197 q 453 1056 453 1115 q 423 976 453 1013 q 348 917 393 939 q 261 894 303 894 m 450 -136 q 466 -171 450 -160 q 518 -183 482 -182 l 518 -282 l 411 -367 q 253 -308 308 -350 q 199 -204 199 -267 q 210 -146 199 -165 l 390 0 l 54 0 l 54 89 l 178 194 l 178 490 l 54 572 l 54 660 l 336 778 l 435 778 l 435 142 l 560 101 l 510 0 q 450 -136 450 -92 z "},"j":{"ha":539,"x_min":11,"x_max":428,"o":"m 408 138 q 412 35 408 82 q 421 -28 415 -11 l 110 -367 l 11 -292 q 123 -124 94 -193 q 151 49 151 -54 l 151 514 l 28 600 l 28 689 l 311 778 l 408 778 l 408 138 m 281 1183 q 387 1142 346 1183 q 428 1042 428 1101 q 398 962 428 999 q 323 903 368 925 q 236 881 278 881 q 130 922 172 881 q 88 1022 88 963 q 117 1102 88 1065 q 193 1161 147 1139 q 281 1183 239 1183 z "},"ȷ":{"ha":539,"x_min":11,"x_max":421,"o":"m 408 138 q 412 35 408 82 q 421 -28 415 -11 l 110 -367 l 11 -292 q 123 -124 94 -193 q 151 49 151 -54 l 151 514 l 28 600 l 28 689 l 311 778 l 408 778 l 408 138 z "},"k":{"ha":1036,"x_min":26,"x_max":1026,"o":"m 532 101 l 482 0 l 26 0 l 26 89 l 150 194 l 150 925 l 26 1007 l 26 1096 l 308 1213 l 407 1213 l 407 142 l 532 101 m 976 0 l 674 0 l 458 374 l 696 560 l 517 650 l 567 751 l 989 751 l 989 663 l 713 440 l 886 156 l 1026 101 l 976 0 z "},"ķ":{"ha":1036,"x_min":26,"x_max":1026,"o":"m 532 101 l 482 0 l 26 0 l 26 89 l 150 194 l 150 925 l 26 1007 l 26 1096 l 308 1213 l 407 1213 l 407 142 l 532 101 m 976 0 l 674 0 l 458 374 l 696 560 l 517 650 l 567 751 l 989 751 l 989 663 l 713 440 l 886 156 l 1026 101 l 976 0 m 746 -204 l 568 -422 l 436 -422 l 478 -283 l 351 -217 l 403 -115 l 746 -115 l 746 -204 z "},"l":{"ha":546,"x_min":26,"x_max":532,"o":"m 482 0 l 26 0 l 26 89 l 150 194 l 150 925 l 26 1007 l 26 1096 l 308 1213 l 407 1213 l 407 142 l 532 101 l 482 0 z "},"ĺ":{"ha":546,"x_min":26,"x_max":607,"o":"m 482 0 l 26 0 l 26 89 l 150 194 l 150 925 l 26 1007 l 26 1096 l 308 1213 l 407 1213 l 407 142 l 532 101 l 482 0 m 607 1526 l 231 1318 l 144 1358 l 293 1631 l 569 1604 l 607 1526 z "},"ľ":{"ha":546,"x_min":26,"x_max":786,"o":"m 482 0 l 26 0 l 26 89 l 150 194 l 150 925 l 26 1007 l 26 1096 l 308 1213 l 407 1213 l 407 142 l 532 101 l 482 0 m 786 965 l 632 794 l 533 869 q 567 986 558 928 l 489 1040 l 489 1129 l 689 1213 l 786 1214 l 786 965 z "},"ļ":{"ha":546,"x_min":26,"x_max":532,"o":"m 482 0 l 26 0 l 26 89 l 150 194 l 150 925 l 26 1007 l 26 1096 l 308 1213 l 407 1213 l 407 142 l 532 101 l 482 0 m 468 -204 l 290 -422 l 158 -422 l 200 -283 l 74 -217 l 125 -115 l 468 -115 l 468 -204 z "},"ŀ":{"ha":783,"x_min":26,"x_max":836,"o":"m 482 0 l 26 0 l 26 89 l 150 194 l 150 925 l 26 1007 l 26 1096 l 308 1213 l 407 1213 l 407 142 l 532 101 l 482 0 m 689 728 q 795 687 754 728 q 836 586 836 646 q 806 508 836 544 q 731 449 776 471 q 644 426 686 426 q 538 467 581 426 q 496 567 496 507 q 526 647 496 610 q 601 706 556 683 q 689 728 647 728 z "},"ł":{"ha":544,"x_min":-50,"x_max":594,"o":"m 407 140 l 532 100 l 482 -1 l 26 -1 l 26 88 l 150 193 l 150 489 l -50 313 l -50 435 l 150 619 l 150 925 l 26 1007 l 26 1096 l 308 1213 l 407 1213 l 407 774 l 594 947 l 594 811 l 407 639 l 407 140 z "},"m":{"ha":1465,"x_min":54,"x_max":1454,"o":"m 1403 4 l 1072 4 l 1072 464 q 1056 535 1072 514 q 1000 556 1040 556 q 882 518 940 556 l 882 142 l 996 104 l 944 3 l 625 3 l 625 463 q 609 533 625 513 q 553 554 593 554 q 435 517 493 554 l 435 140 l 549 103 l 497 1 l 54 1 l 54 90 l 178 196 l 178 488 l 54 567 l 54 656 l 360 778 l 415 622 l 576 754 q 653 765 610 765 q 791 729 735 765 q 869 629 847 693 l 1024 754 q 1100 765 1057 765 q 1267 708 1206 765 q 1329 551 1329 650 l 1329 142 l 1454 106 l 1403 4 z "},"n":{"ha":1044,"x_min":54,"x_max":1032,"o":"m 982 1 l 650 1 l 650 438 q 631 526 650 500 q 567 553 613 553 q 435 515 501 553 l 435 143 l 560 103 l 510 1 l 54 1 l 54 90 l 178 196 l 178 488 l 54 567 l 54 656 l 360 778 l 415 622 l 579 754 q 667 765 617 765 q 842 708 776 765 q 907 551 907 650 l 907 142 l 1032 103 l 982 1 z "},"ń":{"ha":1044,"x_min":54,"x_max":1032,"o":"m 982 1 l 650 1 l 650 438 q 631 526 650 500 q 567 553 613 553 q 435 515 501 553 l 435 143 l 560 103 l 510 1 l 54 1 l 54 90 l 178 196 l 178 488 l 54 567 l 54 656 l 360 778 l 415 622 l 579 754 q 667 765 617 765 q 842 708 776 765 q 907 551 907 650 l 907 142 l 1032 103 l 982 1 m 843 1135 l 467 926 l 381 967 l 529 1239 l 806 1213 l 843 1135 z "},"ň":{"ha":1044,"x_min":54,"x_max":1032,"o":"m 982 1 l 650 1 l 650 438 q 631 526 650 500 q 567 553 613 553 q 435 515 501 553 l 435 143 l 560 103 l 510 1 l 54 1 l 54 90 l 178 196 l 178 488 l 54 567 l 54 656 l 360 778 l 415 622 l 579 754 q 667 765 617 765 q 842 708 776 765 q 907 551 907 650 l 907 142 l 1032 103 l 982 1 m 518 925 l 140 1135 l 179 1213 l 453 1239 l 551 1076 l 804 1239 l 861 1147 l 518 925 z "},"ņ":{"ha":1044,"x_min":54,"x_max":1032,"o":"m 982 1 l 650 1 l 650 438 q 631 526 650 500 q 567 553 613 553 q 435 515 501 553 l 435 143 l 560 103 l 510 1 l 54 1 l 54 90 l 178 196 l 178 488 l 54 567 l 54 656 l 360 778 l 415 622 l 579 754 q 667 765 617 765 q 842 708 776 765 q 907 551 907 650 l 907 142 l 1032 103 l 982 1 m 760 -204 l 582 -422 l 450 -422 l 492 -283 l 365 -217 l 417 -115 l 760 -115 l 760 -204 z "},"ŋ":{"ha":1038,"x_min":54,"x_max":919,"o":"m 907 139 q 910 37 907 83 q 919 -26 914 -10 l 607 -365 l 510 -290 q 622 -122 593 -192 q 650 50 650 -53 l 650 438 q 631 526 650 500 q 567 553 613 553 q 435 515 501 553 l 435 143 l 560 103 l 510 1 l 54 1 l 54 90 l 178 196 l 178 488 l 54 567 l 54 656 l 360 778 l 415 622 l 579 754 q 667 765 617 765 q 842 708 776 765 q 907 551 907 650 l 907 139 z "},"ñ":{"ha":1044,"x_min":54,"x_max":1032,"o":"m 982 1 l 650 1 l 650 438 q 631 526 650 500 q 567 553 613 553 q 435 515 501 553 l 435 143 l 560 103 l 510 1 l 54 1 l 54 90 l 178 196 l 178 488 l 54 567 l 54 656 l 360 778 l 415 622 l 579 754 q 667 765 617 765 q 842 708 776 765 q 907 551 907 650 l 907 142 l 1032 103 l 982 1 m 483 1261 q 589 1167 549 1196 q 663 1139 629 1139 q 719 1158 689 1139 l 797 1208 l 854 1115 l 528 907 q 422 1001 463 974 q 349 1029 382 1029 q 290 1010 322 1029 l 215 961 l 157 1053 l 483 1261 z "},"o":{"ha":978,"x_min":75,"x_max":903,"o":"m 538 765 q 726 717 643 765 q 856 585 810 669 q 903 400 903 501 q 831 194 903 290 q 649 42 758 99 q 439 -14 540 -14 q 251 34 335 -14 q 122 165 168 82 q 75 351 75 249 q 147 558 75 463 q 328 709 219 653 q 538 765 436 765 m 457 592 q 380 548 407 592 q 353 418 353 504 q 397 233 353 306 q 519 160 440 160 q 598 204 571 160 q 625 335 625 249 q 581 519 625 447 q 457 592 538 592 z "},"ó":{"ha":978,"x_min":75,"x_max":903,"o":"m 538 765 q 726 717 643 765 q 856 585 810 669 q 903 400 903 501 q 831 194 903 290 q 649 42 758 99 q 439 -14 540 -14 q 251 34 335 -14 q 122 165 168 82 q 75 351 75 249 q 147 558 75 463 q 328 709 219 653 q 538 765 436 765 m 457 592 q 380 548 407 592 q 353 418 353 504 q 397 233 353 306 q 519 160 440 160 q 598 204 571 160 q 625 335 625 249 q 581 519 625 447 q 457 592 538 592 m 824 1135 l 447 926 l 361 967 l 510 1239 l 786 1213 l 824 1135 z "},"ô":{"ha":978,"x_min":75,"x_max":903,"o":"m 538 765 q 726 717 643 765 q 856 585 810 669 q 903 400 903 501 q 831 194 903 290 q 649 42 758 99 q 439 -14 540 -14 q 251 34 335 -14 q 122 165 168 82 q 75 351 75 249 q 147 558 75 463 q 328 709 219 653 q 538 765 436 765 m 457 592 q 380 548 407 592 q 353 418 353 504 q 397 233 353 306 q 519 160 440 160 q 598 204 571 160 q 625 335 625 249 q 581 519 625 447 q 457 592 538 592 m 819 944 l 544 918 l 446 1081 l 193 918 l 136 1011 l 479 1232 l 857 1024 l 819 944 z "},"ö":{"ha":978,"x_min":75,"x_max":903,"o":"m 300 1200 q 391 1163 356 1200 q 426 1071 426 1126 q 401 999 426 1032 q 336 945 375 965 q 261 925 297 925 q 169 962 206 925 q 133 1053 133 999 q 159 1126 133 1092 q 224 1180 185 1160 q 300 1200 264 1200 m 721 1200 q 812 1163 776 1200 q 847 1071 847 1126 q 822 999 847 1032 q 757 945 796 965 q 682 925 718 925 q 590 962 626 925 q 554 1053 554 999 q 580 1126 554 1092 q 645 1180 606 1160 q 721 1200 685 1200 m 538 765 q 726 717 643 765 q 856 585 810 669 q 903 400 903 501 q 831 194 903 290 q 649 42 758 99 q 439 -14 540 -14 q 251 34 335 -14 q 122 165 168 82 q 75 351 75 249 q 147 558 75 463 q 328 709 219 653 q 538 765 436 765 m 457 592 q 380 548 407 592 q 353 418 353 504 q 397 233 353 306 q 519 160 440 160 q 598 204 571 160 q 625 335 625 249 q 581 519 625 447 q 457 592 538 592 z "},"ò":{"ha":978,"x_min":75,"x_max":903,"o":"m 538 765 q 726 717 643 765 q 856 585 810 669 q 903 400 903 501 q 831 194 903 290 q 649 42 758 99 q 439 -14 540 -14 q 251 34 335 -14 q 122 165 168 82 q 75 351 75 249 q 147 558 75 463 q 328 709 219 653 q 538 765 436 765 m 457 592 q 380 548 407 592 q 353 418 353 504 q 397 233 353 306 q 519 160 440 160 q 598 204 571 160 q 625 335 625 249 q 581 519 625 447 q 457 592 538 592 m 532 926 l 156 1135 l 194 1213 l 471 1239 l 619 967 l 532 926 z "},"ő":{"ha":978,"x_min":75,"x_max":1014,"o":"m 538 765 q 726 717 643 765 q 856 585 810 669 q 903 400 903 501 q 831 194 903 290 q 649 42 758 99 q 439 -14 540 -14 q 251 34 335 -14 q 122 165 168 82 q 75 351 75 249 q 147 558 75 463 q 328 709 219 653 q 538 765 436 765 m 457 592 q 380 548 407 592 q 353 418 353 504 q 397 233 353 306 q 519 160 440 160 q 598 204 571 160 q 625 335 625 249 q 581 519 625 447 q 457 592 538 592 m 589 1135 l 268 926 l 181 967 l 288 1239 l 550 1213 l 589 1135 m 1014 1135 l 694 926 l 607 967 l 714 1239 l 976 1213 l 1014 1135 z "},"ō":{"ha":978,"x_min":75,"x_max":903,"o":"m 538 765 q 726 717 643 765 q 856 585 810 669 q 903 400 903 501 q 831 194 903 290 q 649 42 758 99 q 439 -14 540 -14 q 251 34 335 -14 q 122 165 168 82 q 75 351 75 249 q 147 558 75 463 q 328 709 219 653 q 538 765 436 765 m 457 592 q 380 548 407 592 q 353 418 353 504 q 397 233 353 306 q 519 160 440 160 q 598 204 571 160 q 625 335 625 249 q 581 519 625 447 q 457 592 538 592 m 154 1125 l 825 1125 l 825 1022 l 154 1022 l 154 1125 z "},"ø":{"ha":978,"x_min":75,"x_max":901,"o":"m 738 708 q 858 579 814 660 q 901 400 901 499 q 829 194 901 290 q 648 42 757 99 q 438 -14 539 -14 q 331 1 383 -14 l 207 -214 l 118 -164 l 238 43 q 118 173 161 92 q 75 351 75 254 q 147 558 75 463 q 328 709 219 653 q 538 765 436 765 q 646 750 593 765 l 771 967 l 858 915 l 739 710 l 738 708 m 351 417 q 372 278 351 339 l 538 564 q 456 590 503 590 q 378 547 406 590 q 351 417 351 503 m 517 157 q 595 201 568 157 q 622 332 622 246 q 601 471 622 411 l 436 185 q 518 158 471 158 l 517 157 z "},"õ":{"ha":978,"x_min":75,"x_max":903,"o":"m 538 765 q 726 717 643 765 q 856 585 810 669 q 903 400 903 501 q 831 194 903 290 q 649 42 758 99 q 439 -14 540 -14 q 251 34 335 -14 q 122 165 168 82 q 75 351 75 249 q 147 558 75 463 q 328 709 219 653 q 538 765 436 765 m 457 592 q 380 548 407 592 q 353 418 353 504 q 397 233 353 306 q 519 160 440 160 q 598 204 571 160 q 625 335 625 249 q 581 519 625 447 q 457 592 538 592 m 464 1261 q 569 1167 529 1196 q 643 1139 610 1139 q 700 1158 669 1139 l 778 1208 l 835 1115 l 508 907 q 403 1001 443 974 q 329 1029 363 1029 q 271 1010 303 1029 l 196 961 l 138 1053 l 464 1261 z "},"œ":{"ha":1407,"x_min":75,"x_max":1336,"o":"m 1038 764 q 1258 651 1181 764 q 1333 332 1336 538 l 867 332 q 919 215 881 258 q 1017 171 957 171 q 1289 251 1108 171 l 1331 165 l 1135 8 q 936 -15 1051 -15 q 799 14 863 -15 q 690 94 736 43 q 559 15 631 43 q 422 -14 488 -14 q 243 34 322 -14 q 119 165 164 82 q 75 351 75 249 q 144 558 75 463 q 319 709 214 653 q 521 765 424 765 q 654 737 593 765 q 760 656 715 708 q 896 736 822 707 q 1036 765 969 765 l 1038 764 m 504 158 q 570 203 547 158 q 593 333 593 247 q 553 517 593 444 q 442 590 513 590 q 377 547 400 590 q 354 417 354 503 q 394 231 354 304 q 504 158 433 158 m 963 590 q 888 552 913 590 q 861 435 864 514 l 1078 435 q 1044 552 1069 514 q 963 590 1019 590 z "},"p":{"ha":1067,"x_min":54,"x_max":992,"o":"m 528 -12 q 435 13 476 -12 l 435 -196 l 651 -251 l 601 -351 l 54 -351 l 54 -264 l 178 -157 l 178 488 l 54 567 l 54 656 l 360 778 l 415 622 l 581 754 q 682 765 625 765 q 842 717 771 765 q 952 585 913 669 q 992 400 992 501 q 919 194 992 290 q 738 42 847 99 q 528 -14 629 -14 l 528 -12 m 592 557 q 435 515 507 557 l 435 304 q 480 202 435 243 q 608 161 525 161 q 721 336 721 161 q 688 495 721 433 q 592 557 656 557 z "},"þ":{"ha":1038,"x_min":26,"x_max":964,"o":"m 500 -12 q 407 11 450 -12 l 407 -197 l 624 -253 l 574 -353 l 26 -353 l 26 -265 l 150 -158 l 150 925 l 26 1007 l 26 1096 l 308 1213 l 407 1213 l 407 639 l 551 754 q 654 765 596 765 q 814 717 743 765 q 924 585 885 669 q 964 400 964 501 q 892 194 964 290 q 710 42 819 99 q 500 -14 601 -14 l 500 -12 m 564 560 q 407 519 479 560 l 407 304 q 452 202 407 243 q 581 161 497 161 q 693 336 693 161 q 660 497 693 433 q 564 560 628 560 z "},"q":{"ha":1025,"x_min":76,"x_max":1025,"o":"m 975 -353 l 417 -353 l 417 -265 l 632 -171 l 632 100 l 503 -3 q 396 -14 458 -14 q 231 34 304 -14 q 117 164 158 82 q 76 344 76 246 q 142 553 76 457 q 305 708 207 650 q 494 765 403 765 q 715 697 621 765 l 789 765 l 888 765 l 888 -219 l 1025 -253 l 975 -353 m 488 194 q 632 226 567 194 l 632 469 q 579 557 624 522 q 458 592 535 592 q 376 545 404 592 q 347 411 347 499 q 384 256 347 318 q 489 194 421 194 l 488 194 z "},"r":{"ha":811,"x_min":54,"x_max":817,"o":"m 522 551 q 435 518 476 551 l 435 157 l 651 103 l 601 1 l 54 1 l 54 90 l 178 196 l 178 488 l 54 567 l 54 656 l 360 778 l 413 628 l 535 754 q 600 765 564 765 q 738 730 682 765 q 817 632 794 694 l 672 450 l 574 450 q 560 528 572 506 q 522 551 549 551 z "},"ŕ":{"ha":811,"x_min":54,"x_max":817,"o":"m 522 551 q 435 518 476 551 l 435 157 l 651 103 l 601 1 l 54 1 l 54 90 l 178 196 l 178 488 l 54 567 l 54 656 l 360 778 l 413 628 l 535 754 q 600 765 564 765 q 738 730 682 765 q 817 632 794 694 l 672 450 l 574 450 q 560 528 572 506 q 522 551 549 551 m 778 1135 l 401 926 l 315 967 l 464 1239 l 740 1213 l 778 1135 z "},"ř":{"ha":811,"x_min":54,"x_max":817,"o":"m 522 551 q 435 518 476 551 l 435 157 l 651 103 l 601 1 l 54 1 l 54 90 l 178 196 l 178 488 l 54 567 l 54 656 l 360 778 l 413 628 l 535 754 q 600 765 564 765 q 738 730 682 765 q 817 632 794 694 l 672 450 l 574 450 q 560 528 572 506 q 522 551 549 551 m 453 925 l 75 1135 l 114 1213 l 388 1239 l 486 1076 l 739 1239 l 796 1147 l 453 925 z "},"ŗ":{"ha":811,"x_min":54,"x_max":817,"o":"m 522 551 q 435 518 476 551 l 435 157 l 651 103 l 601 1 l 54 1 l 54 90 l 178 196 l 178 488 l 54 567 l 54 656 l 360 778 l 413 628 l 535 754 q 600 765 564 765 q 738 730 682 765 q 817 632 794 694 l 672 450 l 574 450 q 560 528 572 506 q 522 551 549 551 m 507 -204 l 329 -422 l 197 -422 l 239 -283 l 113 -217 l 164 -115 l 507 -115 l 507 -204 z "},"s":{"ha":776,"x_min":74,"x_max":726,"o":"m 444 183 q 412 231 444 207 q 304 299 379 256 q 186 371 232 340 q 108 440 140 401 q 75 524 75 479 q 124 631 75 574 q 246 726 174 688 q 379 765 318 765 q 551 749 453 765 q 693 714 649 733 l 693 478 l 596 478 q 510 578 561 542 q 407 614 460 614 q 370 601 383 614 q 357 567 357 588 q 391 515 357 540 q 503 446 425 490 q 618 376 574 406 q 694 308 663 346 q 726 228 726 271 q 675 120 726 176 q 549 25 624 64 q 414 -14 475 -14 q 227 2 335 -14 q 74 38 119 18 l 74 285 l 171 285 q 270 176 211 215 q 388 138 329 138 q 428 151 413 138 q 444 183 444 164 z "},"ś":{"ha":776,"x_min":74,"x_max":738,"o":"m 444 183 q 412 231 444 207 q 304 299 379 256 q 186 371 232 340 q 108 440 140 401 q 75 524 75 479 q 124 631 75 574 q 246 726 174 688 q 379 765 318 765 q 551 749 453 765 q 693 714 649 733 l 693 478 l 596 478 q 510 578 561 542 q 407 614 460 614 q 370 601 383 614 q 357 567 357 588 q 391 515 357 540 q 503 446 425 490 q 618 376 574 406 q 694 308 663 346 q 726 228 726 271 q 675 120 726 176 q 549 25 624 64 q 414 -14 475 -14 q 227 2 335 -14 q 74 38 119 18 l 74 285 l 171 285 q 270 176 211 215 q 388 138 329 138 q 428 151 413 138 q 444 183 444 164 m 738 1135 l 361 926 l 275 967 l 424 1239 l 700 1213 l 738 1135 z "},"š":{"ha":776,"x_min":35,"x_max":756,"o":"m 444 183 q 412 231 444 207 q 304 299 379 256 q 186 371 232 340 q 108 440 140 401 q 75 524 75 479 q 124 631 75 574 q 246 726 174 688 q 379 765 318 765 q 551 749 453 765 q 693 714 649 733 l 693 478 l 596 478 q 510 578 561 542 q 407 614 460 614 q 370 601 383 614 q 357 567 357 588 q 391 515 357 540 q 503 446 425 490 q 618 376 574 406 q 694 308 663 346 q 726 228 726 271 q 675 120 726 176 q 549 25 624 64 q 414 -14 475 -14 q 227 2 335 -14 q 74 38 119 18 l 74 285 l 171 285 q 270 176 211 215 q 388 138 329 138 q 428 151 413 138 q 444 183 444 164 m 413 925 l 35 1135 l 74 1213 l 347 1239 l 446 1076 l 699 1239 l 756 1147 l 413 925 z "},"ş":{"ha":776,"x_min":75,"x_max":728,"o":"m 604 54 q 458 -81 557 4 q 558 -155 532 -122 q 585 -229 585 -187 q 508 -327 585 -293 q 274 -368 432 -361 l 274 -281 q 338 -247 318 -265 q 357 -200 357 -228 q 340 -151 357 -172 q 279 -99 324 -129 l 378 -14 q 206 6 297 -10 q 75 38 115 21 l 75 285 l 172 285 q 272 176 213 215 q 389 138 331 138 q 430 151 414 138 q 446 183 446 164 q 413 231 446 207 q 306 299 381 256 q 188 371 233 340 q 109 440 142 401 q 76 524 76 479 q 126 631 76 574 q 247 726 175 688 q 381 765 319 765 q 552 749 454 765 q 694 714 650 733 l 694 478 l 597 478 q 512 578 563 542 q 408 614 461 614 q 372 601 385 614 q 358 567 358 588 q 392 515 358 540 q 504 446 426 490 q 619 376 575 406 q 696 308 664 346 q 728 228 728 271 q 692 140 728 186 q 601 56 657 93 l 604 54 z "},"ș":{"ha":776,"x_min":74,"x_max":726,"o":"m 444 183 q 412 231 444 207 q 304 299 379 256 q 186 371 232 340 q 108 440 140 401 q 75 524 75 479 q 124 631 75 574 q 246 726 174 688 q 379 765 318 765 q 551 749 453 765 q 693 714 649 733 l 693 478 l 596 478 q 510 578 561 542 q 407 614 460 614 q 370 601 383 614 q 357 567 357 588 q 391 515 357 540 q 503 446 425 490 q 618 376 574 406 q 694 308 663 346 q 726 228 726 271 q 675 120 726 176 q 549 25 624 64 q 414 -14 475 -14 q 227 2 335 -14 q 74 38 119 18 l 74 285 l 171 285 q 270 176 211 215 q 388 138 329 138 q 428 151 413 138 q 444 183 444 164 m 592 -204 l 414 -422 l 282 -422 l 324 -283 l 197 -217 l 249 -115 l 592 -115 l 592 -204 z "},"ß":{"ha":1150,"x_min":35,"x_max":1099,"o":"m 793 668 q 826 581 793 619 q 932 488 860 543 q 1019 416 986 446 q 1076 345 1053 386 q 1099 256 1099 304 q 1048 136 1099 200 q 925 29 997 72 q 793 -14 853 -14 q 653 -2 733 -14 q 539 24 572 10 l 539 271 l 636 271 q 711 173 667 208 q 800 138 756 138 q 838 152 824 138 q 851 189 851 167 q 824 243 851 215 q 738 314 796 271 q 641 392 678 360 q 578 468 604 425 q 551 558 551 511 q 574 647 551 607 q 639 738 596 686 q 691 810 674 781 q 708 871 708 839 q 686 952 708 906 q 630 1032 664 999 q 563 1065 596 1065 q 483 1019 510 1065 q 456 886 456 974 l 456 0 l 75 0 l 75 89 l 199 186 l 199 607 l 35 607 l 35 710 l 199 710 l 199 819 q 272 1020 199 926 q 454 1170 344 1114 q 665 1226 564 1226 q 796 1191 719 1226 q 927 1101 872 1156 q 982 993 982 1047 q 957 905 982 943 q 881 813 932 867 q 815 737 836 768 q 793 668 793 706 z "},"ſ":{"ha":699,"x_min":35,"x_max":813,"o":"m 597 1226 q 717 1212 650 1226 q 813 1181 783 1197 l 813 921 l 715 921 q 632 1022 681 985 q 533 1058 583 1058 q 461 1019 488 1058 q 435 907 435 981 l 435 156 l 651 101 l 601 0 l 54 0 l 54 89 l 178 194 l 178 607 l 35 607 l 35 710 l 178 710 l 178 813 q 244 1018 178 922 q 408 1170 310 1114 q 597 1226 507 1226 z "},"t":{"ha":700,"x_min":4,"x_max":685,"o":"m 544 -3 q 422 -14 492 -14 q 218 47 282 -14 q 154 233 154 107 l 154 607 l 4 607 l 4 688 l 314 1017 l 411 1017 l 411 710 l 661 710 l 661 607 l 411 607 l 411 250 q 519 161 411 161 q 576 168 549 161 q 643 194 603 175 l 685 108 l 544 -3 z "},"ŧ":{"ha":700,"x_min":4,"x_max":685,"o":"m 544 -3 q 422 -14 492 -14 q 218 47 282 -14 q 154 233 154 107 l 154 607 l 4 607 l 4 688 l 314 1017 l 411 1017 l 411 710 l 661 710 l 661 607 l 411 607 l 411 250 q 519 161 411 161 q 576 168 549 161 q 643 194 603 175 l 685 108 l 544 -3 m 333 522 l 333 522 l 333 522 l 333 522 l 333 522 z "},"ť":{"ha":700,"x_min":4,"x_max":790,"o":"m 544 -3 q 422 -14 492 -14 q 218 47 282 -14 q 154 233 154 107 l 154 607 l 4 607 l 4 688 l 314 1017 l 411 1017 l 411 710 l 661 710 l 661 607 l 411 607 l 411 250 q 519 161 411 161 q 576 168 549 161 q 643 194 603 175 l 685 108 l 544 -3 m 790 965 l 636 794 l 538 869 q 571 986 563 928 l 493 1040 l 493 1129 l 693 1213 l 790 1214 l 790 965 z "},"ţ":{"ha":700,"x_min":4,"x_max":685,"o":"m 457 -81 q 557 -155 531 -122 q 583 -229 583 -187 q 507 -327 583 -293 q 272 -368 431 -361 l 272 -281 q 336 -247 317 -265 q 356 -200 356 -228 q 339 -151 356 -172 q 278 -99 322 -129 q 378 -14 344 -43 q 208 56 263 -4 q 154 232 154 115 l 154 606 l 4 606 l 4 686 l 314 1015 l 411 1015 l 411 708 l 661 708 l 661 606 l 411 606 l 411 249 q 519 160 411 160 q 576 167 549 160 q 643 193 603 174 l 685 107 l 544 -4 l 540 -4 q 456 -79 511 -32 l 457 -81 z "},"ț":{"ha":700,"x_min":4,"x_max":685,"o":"m 544 -3 q 422 -14 492 -14 q 218 47 282 -14 q 154 233 154 107 l 154 607 l 4 607 l 4 688 l 314 1017 l 411 1017 l 411 710 l 661 710 l 661 607 l 411 607 l 411 250 q 519 161 411 161 q 576 168 549 161 q 643 194 603 175 l 685 108 l 544 -3 m 593 -204 l 415 -422 l 283 -422 l 325 -283 l 199 -217 l 250 -115 l 593 -115 l 593 -204 z "},"u":{"ha":1006,"x_min":14,"x_max":990,"o":"m 939 0 l 608 0 l 608 113 l 465 -4 q 378 -15 428 -15 q 203 42 268 -15 q 138 199 138 100 l 138 486 l 14 557 l 14 644 l 297 767 l 394 767 l 394 314 q 413 225 394 251 q 479 199 432 199 q 610 236 543 199 l 610 486 l 486 557 l 486 644 l 768 767 l 867 767 l 867 142 l 990 101 l 939 0 z "},"ú":{"ha":1006,"x_min":14,"x_max":990,"o":"m 939 0 l 608 0 l 608 113 l 465 -4 q 378 -15 428 -15 q 203 42 268 -15 q 138 199 138 100 l 138 486 l 14 557 l 14 644 l 297 767 l 394 767 l 394 314 q 413 225 394 251 q 479 199 432 199 q 610 236 543 199 l 610 486 l 486 557 l 486 644 l 768 767 l 867 767 l 867 142 l 990 101 l 939 0 m 850 1135 l 474 926 l 388 967 l 536 1239 l 813 1213 l 850 1135 z "},"û":{"ha":1006,"x_min":14,"x_max":990,"o":"m 939 0 l 608 0 l 608 113 l 465 -4 q 378 -15 428 -15 q 203 42 268 -15 q 138 199 138 100 l 138 486 l 14 557 l 14 644 l 297 767 l 394 767 l 394 314 q 413 225 394 251 q 479 199 432 199 q 610 236 543 199 l 610 486 l 486 557 l 486 644 l 768 767 l 867 767 l 867 142 l 990 101 l 939 0 m 846 944 l 571 918 l 472 1081 l 219 918 l 163 1011 l 506 1232 l 883 1024 l 846 944 z "},"ü":{"ha":1006,"x_min":14,"x_max":990,"o":"m 288 925 q 196 962 232 925 q 160 1053 160 999 q 185 1126 160 1092 q 251 1180 211 1160 q 326 1200 290 1200 q 417 1163 382 1200 q 453 1071 453 1126 q 427 999 453 1032 q 363 945 401 965 q 288 925 324 925 m 708 925 q 617 962 653 925 q 581 1053 581 999 q 606 1126 581 1092 q 672 1180 632 1160 q 747 1200 711 1200 q 838 1163 803 1200 q 874 1071 874 1126 q 848 999 874 1032 q 783 945 822 965 q 708 925 744 925 m 939 0 l 608 0 l 608 113 l 465 -4 q 378 -15 428 -15 q 203 42 268 -15 q 138 199 138 100 l 138 486 l 14 557 l 14 644 l 297 767 l 394 767 l 394 314 q 413 225 394 251 q 479 199 432 199 q 610 236 543 199 l 610 486 l 486 557 l 486 644 l 768 767 l 867 767 l 867 142 l 990 101 l 939 0 z "},"ù":{"ha":1006,"x_min":14,"x_max":990,"o":"m 939 0 l 608 0 l 608 113 l 465 -4 q 378 -15 428 -15 q 203 42 268 -15 q 138 199 138 100 l 138 486 l 14 557 l 14 644 l 297 767 l 394 767 l 394 314 q 413 225 394 251 q 479 199 432 199 q 610 236 543 199 l 610 486 l 486 557 l 486 644 l 768 767 l 867 767 l 867 142 l 990 101 l 939 0 m 558 926 l 182 1135 l 221 1213 l 497 1239 l 646 967 l 558 926 z "},"ű":{"ha":1006,"x_min":14,"x_max":1040,"o":"m 939 0 l 608 0 l 608 113 l 465 -4 q 378 -15 428 -15 q 203 42 268 -15 q 138 199 138 100 l 138 486 l 14 557 l 14 644 l 297 767 l 394 767 l 394 314 q 413 225 394 251 q 479 199 432 199 q 610 236 543 199 l 610 486 l 486 557 l 486 644 l 768 767 l 867 767 l 867 142 l 990 101 l 939 0 m 615 1135 l 294 926 l 207 967 l 314 1239 l 576 1213 l 615 1135 m 1040 1135 l 721 926 l 633 967 l 740 1239 l 1003 1213 l 1040 1135 z "},"ū":{"ha":1006,"x_min":14,"x_max":990,"o":"m 939 0 l 608 0 l 608 113 l 465 -4 q 378 -15 428 -15 q 203 42 268 -15 q 138 199 138 100 l 138 486 l 14 557 l 14 644 l 297 767 l 394 767 l 394 314 q 413 225 394 251 q 479 199 432 199 q 610 236 543 199 l 610 486 l 486 557 l 486 644 l 768 767 l 867 767 l 867 142 l 990 101 l 939 0 m 181 1125 l 851 1125 l 851 1022 l 181 1022 l 181 1125 z "},"ų":{"ha":1006,"x_min":14,"x_max":992,"o":"m 879 -136 q 895 -171 879 -160 q 947 -183 911 -182 l 947 -282 l 840 -367 q 683 -308 738 -350 q 628 -204 628 -267 q 639 -146 628 -165 l 819 0 l 608 0 l 608 113 l 465 -4 q 378 -15 428 -15 q 203 42 268 -15 q 138 199 138 100 l 138 486 l 14 557 l 14 644 l 297 767 l 394 767 l 394 314 q 413 225 394 251 q 479 199 432 199 q 610 236 543 199 l 610 486 l 486 557 l 486 644 l 768 767 l 867 767 l 867 142 l 992 101 l 940 0 q 881 -136 881 -92 l 879 -136 z "},"ů":{"ha":1006,"x_min":14,"x_max":990,"o":"m 939 0 l 608 0 l 608 113 l 465 -4 q 378 -15 428 -15 q 203 42 268 -15 q 138 199 138 100 l 138 486 l 14 557 l 14 644 l 297 767 l 394 767 l 394 314 q 413 225 394 251 q 479 199 432 199 q 610 236 543 199 l 610 486 l 486 557 l 486 644 l 768 767 l 867 767 l 867 142 l 990 101 l 939 0 m 564 1238 q 706 1195 650 1238 q 763 1090 763 1153 q 717 994 763 1039 q 601 922 671 949 q 465 894 531 894 q 325 937 382 894 q 268 1042 268 979 q 314 1138 268 1093 q 429 1210 360 1183 q 564 1238 499 1238 m 483 1143 q 446 1131 460 1143 q 432 1097 432 1119 q 462 1019 432 1050 q 546 989 492 989 q 583 1001 569 989 q 597 1036 597 1014 q 567 1113 597 1082 q 483 1143 538 1143 z "},"v":{"ha":917,"x_min":-10,"x_max":885,"o":"m 885 663 l 526 0 l 331 0 l 129 492 l -10 572 l -10 661 l 318 778 l 371 568 l 518 214 l 676 517 l 474 650 l 524 751 l 885 751 l 885 663 z "},"w":{"ha":1350,"x_min":-10,"x_max":1318,"o":"m 1318 664 l 990 1 l 794 1 l 679 285 l 526 1 l 331 1 l 129 493 l -10 574 l -10 663 l 318 779 l 371 569 l 518 215 l 624 418 l 593 493 l 454 574 l 454 663 l 782 779 l 835 569 l 979 221 l 1117 513 l 907 650 l 957 751 l 1318 753 l 1318 664 z "},"ẃ":{"ha":1350,"x_min":-10,"x_max":1318,"o":"m 1318 664 l 990 1 l 794 1 l 679 285 l 526 1 l 331 1 l 129 493 l -10 574 l -10 663 l 318 779 l 371 569 l 518 215 l 624 418 l 593 493 l 454 574 l 454 663 l 782 779 l 835 569 l 979 221 l 1117 513 l 907 650 l 957 751 l 1318 753 l 1318 664 m 1006 1135 l 629 926 l 543 967 l 692 1239 l 968 1213 l 1006 1135 z "},"ŵ":{"ha":1350,"x_min":-10,"x_max":1318,"o":"m 1318 664 l 990 1 l 794 1 l 679 285 l 526 1 l 331 1 l 129 493 l -10 574 l -10 663 l 318 779 l 371 569 l 518 215 l 624 418 l 593 493 l 454 574 l 454 663 l 782 779 l 835 569 l 979 221 l 1117 513 l 907 650 l 957 751 l 1318 753 l 1318 664 m 1001 944 l 726 918 l 628 1081 l 375 918 l 318 1011 l 661 1232 l 1039 1024 l 1001 944 z "},"ẅ":{"ha":1350,"x_min":-10,"x_max":1318,"o":"m 443 925 q 351 962 388 925 q 315 1053 315 999 q 341 1126 315 1092 q 406 1180 367 1160 q 482 1200 446 1200 q 573 1163 538 1200 q 608 1071 608 1126 q 583 999 608 1032 q 518 945 557 965 q 443 925 479 925 m 864 925 q 772 962 808 925 q 736 1053 736 999 q 762 1126 736 1092 q 827 1180 788 1160 q 903 1200 867 1200 q 994 1163 958 1200 q 1029 1071 1029 1126 q 1003 999 1029 1032 q 939 945 978 965 q 864 925 900 925 m 1318 664 l 990 1 l 794 1 l 679 285 l 526 1 l 331 1 l 129 493 l -10 574 l -10 663 l 318 779 l 371 569 l 518 215 l 624 418 l 593 493 l 454 574 l 454 663 l 782 779 l 835 569 l 979 221 l 1117 513 l 907 650 l 957 751 l 1318 753 l 1318 664 z "},"ẁ":{"ha":1350,"x_min":-10,"x_max":1318,"o":"m 1318 664 l 990 1 l 794 1 l 679 285 l 526 1 l 331 1 l 129 493 l -10 574 l -10 663 l 318 779 l 371 569 l 518 215 l 624 418 l 593 493 l 454 574 l 454 663 l 782 779 l 835 569 l 979 221 l 1117 513 l 907 650 l 957 751 l 1318 753 l 1318 664 m 714 926 l 338 1135 l 376 1213 l 653 1239 l 801 967 l 714 926 z "},"x":{"ha":938,"x_min":15,"x_max":924,"o":"m 874 -1 l 588 -1 l 397 264 l 285 161 l 407 99 l 357 -3 l 29 -3 l 29 86 l 331 351 l 154 581 l 15 649 l 65 750 l 351 750 l 547 489 l 654 588 l 529 650 l 581 751 l 907 751 l 907 663 l 607 399 l 768 190 l 924 100 l 874 -1 z "},"y":{"ha":917,"x_min":-10,"x_max":886,"o":"m 886 663 l 528 0 l 190 -367 l 92 -292 q 234 -81 193 -169 q 282 119 275 8 l 129 492 l -10 572 l -10 661 l 318 778 l 371 568 l 518 214 l 676 517 l 474 650 l 524 751 l 886 751 l 886 663 z "},"ý":{"ha":917,"x_min":-10,"x_max":886,"o":"m 886 663 l 528 0 l 190 -367 l 92 -292 q 234 -81 193 -169 q 282 119 275 8 l 129 492 l -10 572 l -10 661 l 318 778 l 371 568 l 518 214 l 676 517 l 474 650 l 524 751 l 886 751 l 886 663 m 785 1135 l 408 926 l 322 967 l 471 1239 l 747 1213 l 785 1135 z "},"ŷ":{"ha":917,"x_min":-10,"x_max":886,"o":"m 886 663 l 528 0 l 190 -367 l 92 -292 q 234 -81 193 -169 q 282 119 275 8 l 129 492 l -10 572 l -10 661 l 318 778 l 371 568 l 518 214 l 676 517 l 474 650 l 524 751 l 886 751 l 886 663 m 781 944 l 506 918 l 407 1081 l 154 918 l 97 1011 l 440 1232 l 818 1024 l 781 944 z "},"ÿ":{"ha":917,"x_min":-10,"x_max":886,"o":"m 224 925 q 132 962 168 925 q 96 1053 96 999 q 122 1126 96 1092 q 187 1180 147 1160 q 263 1200 226 1200 q 353 1163 318 1200 q 389 1071 389 1126 q 363 999 389 1032 q 299 945 338 965 q 224 925 260 925 m 644 925 q 553 962 589 925 q 517 1053 517 999 q 542 1126 517 1092 q 608 1180 568 1160 q 683 1200 647 1200 q 774 1163 739 1200 q 810 1071 810 1126 q 784 999 810 1032 q 719 945 758 965 q 644 925 681 925 m 886 663 l 528 0 l 190 -367 l 92 -292 q 234 -81 193 -169 q 282 119 275 8 l 129 492 l -10 572 l -10 661 l 318 778 l 371 568 l 518 214 l 676 517 l 474 650 l 524 751 l 886 751 l 886 663 z "},"ỳ":{"ha":917,"x_min":-10,"x_max":886,"o":"m 886 663 l 528 0 l 190 -367 l 92 -292 q 234 -81 193 -169 q 282 119 275 8 l 129 492 l -10 572 l -10 661 l 318 778 l 371 568 l 518 214 l 676 517 l 474 650 l 524 751 l 886 751 l 886 663 m 493 926 l 117 1135 l 156 1213 l 432 1239 l 581 967 l 493 926 z "},"z":{"ha":911,"x_min":86,"x_max":825,"o":"m 669 257 l 725 382 l 813 357 l 813 -25 l 690 0 l 86 0 l 86 99 l 497 494 l 238 494 l 185 383 l 99 408 l 99 776 l 219 751 l 825 751 l 825 653 l 415 257 l 669 257 z "},"ź":{"ha":911,"x_min":86,"x_max":825,"o":"m 669 257 l 725 382 l 813 357 l 813 -25 l 690 0 l 86 0 l 86 99 l 497 494 l 238 494 l 185 383 l 99 408 l 99 776 l 219 751 l 825 751 l 825 653 l 415 257 l 669 257 m 800 1135 l 424 926 l 338 967 l 486 1239 l 763 1213 l 800 1135 z "},"ž":{"ha":911,"x_min":86,"x_max":825,"o":"m 669 257 l 725 382 l 813 357 l 813 -25 l 690 0 l 86 0 l 86 99 l 497 494 l 238 494 l 185 383 l 99 408 l 99 776 l 219 751 l 825 751 l 825 653 l 415 257 l 669 257 m 475 925 l 97 1135 l 136 1213 l 410 1239 l 508 1076 l 761 1239 l 818 1147 l 475 925 z "},"ż":{"ha":911,"x_min":86,"x_max":825,"o":"m 669 257 l 725 382 l 813 357 l 813 -25 l 690 0 l 86 0 l 86 99 l 497 494 l 238 494 l 185 383 l 99 408 l 99 776 l 219 751 l 825 751 l 825 653 l 415 257 l 669 257 m 485 1197 q 591 1156 550 1197 q 632 1056 632 1115 q 602 976 632 1013 q 527 917 572 939 q 440 894 482 894 q 334 935 376 894 q 292 1036 292 976 q 322 1116 292 1079 q 397 1175 351 1153 q 485 1197 443 1197 z "},"ﬁ":{"ha":1149,"x_min":35,"x_max":1133,"o":"m 1083 0 l 751 0 l 751 517 l 636 607 l 435 607 l 435 156 l 651 101 l 601 0 l 54 0 l 54 89 l 178 194 l 178 607 l 35 607 l 35 710 l 178 710 l 178 813 q 244 1018 178 922 q 408 1170 310 1114 q 597 1226 507 1226 q 801 1215 694 1226 q 949 1183 907 1204 q 1007 1131 986 1165 q 1028 1056 1028 1096 q 998 976 1028 1013 q 922 917 968 939 q 835 894 876 894 q 700 975 761 894 q 631 1042 664 1025 q 533 1058 597 1058 q 461 1019 488 1058 q 435 907 435 981 l 435 710 l 654 710 l 910 778 l 1008 778 l 1008 142 l 1133 101 l 1083 0 z "},"ﬂ":{"ha":1149,"x_min":35,"x_max":1133,"o":"m 1083 0 l 751 0 l 751 942 q 656 1027 713 996 q 540 1058 599 1058 q 463 1019 492 1058 q 435 907 435 979 l 435 710 l 663 710 l 663 607 l 435 607 l 435 156 l 651 101 l 601 0 l 54 0 l 54 89 l 178 194 l 178 607 l 35 607 l 35 710 l 178 710 l 178 813 q 245 1018 178 922 q 414 1170 313 1114 q 608 1226 515 1226 q 784 1222 685 1226 q 933 1213 883 1218 l 1008 1213 l 1008 142 l 1133 101 l 1083 0 z "},"ª":{"ha":811,"x_min":61,"x_max":800,"o":"m 757 576 l 475 576 l 475 667 l 341 574 q 282 566 318 566 q 114 616 166 566 q 62 738 62 667 q 90 818 62 778 q 170 891 118 858 l 475 891 l 475 895 q 441 976 475 949 q 352 1002 408 1002 q 124 952 271 1002 l 89 1017 l 252 1133 q 399 1150 314 1150 q 616 1095 539 1150 q 693 935 693 1040 l 693 689 l 799 652 l 757 576 m 350 722 q 475 762 405 722 l 475 815 l 290 815 q 277 774 277 796 q 296 736 277 750 q 350 722 315 722 z "},"º":{"ha":853,"x_min":74,"x_max":779,"o":"m 468 1150 q 629 1114 558 1150 q 739 1015 699 1078 q 778 876 778 952 q 717 722 778 794 q 563 608 656 650 q 384 566 470 566 q 225 602 296 566 q 114 700 154 638 q 75 840 75 763 q 136 995 75 923 q 290 1108 198 1066 q 468 1150 382 1150 m 400 1020 q 334 987 357 1020 q 311 890 311 955 q 348 751 311 806 q 453 696 385 696 q 519 730 496 696 q 542 827 542 763 q 505 966 542 912 q 400 1020 468 1020 z "},"Δ":{"ha":1214,"x_min":61,"x_max":1150,"o":"m 1150 0 l 61 0 l 61 89 l 453 1049 l 722 1119 l 1150 76 l 1150 0 m 531 883 l 221 119 l 840 119 l 531 883 z "},"Ω":{"ha":1358,"x_min":75,"x_max":1283,"o":"m 1256 307 l 1256 -25 l 1149 0 l 726 0 l 726 469 q 856 499 797 472 q 949 569 915 525 q 983 665 983 614 q 898 867 983 789 q 647 946 813 946 q 510 919 572 946 q 411 848 447 893 q 375 749 375 803 q 440 565 375 644 q 631 469 506 486 l 631 0 l 210 0 l 103 -25 l 103 307 l 189 343 l 358 119 l 407 119 l 407 322 q 165 460 256 364 q 75 682 75 557 q 178 901 75 800 q 435 1060 282 1001 q 728 1119 589 1119 q 1018 1069 892 1119 q 1214 930 1144 1018 q 1283 731 1283 842 q 1189 524 1283 619 q 951 368 1094 428 l 951 119 l 1000 119 l 1169 343 l 1256 307 z "},"μ":{"ha":978,"x_min":39,"x_max":928,"o":"m 847 251 q 869 168 847 214 q 928 82 892 122 l 688 -14 l 590 -14 l 590 113 l 447 -4 q 376 -15 415 -14 l 376 -87 q 398 -170 375 -124 q 457 -257 421 -217 l 218 -353 l 119 -353 l 119 501 q 98 584 121 538 q 39 671 75 631 l 279 767 l 376 767 l 376 314 q 395 225 376 251 q 461 199 414 199 q 592 236 525 199 l 592 501 q 569 585 592 539 q 511 671 547 631 l 750 767 l 849 767 l 849 251 l 847 251 z "},"π":{"ha":1092,"x_min":0,"x_max":1042,"o":"m 893 249 q 915 166 893 213 q 974 79 938 119 l 761 -14 l 664 -14 l 664 493 l 507 493 l 507 0 l 197 0 l 197 86 q 256 174 233 128 q 278 256 278 219 l 278 493 l 253 493 q 161 481 206 493 q 67 439 117 468 l 0 582 l 214 751 l 1042 751 l 1042 493 l 893 493 l 893 249 z "},"ॲ":{"ha":1532,"x_min":89,"x_max":1833,"o":"m 1444 875 l 1444 -12 l 1346 -12 l 1122 115 l 1188 197 l 1188 425 q 1100 386 1144 397 q 997 375 1056 375 q 926 381 958 375 q 866 284 917 331 q 743 208 815 238 q 599 179 671 179 q 531 183 571 179 q 458 190 490 186 l 89 406 l 153 489 l 239 440 q 476 378 346 378 q 561 392 519 378 q 629 430 603 407 q 656 478 656 453 q 619 545 654 513 q 497 624 583 578 l 497 721 q 567 780 542 744 q 592 857 592 815 q 578 900 592 886 q 536 914 565 914 q 433 876 488 914 q 333 771 379 838 l 118 890 l 118 989 q 268 1074 172 1040 q 453 1107 364 1107 q 649 1058 553 1107 q 805 931 744 1008 q 865 772 865 853 q 833 676 865 724 q 746 594 801 629 l 779 574 q 888 542 847 542 q 1047 603 967 542 q 1188 772 1126 665 l 1188 874 l 1125 874 l 908 994 l 908 1092 l 1481 1092 l 1696 972 l 1696 875 l 1444 875 m 1113 1632 q 1101 1551 1101 1590 q 1144 1476 1101 1500 q 1271 1453 1186 1453 q 1445 1502 1374 1453 q 1556 1633 1517 1551 l 1607 1700 l 1833 1568 q 1751 1428 1815 1490 q 1586 1331 1686 1367 q 1365 1296 1486 1296 q 1109 1341 1235 1296 q 904 1458 983 1386 q 825 1604 825 1529 q 833 1674 825 1640 l 899 1757 l 1113 1632 z "},"ऄ":{"ha":1532,"x_min":-286,"x_max":1696,"o":"m 1444 875 l 1444 -12 l 1346 -12 l 1122 115 l 1188 197 l 1188 425 q 1100 386 1144 397 q 997 375 1056 375 q 926 381 958 375 q 866 284 917 331 q 743 208 815 238 q 599 179 671 179 q 531 183 571 179 q 458 190 490 186 l 89 406 l 153 489 l 239 440 q 476 378 346 378 q 561 392 519 378 q 629 430 603 407 q 656 478 656 453 q 619 545 654 513 q 497 624 583 578 l 497 721 q 567 780 542 744 q 592 857 592 815 q 578 900 592 886 q 536 914 565 914 q 433 876 488 914 q 333 771 379 838 l 118 890 l 118 989 q 268 1074 172 1040 q 453 1107 364 1107 q 649 1058 553 1107 q 805 931 744 1008 q 865 772 865 853 q 833 676 865 724 q 746 594 801 629 l 779 574 q 888 542 847 542 q 1047 603 967 542 q 1188 772 1126 665 l 1188 874 l 1125 874 l 908 994 l 908 1092 l 1186 1092 l 1047 1206 q 881 1307 957 1279 q 726 1335 806 1335 q 574 1317 661 1335 q 518 1307 567 1315 q 413 1299 469 1299 q 175 1343 285 1299 q -57 1488 65 1388 l -286 1679 l -217 1758 l -79 1646 q 86 1545 10 1574 q 242 1517 163 1517 q 394 1533 300 1517 q 556 1551 485 1551 q 793 1507 683 1551 q 1025 1363 903 1463 l 1353 1092 l 1479 1092 l 1696 972 l 1696 875 l 1444 875 z "},"अ":{"ha":1532,"x_min":89,"x_max":1696,"o":"m 1444 875 l 1444 -12 l 1346 -12 l 1122 115 l 1188 197 l 1188 425 q 1100 386 1144 397 q 997 375 1056 375 q 926 381 958 375 q 866 284 917 331 q 743 208 815 238 q 599 179 671 179 q 531 183 571 179 q 458 190 490 186 l 89 406 l 153 489 l 239 440 q 476 378 346 378 q 561 392 519 378 q 629 430 603 407 q 656 478 656 453 q 619 545 654 513 q 497 624 583 578 l 497 721 q 567 780 542 744 q 592 857 592 815 q 578 900 592 886 q 536 914 565 914 q 433 876 488 914 q 333 771 379 838 l 118 890 l 118 989 q 268 1074 172 1040 q 453 1107 364 1107 q 649 1058 553 1107 q 805 931 744 1008 q 865 772 865 853 q 833 676 865 724 q 746 594 801 629 l 779 574 q 888 542 847 542 q 1047 603 967 542 q 1188 772 1126 665 l 1188 874 l 1125 874 l 908 994 l 908 1092 l 1481 1092 l 1696 972 l 1696 875 l 1444 875 z "},"आ":{"ha":2022,"x_min":89,"x_max":2188,"o":"m 1936 875 l 1936 -12 l 1838 -12 l 1614 115 l 1679 197 l 1679 875 l 1444 875 l 1444 -12 l 1346 -12 l 1122 115 l 1188 197 l 1188 425 q 1100 386 1144 397 q 997 375 1056 375 q 926 381 958 375 q 866 284 917 331 q 743 208 815 238 q 599 179 671 179 q 531 183 571 179 q 458 190 490 186 l 89 406 l 153 489 l 239 440 q 476 378 346 378 q 561 392 519 378 q 629 430 603 407 q 656 478 656 453 q 619 545 654 513 q 497 624 583 578 l 497 721 q 567 780 542 744 q 592 857 592 815 q 578 900 592 886 q 536 914 565 914 q 433 876 488 914 q 333 771 379 838 l 118 890 l 118 989 q 268 1074 172 1040 q 453 1107 364 1107 q 649 1058 553 1107 q 805 931 744 1008 q 865 772 865 853 q 833 676 865 724 q 746 594 801 629 l 779 574 q 888 542 847 542 q 1047 603 967 542 q 1188 772 1126 665 l 1188 874 l 1125 874 l 908 994 l 908 1092 l 1971 1092 l 2188 972 l 2188 875 l 1936 875 z "},"इ":{"ha":1121,"x_min":-185,"x_max":1382,"o":"m 589 581 q 531 559 556 581 q 507 508 507 538 q 518 467 507 489 q 602 490 568 483 q 669 497 636 497 q 873 449 765 497 q 1053 328 981 400 q 1126 190 1126 256 q 1058 94 1126 142 q 880 15 990 46 q 651 -17 769 -15 l 771 -86 q 1068 -156 886 -156 q 1168 -144 1115 -156 l 1364 -254 l 1364 -351 q 1229 -369 1292 -369 q 1074 -349 1149 -369 q 931 -293 1000 -328 q 758 -199 861 -258 l 322 56 q 126 197 201 113 q 50 371 50 281 q 74 449 50 418 q 140 479 97 479 q 268 413 204 479 q 381 231 332 347 q 583 186 479 186 q 716 199 657 186 q 808 232 775 211 q 842 276 842 253 q 824 310 842 294 q 783 325 806 325 q 701 276 742 325 q 444 354 550 300 q 285 475 338 408 q 233 606 233 542 q 270 699 233 653 q 367 774 307 744 q 488 803 426 803 l 711 803 l 711 874 l 33 874 l -185 994 l -185 1092 l 1164 1092 l 1382 972 l 1382 874 l 968 874 l 968 585 l 589 585 l 589 581 z "},"ई":{"ha":1121,"x_min":-185,"x_max":1382,"o":"m 589 581 q 531 559 556 581 q 507 508 507 538 q 518 467 507 489 q 602 490 568 483 q 669 497 636 497 q 873 449 765 497 q 1053 328 981 400 q 1126 190 1126 256 q 1058 94 1126 142 q 880 15 990 46 q 651 -17 769 -15 l 771 -86 q 1068 -156 886 -156 q 1168 -144 1115 -156 l 1364 -254 l 1364 -351 q 1229 -369 1292 -369 q 1074 -349 1149 -369 q 931 -293 1000 -328 q 758 -199 861 -258 l 322 56 q 126 197 201 113 q 50 371 50 281 q 74 449 50 418 q 140 479 97 479 q 268 413 204 479 q 381 231 332 347 q 583 186 479 186 q 716 199 657 186 q 808 232 775 211 q 842 276 842 253 q 824 310 842 294 q 783 325 806 325 q 701 276 742 325 q 444 354 550 300 q 285 475 338 408 q 233 606 233 542 q 270 699 233 653 q 367 774 307 744 q 488 803 426 803 l 711 803 l 711 874 l 33 874 l -185 994 l -185 1092 l 729 1092 l 463 1310 q 453 1425 453 1364 q 498 1611 453 1528 q 631 1744 543 1694 q 846 1793 719 1793 q 979 1781 911 1793 l 1188 1615 l 1146 1529 q 924 1594 1021 1594 q 779 1533 828 1594 q 731 1369 731 1472 q 838 1139 731 1224 l 894 1092 l 1164 1092 l 1382 972 l 1382 874 l 968 874 l 968 585 l 589 585 l 589 581 z "},"उ":{"ha":946,"x_min":-182,"x_max":1049,"o":"m 632 872 q 703 700 703 788 q 681 603 703 650 q 621 522 660 557 q 852 387 767 458 q 938 253 938 315 q 876 135 938 199 q 726 29 815 72 q 560 -14 636 -14 q 486 -10 528 -14 q 418 -3 444 -7 l 32 226 l 97 310 l 197 249 q 442 186 301 186 q 552 203 501 186 q 633 248 603 221 q 663 303 663 275 q 638 365 663 339 q 537 427 613 392 q 288 531 461 463 l 288 628 q 385 694 346 650 q 425 781 425 738 q 378 874 425 858 l 36 874 l -182 994 l -182 1092 l 831 1092 l 1049 972 l 1049 872 l 632 872 z "},"ऊ":{"ha":1606,"x_min":-182,"x_max":1807,"o":"m 631 872 q 701 700 701 788 q 680 603 701 650 q 619 522 658 557 q 678 496 656 508 q 798 642 754 594 q 909 722 842 689 q 1074 756 976 756 q 1272 709 1169 756 q 1444 583 1375 663 q 1513 413 1513 504 q 1447 249 1513 318 q 1274 158 1382 179 l 1067 279 l 1067 376 q 1138 369 1100 369 q 1210 401 1185 369 q 1235 490 1235 433 q 1168 586 1235 586 q 1061 546 1108 586 q 943 415 1014 506 l 890 350 q 938 253 938 299 q 876 135 938 199 q 726 29 815 72 q 560 -14 636 -14 q 486 -10 528 -14 q 418 -3 444 -7 l 32 226 l 97 310 l 197 249 q 442 186 301 186 q 552 203 501 186 q 633 248 603 221 q 663 303 663 275 q 638 365 663 339 q 537 427 613 392 q 288 531 461 463 l 288 628 q 385 694 346 650 q 425 781 425 738 q 378 874 425 858 l 36 874 l -182 994 l -182 1092 l 1590 1092 l 1807 972 l 1807 874 l 631 872 z "},"ऋ":{"ha":2057,"x_min":-204,"x_max":2260,"o":"m 1129 564 q 1206 553 1154 553 q 1267 582 1236 553 q 1326 660 1299 611 l 1326 658 q 1423 774 1361 731 q 1550 817 1485 817 q 1703 787 1618 817 q 1849 708 1789 757 q 1908 610 1908 660 q 1815 501 1908 546 q 1581 432 1722 456 q 1678 310 1599 367 l 1678 213 q 1607 219 1633 219 q 1535 183 1560 219 q 1510 83 1510 147 q 1576 -36 1510 -36 q 1681 30 1631 -36 q 1771 211 1732 96 l 1978 92 l 1978 -7 q 1834 -161 1906 -117 q 1671 -206 1763 -206 q 1472 -156 1575 -206 q 1301 -22 1369 -106 q 1232 161 1232 63 q 1253 266 1232 217 q 1315 353 1275 315 q 1299 428 1304 390 q 1269 426 1289 426 q 1131 472 1206 426 l 1131 -15 l 1032 -15 l 808 113 l 874 194 l 874 315 q 568 146 744 231 l 353 265 l 353 363 q 694 511 547 432 q 631 542 661 533 q 568 551 601 551 q 418 521 497 551 q 243 429 339 490 l 49 538 l 49 635 q 267 728 192 703 q 411 753 343 753 q 559 727 485 753 q 732 622 633 701 l 796 571 l 874 624 l 874 874 l 11 874 l -204 994 l -204 1092 l 2042 1092 l 2260 972 l 2260 874 l 1382 874 l 1129 871 l 1129 564 z "},"ॠ":{"ha":2057,"x_min":-204,"x_max":2260,"o":"m 1129 565 q 1206 554 1154 554 q 1267 583 1236 554 q 1326 661 1299 613 l 1326 660 q 1423 775 1361 732 q 1550 818 1485 818 q 1703 788 1618 818 q 1849 710 1789 758 q 1908 611 1908 661 q 1815 502 1908 547 q 1581 433 1722 457 q 1638 344 1593 386 l 1774 269 l 1774 171 q 1697 181 1733 181 q 1602 163 1640 181 q 1564 118 1564 146 q 1567 101 1564 113 l 1750 22 l 1750 -76 q 1624 -109 1672 -76 q 1574 -197 1575 -142 q 1592 -234 1574 -219 q 1642 -249 1611 -249 q 1793 -119 1728 -244 l 2000 -239 l 2000 -337 q 1908 -378 1956 -365 q 1794 -392 1860 -392 q 1568 -350 1678 -392 q 1390 -239 1458 -308 q 1321 -92 1321 -169 q 1415 46 1321 -12 q 1278 199 1278 111 q 1332 308 1278 261 q 1299 428 1310 367 q 1269 426 1289 426 q 1131 472 1206 426 l 1131 -15 l 1032 -15 l 808 113 l 874 194 l 874 315 q 568 146 744 231 l 353 265 l 353 363 q 694 511 547 432 q 631 542 661 533 q 568 551 601 551 q 418 521 497 551 q 243 429 339 490 l 49 538 l 49 635 q 267 728 192 703 q 411 753 343 753 q 559 727 485 753 q 732 622 633 701 l 796 571 l 874 624 l 874 874 l 11 874 l -204 994 l -204 1092 l 2042 1092 l 2260 972 l 2260 874 l 1129 872 l 1129 565 z "},"ऌ":{"ha":1388,"x_min":-201,"x_max":1589,"o":"m 1047 710 q 1224 584 1154 664 q 1294 414 1294 504 q 1263 329 1294 368 q 1164 232 1231 290 q 1049 116 1088 167 q 1010 1 1010 65 q 1071 -86 1010 -86 q 1222 89 1153 -86 l 1431 -31 l 1431 -129 q 1317 -209 1375 -185 q 1196 -233 1260 -233 q 1001 -185 1101 -233 q 833 -58 900 -136 q 767 99 767 19 q 801 201 767 154 q 906 315 836 249 q 1006 424 972 379 q 1039 519 1039 468 q 1021 584 1039 561 q 967 607 1003 607 q 885 580 924 607 q 819 515 847 553 q 750 417 790 478 q 711 358 731 385 l 549 453 l 549 551 l 561 568 q 504 586 539 586 q 405 540 444 586 q 365 419 365 494 q 391 317 365 365 q 474 224 417 269 l 597 124 l 532 40 l 99 396 q 89 478 89 433 q 125 611 89 547 q 233 715 161 675 q 407 756 306 756 q 663 686 542 756 q 792 750 721 738 l 792 874 l 15 874 l -201 994 l -201 1092 l 1372 1092 l 1589 972 l 1589 874 l 1047 872 l 1047 710 z "},"ॡ":{"ha":1388,"x_min":-201,"x_max":1589,"o":"m 1046 714 q 1223 587 1153 667 q 1293 411 1293 507 q 1265 338 1293 371 q 1186 264 1238 306 q 1116 199 1139 225 q 1093 142 1093 172 q 1118 89 1093 114 l 1226 31 l 1226 -67 q 1101 -99 1150 -65 q 1051 -181 1051 -132 q 1118 -236 1051 -236 q 1185 -206 1154 -236 q 1247 -119 1215 -176 l 1454 -239 l 1454 -337 q 1372 -370 1414 -360 q 1274 -381 1329 -381 q 1045 -339 1156 -381 q 866 -227 935 -297 q 797 -76 797 -157 q 901 92 797 19 q 810 219 810 150 q 835 284 810 256 q 914 351 861 313 q 1008 433 975 396 q 1040 525 1040 471 q 1022 585 1040 563 q 967 608 1004 608 q 858 558 907 608 q 750 415 810 507 q 713 360 717 365 l 550 454 l 550 553 l 563 569 q 506 586 539 586 q 406 540 446 586 q 367 419 367 494 q 392 317 367 365 q 475 224 418 269 l 599 124 l 533 40 l 100 396 q 90 478 90 433 q 126 611 90 547 q 235 715 163 675 q 408 756 307 756 q 663 686 542 756 q 792 750 721 738 l 792 874 l 15 874 l -201 994 l -201 1092 l 1372 1092 l 1589 972 l 1589 874 l 1046 876 l 1046 714 z "},"ऍ":{"ha":968,"x_min":-201,"x_max":1232,"o":"m 856 874 q 906 572 906 701 q 873 387 906 464 q 781 271 840 310 l 574 392 l 574 489 q 629 554 613 515 q 646 656 646 593 q 625 874 646 728 l 411 874 q 374 551 374 700 q 406 354 374 425 q 510 242 438 283 l 658 150 q 887 -75 824 54 q 954 -367 950 -204 l 856 -367 l 697 -303 q 656 -57 699 -168 q 522 108 614 54 l 339 219 q 162 377 210 296 q 114 568 114 458 q 158 874 114 689 l 18 874 l -201 994 l -201 1092 l 914 1092 l 1132 972 l 1131 874 l 856 874 m 511 1632 q 500 1551 500 1590 q 542 1476 500 1500 q 669 1453 585 1453 q 844 1502 772 1453 q 954 1633 915 1551 l 1006 1700 l 1232 1568 q 1149 1428 1214 1490 q 985 1331 1085 1367 q 764 1296 885 1296 q 508 1341 633 1296 q 303 1458 382 1386 q 224 1604 224 1529 q 232 1674 224 1640 l 297 1757 l 511 1632 z "},"ऎ":{"ha":968,"x_min":-887,"x_max":1132,"o":"m 856 874 q 906 572 906 701 q 873 387 906 464 q 781 271 840 310 l 574 392 l 574 489 q 629 554 613 515 q 646 656 646 593 q 625 874 646 728 l 411 874 q 374 551 374 700 q 406 354 374 425 q 510 242 438 283 l 658 150 q 887 -75 824 54 q 954 -367 950 -204 l 856 -367 l 697 -303 q 656 -57 699 -168 q 522 108 614 54 l 339 219 q 162 377 210 296 q 114 568 114 458 q 158 874 114 689 l 18 874 l -201 994 l -201 1092 l 585 1092 l 446 1206 q 280 1307 356 1279 q 125 1335 204 1335 q -26 1317 61 1335 q -84 1307 -35 1315 q -190 1299 -133 1299 q -427 1343 -317 1299 q -658 1488 -537 1388 l -887 1679 l -818 1758 l -681 1646 q -515 1545 -592 1574 q -360 1517 -439 1517 q -207 1533 -301 1517 q -46 1551 -117 1551 q 192 1507 82 1551 q 424 1363 301 1463 l 751 1092 l 914 1092 l 1132 972 l 1131 874 l 856 874 z "},"ए":{"ha":968,"x_min":-201,"x_max":1132,"o":"m 856 874 q 906 572 906 701 q 873 387 906 464 q 781 271 840 310 l 574 392 l 574 489 q 629 554 613 515 q 646 656 646 593 q 625 874 646 728 l 411 874 q 374 551 374 700 q 406 354 374 425 q 510 242 438 283 l 658 150 q 887 -75 824 54 q 954 -367 950 -204 l 856 -367 l 697 -303 q 656 -57 699 -168 q 522 108 614 54 l 339 219 q 162 377 210 296 q 114 568 114 458 q 158 874 114 689 l 18 874 l -201 994 l -201 1092 l 914 1092 l 1132 972 l 1131 874 l 856 874 z "},"ऐ":{"ha":968,"x_min":-328,"x_max":1132,"o":"m 856 874 q 906 572 906 701 q 873 387 906 464 q 781 271 840 310 l 574 392 l 574 489 q 629 554 613 515 q 646 656 646 593 q 625 874 646 728 l 411 874 q 374 551 374 700 q 406 354 374 425 q 510 242 438 283 l 658 150 q 887 -75 824 54 q 954 -367 950 -204 l 856 -367 l 697 -303 q 656 -57 699 -168 q 522 108 614 54 l 339 219 q 162 377 210 296 q 114 568 114 458 q 158 874 114 689 l 18 874 l -201 994 l -201 1092 l 585 1092 l 344 1285 q 177 1388 253 1360 q 22 1415 101 1415 q -111 1397 -49 1415 l -328 1517 l -328 1614 q -147 1632 -237 1632 q 89 1588 -21 1632 q 321 1443 199 1543 l 751 1092 l 914 1092 l 1132 972 l 1131 874 l 856 874 z "},"ऑ":{"ha":2022,"x_min":89,"x_max":2325,"o":"m 2325 1568 q 2242 1428 2307 1490 q 2078 1331 2178 1367 q 1857 1296 1978 1296 q 1601 1341 1726 1296 q 1396 1458 1475 1386 q 1317 1604 1317 1529 q 1325 1674 1317 1640 l 1390 1757 l 1604 1632 q 1593 1551 1593 1590 q 1635 1476 1593 1500 q 1763 1453 1678 1453 q 1937 1502 1865 1453 q 2047 1633 2008 1551 l 2099 1700 l 2325 1568 m 2188 974 l 2188 875 l 1936 875 l 1936 -12 l 1838 -12 l 1614 115 l 1679 197 l 1679 875 l 1444 875 l 1444 -12 l 1346 -12 l 1122 115 l 1188 197 l 1188 425 q 1100 386 1144 397 q 997 375 1056 375 q 926 381 958 375 q 866 284 917 331 q 743 208 815 238 q 599 179 671 179 q 531 183 571 179 q 458 190 490 186 l 89 406 l 153 489 l 239 440 q 476 378 346 378 q 561 392 519 378 q 629 430 603 407 q 656 478 656 453 q 619 545 654 513 q 497 624 583 578 l 497 721 q 567 780 542 744 q 592 857 592 815 q 578 900 592 886 q 536 914 565 914 q 433 876 488 914 q 333 771 379 838 l 118 890 l 118 989 q 268 1074 172 1040 q 453 1107 364 1107 q 649 1058 553 1107 q 805 931 744 1008 q 865 772 865 853 q 833 676 865 724 q 746 594 801 629 l 779 574 q 888 542 847 542 q 1047 603 967 542 q 1188 772 1126 665 l 1188 874 l 1125 874 l 908 994 l 908 1092 l 1936 1092 l 1971 1093 l 2188 974 z "},"ऒ":{"ha":2022,"x_min":89,"x_max":2188,"o":"m 1936 875 l 1936 -12 l 1838 -12 l 1614 115 l 1679 197 l 1679 875 l 1444 875 l 1444 -12 l 1346 -12 l 1122 115 l 1188 197 l 1188 425 q 1100 386 1144 397 q 997 375 1056 375 q 926 381 958 375 q 866 284 917 331 q 743 208 815 238 q 599 179 671 179 q 531 183 571 179 q 458 190 490 186 l 89 406 l 153 489 l 239 440 q 476 378 346 378 q 561 392 519 378 q 629 430 603 407 q 656 478 656 453 q 619 545 654 513 q 497 624 583 578 l 497 721 q 567 780 542 744 q 592 857 592 815 q 578 900 592 886 q 536 914 565 914 q 433 876 488 914 q 333 771 379 838 l 118 890 l 118 989 q 268 1074 172 1040 q 453 1107 364 1107 q 649 1058 553 1107 q 805 931 744 1008 q 865 772 865 853 q 833 676 865 724 q 746 594 801 629 l 779 574 q 888 542 847 542 q 1047 603 967 542 q 1188 772 1126 665 l 1188 874 l 1125 874 l 908 994 l 908 1092 l 1678 1092 l 1539 1206 q 1373 1307 1449 1279 q 1218 1335 1297 1335 q 1065 1317 1153 1335 q 1010 1307 1058 1315 q 904 1299 961 1299 q 667 1343 776 1299 q 435 1488 557 1388 l 206 1679 l 275 1758 l 413 1646 q 578 1545 501 1574 q 733 1517 654 1517 q 886 1533 792 1517 q 1047 1551 976 1551 q 1285 1507 1175 1551 q 1517 1363 1394 1463 l 1844 1092 l 1971 1092 l 2188 972 l 2188 875 l 1936 875 z "},"ओ":{"ha":2022,"x_min":89,"x_max":2188,"o":"m 1936 875 l 1936 -12 l 1838 -12 l 1614 115 l 1679 197 l 1679 875 l 1444 875 l 1444 -12 l 1346 -12 l 1122 115 l 1188 197 l 1188 425 q 1100 386 1144 397 q 997 375 1056 375 q 926 381 958 375 q 866 284 917 331 q 743 208 815 238 q 599 179 671 179 q 531 183 571 179 q 458 190 490 186 l 89 406 l 153 489 l 239 440 q 476 378 346 378 q 561 392 519 378 q 629 430 603 407 q 656 478 656 453 q 619 545 654 513 q 497 624 583 578 l 497 721 q 567 780 542 744 q 592 857 592 815 q 578 900 592 886 q 536 914 565 914 q 433 876 488 914 q 333 771 379 838 l 118 890 l 118 989 q 268 1074 172 1040 q 453 1107 364 1107 q 649 1058 553 1107 q 805 931 744 1008 q 865 772 865 853 q 833 676 865 724 q 746 594 801 629 l 779 574 q 888 542 847 542 q 1047 603 967 542 q 1188 772 1126 665 l 1188 874 l 1125 874 l 908 994 l 908 1092 l 1678 1092 l 1438 1285 q 1270 1388 1346 1360 q 1115 1415 1194 1415 q 982 1397 1044 1415 l 767 1517 l 767 1614 q 946 1632 854 1632 q 1182 1588 1072 1632 q 1414 1443 1292 1543 l 1844 1092 l 1971 1092 l 2188 972 l 2188 875 l 1936 875 z "},"औ":{"ha":2022,"x_min":89,"x_max":2188,"o":"m 1936 875 l 1936 -12 l 1838 -12 l 1614 115 l 1679 197 l 1679 875 l 1444 875 l 1444 -12 l 1346 -12 l 1122 115 l 1188 197 l 1188 425 q 1100 386 1144 397 q 997 375 1056 375 q 926 381 958 375 q 866 284 917 331 q 743 208 815 238 q 599 179 671 179 q 531 183 571 179 q 458 190 490 186 l 89 406 l 153 489 l 239 440 q 476 378 346 378 q 561 392 519 378 q 629 430 603 407 q 656 478 656 453 q 619 545 654 513 q 497 624 583 578 l 497 721 q 567 780 542 744 q 592 857 592 815 q 578 900 592 886 q 536 914 565 914 q 433 876 488 914 q 333 771 379 838 l 118 890 l 118 989 q 268 1074 172 1040 q 453 1107 364 1107 q 649 1058 553 1107 q 805 931 744 1008 q 865 772 865 853 q 833 676 865 724 q 746 594 801 629 l 779 574 q 888 542 847 542 q 1047 603 967 542 q 1188 772 1126 665 l 1188 874 l 1125 874 l 908 994 l 908 1092 l 1451 1092 l 1357 1168 q 1191 1269 1267 1242 q 1036 1297 1115 1297 q 901 1279 965 1297 l 686 1400 l 686 1497 q 867 1515 776 1515 q 1103 1471 993 1515 q 1335 1326 1214 1426 l 1618 1092 l 1796 1092 l 1357 1446 q 1191 1547 1267 1519 q 1036 1575 1115 1575 q 901 1557 965 1575 l 686 1678 l 686 1775 q 867 1793 776 1793 q 1103 1749 993 1793 q 1335 1604 1213 1704 l 1963 1092 l 1971 1092 l 2188 972 l 2188 875 l 1936 875 z "},"ॳ":{"ha":1532,"x_min":89,"x_max":1696,"o":"m 1444 875 l 1444 -12 l 1346 -12 l 1122 115 l 1188 197 l 1188 425 q 1100 386 1144 397 q 997 375 1056 375 q 926 381 958 375 q 866 284 917 331 q 743 208 815 238 q 599 179 671 179 q 531 183 571 179 q 458 190 490 186 l 89 406 l 153 489 l 239 440 q 476 378 346 378 q 561 392 519 378 q 629 430 603 407 q 656 478 656 453 q 619 545 654 513 q 497 624 583 578 l 497 721 q 567 780 542 744 q 592 857 592 815 q 578 900 592 886 q 536 914 565 914 q 433 876 488 914 q 333 771 379 838 l 118 890 l 118 989 q 268 1074 172 1040 q 453 1107 364 1107 q 649 1058 553 1107 q 805 931 744 1008 q 865 772 865 853 q 833 676 865 724 q 746 594 801 629 l 779 574 q 888 542 847 542 q 1047 603 967 542 q 1188 772 1126 665 l 1188 874 l 1125 874 l 908 994 l 908 1092 l 1481 1092 l 1696 972 l 1696 875 l 1444 875 m 1444 1251 l 1444 1847 l 1286 1910 l 1188 1910 l 1188 1314 l 1347 1251 l 1444 1251 z "},"ॴ":{"ha":2022,"x_min":89,"x_max":2188,"o":"m 1936 875 l 1936 -12 l 1838 -12 l 1614 115 l 1679 197 l 1679 875 l 1444 875 l 1444 -12 l 1346 -12 l 1122 115 l 1188 197 l 1188 425 q 1100 386 1144 397 q 997 375 1056 375 q 926 381 958 375 q 866 284 917 331 q 743 208 815 238 q 599 179 671 179 q 531 183 571 179 q 458 190 490 186 l 89 406 l 153 489 l 239 440 q 476 378 346 378 q 561 392 519 378 q 629 430 603 407 q 656 478 656 453 q 619 545 654 513 q 497 624 583 578 l 497 721 q 567 780 542 744 q 592 857 592 815 q 578 900 592 886 q 536 914 565 914 q 433 876 488 914 q 333 771 379 838 l 118 890 l 118 989 q 268 1074 172 1040 q 453 1107 364 1107 q 649 1058 553 1107 q 805 931 744 1008 q 865 772 865 853 q 833 676 865 724 q 746 594 801 629 l 779 574 q 888 542 847 542 q 1047 603 967 542 q 1188 772 1126 665 l 1188 874 l 1125 874 l 908 994 l 908 1092 l 1679 1092 l 1679 1632 l 1778 1632 l 1936 1569 l 1936 1092 l 1971 1092 l 2188 972 l 2188 875 l 1936 875 z "},"ॵ":{"ha":2022,"x_min":89,"x_max":2188,"o":"m 1936 876 l 1936 -11 l 1838 -11 l 1614 117 l 1679 199 l 1679 876 l 1444 876 l 1444 -11 l 1346 -11 l 1122 117 l 1188 199 l 1188 426 q 1100 388 1144 399 q 997 376 1056 376 q 926 382 958 376 q 866 285 917 332 q 743 210 815 239 q 599 181 671 181 q 531 184 571 181 q 458 192 490 188 l 89 407 l 153 490 l 239 442 q 476 379 346 379 q 561 394 519 379 q 629 431 603 408 q 656 479 656 454 q 619 547 654 514 q 497 625 583 579 l 497 722 q 567 781 542 746 q 592 858 592 817 q 578 901 592 888 q 536 915 565 915 q 433 877 488 915 q 333 772 379 839 l 118 892 l 118 990 q 268 1075 172 1042 q 453 1108 364 1108 q 649 1059 553 1108 q 805 932 744 1010 q 865 774 865 854 q 833 678 865 725 q 746 596 801 631 l 779 575 q 888 543 847 543 q 1047 605 967 543 q 1188 774 1126 667 l 1188 875 l 1125 875 l 908 996 l 908 1093 l 1676 1093 l 1538 1207 q 1372 1308 1447 1281 q 1217 1336 1296 1336 q 1064 1318 1151 1336 q 1008 1308 1057 1317 q 903 1300 960 1300 q 665 1344 775 1300 q 433 1489 556 1389 l 204 1681 l 274 1760 l 411 1647 q 576 1547 500 1575 q 732 1518 653 1518 q 885 1535 790 1518 q 1046 1553 975 1553 q 1283 1508 1174 1553 q 1515 1364 1393 1464 l 1811 1119 q 1835 1206 1835 1158 q 1807 1273 1835 1246 q 1724 1336 1779 1300 q 1629 1409 1661 1375 q 1597 1494 1597 1443 q 1641 1607 1597 1556 q 1768 1697 1685 1658 l 1975 1578 l 1975 1479 q 1899 1444 1924 1465 q 1875 1389 1875 1422 q 1902 1331 1875 1354 q 1983 1278 1929 1308 q 2080 1210 2047 1240 q 2113 1132 2113 1181 q 2067 1039 2113 1085 l 2188 972 l 2188 876 l 1936 876 z "},"ॶ":{"ha":1532,"x_min":89,"x_max":1696,"o":"m 1444 875 l 1444 -12 l 1346 -12 l 1122 115 l 1188 197 l 1188 425 q 1100 386 1144 397 q 997 375 1056 375 q 926 381 958 375 q 866 284 917 331 q 743 208 815 238 q 599 179 671 179 q 531 183 571 179 q 458 190 490 186 l 89 406 l 153 489 l 239 440 q 476 378 346 378 q 561 392 519 378 q 629 430 603 407 q 656 478 656 453 q 619 545 654 513 q 497 624 583 578 l 497 721 q 567 780 542 744 q 592 857 592 815 q 578 900 592 886 q 536 914 565 914 q 433 876 488 914 q 333 771 379 838 l 118 890 l 118 989 q 268 1074 172 1040 q 453 1107 364 1107 q 649 1058 553 1107 q 805 931 744 1008 q 865 772 865 853 q 833 676 865 724 q 746 594 801 629 l 779 574 q 888 542 847 542 q 1047 603 967 542 q 1188 772 1126 665 l 1188 874 l 1125 874 l 908 994 l 908 1092 l 1481 1092 l 1696 972 l 1696 875 l 1444 875 m 965 -175 q 1093 -145 1029 -175 q 1211 -64 1157 -115 l 1426 -185 l 1426 -282 q 1250 -344 1361 -321 q 1039 -367 1139 -367 q 864 -343 935 -367 l 668 -187 l 710 -101 q 854 -157 793 -139 q 965 -175 915 -175 z "},"ॷ":{"ha":1532,"x_min":89,"x_max":1696,"o":"m 1444 875 l 1444 -12 l 1346 -12 l 1122 115 l 1188 197 l 1188 425 q 1100 386 1144 397 q 997 375 1056 375 q 926 381 958 375 q 866 284 917 331 q 743 208 815 238 q 599 179 671 179 q 531 183 571 179 q 458 190 490 186 l 89 406 l 153 489 l 239 440 q 476 378 346 378 q 561 392 519 378 q 629 430 603 407 q 656 478 656 453 q 619 545 654 513 q 497 624 583 578 l 497 721 q 567 780 542 744 q 592 857 592 815 q 578 900 592 886 q 536 914 565 914 q 433 876 488 914 q 333 771 379 838 l 118 890 l 118 989 q 268 1074 172 1040 q 453 1107 364 1107 q 649 1058 553 1107 q 805 931 744 1008 q 865 772 865 853 q 833 676 865 724 q 746 594 801 629 l 779 574 q 888 542 847 542 q 1047 603 967 542 q 1188 772 1126 665 l 1188 874 l 1125 874 l 908 994 l 908 1092 l 1481 1092 l 1696 972 l 1696 875 l 1444 875 m 965 -174 q 1093 -144 1029 -174 q 1211 -62 1157 -114 l 1426 -183 l 1426 -281 q 1250 -342 1361 -319 q 1039 -365 1139 -365 q 864 -342 935 -365 l 668 -186 l 710 -100 q 854 -156 793 -137 q 965 -174 915 -174 m 965 -511 q 1093 -481 1029 -511 q 1211 -400 1157 -451 l 1426 -521 l 1426 -618 q 1250 -680 1361 -657 q 1039 -703 1139 -703 q 864 -679 935 -703 l 668 -524 l 710 -437 q 854 -493 793 -475 q 965 -511 915 -511 z "},"ा":{"ha":490,"x_min":-107,"x_max":656,"o":"m 404 874 l 404 -14 l 306 -14 l 82 114 l 147 196 l 147 874 l 108 874 l -107 994 l -107 1092 l 439 1092 l 656 972 l 656 874 l 404 874 z "},"ि":{"ha":490,"x_min":-108,"x_max":754,"o":"m 171 1503 q 487 1401 347 1503 q 754 1078 626 1300 l 669 1006 q 510 1212 599 1139 q 336 1285 421 1285 q 281 1266 299 1285 q 263 1215 263 1247 q 308 1092 263 1158 l 404 1092 l 404 989 l 408 985 l 403 985 l 403 -14 l 304 -14 l 81 114 l 146 196 l 146 874 l 38 874 l -108 994 l -108 1092 l 143 1092 q 31 1229 68 1161 q -7 1356 -7 1297 q 40 1463 -7 1422 q 171 1503 88 1503 z "},"ी":{"ha":490,"x_min":-486,"x_max":656,"o":"m 404 874 l 404 -14 l 306 -14 l 82 114 l 147 196 l 147 874 l 108 874 l -90 985 l -193 985 q -412 1176 -339 1076 q -486 1357 -486 1275 q -439 1463 -486 1422 q -308 1503 -392 1503 q 3 1404 -136 1503 q 267 1092 142 1306 l 439 1092 l 656 972 l 656 874 l 404 874 m 138 1092 q -1 1235 72 1185 q -143 1285 -74 1285 q -199 1266 -181 1285 q -218 1215 -218 1247 q -188 1120 -218 1174 q -107 1017 -158 1067 l -107 1092 l 138 1092 z "},"ॉ":{"ha":490,"x_min":-215,"x_max":793,"o":"m 404 874 l 404 -14 l 306 -14 l 82 114 l 147 196 l 147 874 l 108 874 l -107 994 l -107 1092 l 439 1092 l 656 972 l 656 874 l 404 874 m 72 1632 q 61 1551 61 1590 q 103 1476 61 1500 q 231 1453 146 1453 q 405 1502 333 1453 q 515 1633 476 1551 l 567 1700 l 793 1568 q 710 1428 775 1490 q 546 1331 646 1367 q 325 1296 446 1296 q 69 1341 194 1296 q -136 1458 -57 1386 q -215 1604 -215 1529 q -207 1674 -215 1640 l -142 1757 l 72 1632 z "},"ॊ":{"ha":490,"x_min":-1326,"x_max":656,"o":"m 404 874 l 404 -14 l 306 -14 l 82 114 l 147 196 l 147 874 l 108 874 l -107 994 l -107 1092 l 146 1092 l 7 1206 q -159 1307 -83 1279 q -314 1335 -235 1335 q -465 1317 -378 1335 q -523 1307 -474 1315 q -629 1299 -572 1299 q -866 1343 -756 1299 q -1097 1488 -976 1388 l -1326 1679 l -1257 1758 l -1119 1646 q -954 1545 -1031 1574 q -799 1517 -878 1517 q -646 1533 -740 1517 q -485 1551 -556 1551 q -247 1507 -357 1551 q -17 1363 -137 1463 l 313 1092 l 439 1092 l 656 972 l 656 874 l 404 874 z "},"ो":{"ha":490,"x_min":-767,"x_max":656,"o":"m 404 874 l 404 -14 l 306 -14 l 82 114 l 147 196 l 147 874 l 108 874 l -107 994 l -107 1092 l 146 1092 l -94 1285 q -262 1388 -186 1360 q -417 1415 -337 1415 q -550 1397 -487 1415 l -767 1517 l -767 1614 q -586 1632 -676 1632 q -350 1588 -460 1632 q -118 1443 -240 1543 l 313 1092 l 439 1092 l 656 972 l 656 874 l 404 874 z "},"ौ":{"ha":490,"x_min":-846,"x_max":656,"o":"m 404 874 l 404 -14 l 306 -14 l 82 114 l 147 196 l 147 874 l 108 874 l -107 994 l -107 1092 l -81 1092 l -175 1168 q -341 1269 -265 1242 q -496 1297 -417 1297 q -631 1279 -567 1297 l -846 1400 l -846 1497 q -667 1515 -756 1515 q -429 1471 -539 1515 q -197 1326 -319 1426 l 86 1092 l 264 1092 l -175 1446 q -341 1547 -265 1519 q -496 1575 -417 1575 q -631 1557 -567 1575 l -846 1678 l -846 1775 q -667 1793 -756 1793 q -431 1749 -540 1793 q -197 1604 -321 1704 l 431 1092 l 439 1092 l 656 972 l 656 874 l 404 874 z "},"ॎ":{"ha":490,"x_min":82,"x_max":656,"o":"m 404 874 l 404 -14 l 306 -14 l 82 114 l 147 196 l 147 1092 l 439 1092 l 656 972 l 656 874 l 404 874 z "},"ऻ":{"ha":490,"x_min":-107,"x_max":656,"o":"m 404 874 l 404 -14 l 306 -14 l 82 114 l 147 196 l 147 874 l 108 874 l -107 994 l -107 1092 l 147 1092 l 147 1632 l 246 1632 l 404 1569 l 404 1092 l 439 1092 l 656 972 l 656 874 l 404 874 z "},"ॏ":{"ha":490,"x_min":-1328,"x_max":656,"o":"m 404 874 l 404 -14 l 306 -14 l 82 114 l 147 196 l 147 874 l 108 874 l -107 994 l -107 1092 l 144 1092 l 6 1206 q -160 1307 -85 1279 q -315 1335 -236 1335 q -467 1317 -379 1335 q -524 1307 -475 1315 q -631 1299 -574 1299 q -867 1343 -757 1299 q -1099 1488 -978 1388 l -1328 1679 l -1258 1758 l -1121 1646 q -956 1545 -1032 1574 q -800 1517 -879 1517 q -647 1533 -742 1517 q -486 1551 -557 1551 q -249 1507 -358 1551 q -18 1363 -139 1463 l 279 1118 q 303 1206 303 1157 q 275 1273 303 1246 q 192 1336 247 1300 q 97 1409 129 1375 q 65 1494 65 1443 q 109 1607 65 1556 q 236 1697 153 1658 l 443 1578 l 443 1479 q 367 1444 392 1465 q 343 1389 343 1422 q 370 1331 343 1354 q 451 1278 397 1308 q 548 1210 515 1240 q 581 1132 581 1181 q 535 1039 581 1085 l 656 972 l 656 874 l 404 874 z "},"क":{"ha":1486,"x_min":-201,"x_max":1688,"o":"m 869 746 q 953 754 907 754 q 1152 708 1049 754 q 1324 582 1256 661 q 1393 411 1393 503 q 1327 247 1393 317 q 1153 157 1261 178 l 947 278 l 947 375 q 1018 368 981 368 q 1104 406 1074 368 q 1138 511 1135 444 q 1071 607 1138 607 q 988 572 1022 606 q 907 474 953 539 l 874 426 l 869 422 l 869 -14 l 771 -14 l 547 114 l 599 179 q 529 172 564 172 q 331 219 433 172 q 159 344 228 265 q 90 517 90 424 q 156 680 90 611 q 329 769 221 749 l 536 650 l 536 551 q 465 558 503 558 q 378 520 410 558 q 344 415 347 482 q 362 344 344 368 q 413 319 379 319 q 500 357 463 321 q 585 463 538 393 l 610 500 l 614 504 l 614 874 l 15 874 l -201 994 l -201 1092 l 1471 1092 l 1688 972 l 1688 874 l 869 874 l 869 746 z "},"ख":{"ha":1790,"x_min":-192,"x_max":1956,"o":"m 1956 875 l 1704 875 l 1704 -12 l 1606 -12 l 1382 115 l 1447 196 q 1332 179 1397 179 q 1123 225 1232 179 q 942 349 1014 271 q 869 518 869 428 q 935 681 869 613 q 1108 771 1000 750 l 1315 651 l 1315 553 q 1244 560 1282 560 q 1156 522 1188 560 q 1125 417 1125 483 q 1149 347 1125 372 q 1214 321 1172 321 q 1310 359 1268 321 q 1415 481 1353 397 l 1449 524 l 1449 874 l 606 874 q 683 701 656 796 q 710 508 710 606 q 663 339 710 415 q 546 226 617 263 l 874 33 l 808 -50 l 318 239 q 160 355 228 283 q 92 486 92 426 q 137 566 92 539 q 261 593 182 593 q 436 568 339 593 q 442 639 442 597 q 396 874 442 757 l 28 874 l -192 994 l -192 1092 l 1739 1092 l 1956 974 l 1956 875 z "},"ग":{"ha":1214,"x_min":-215,"x_max":1379,"o":"m 1128 874 l 1128 -14 l 1029 -14 l 806 114 l 871 196 l 871 874 l 638 874 l 638 447 q 601 332 638 389 q 512 238 565 275 q 413 201 458 201 q 278 252 356 201 q 146 374 201 303 q 90 499 90 444 q 132 569 90 544 q 254 593 174 593 q 381 578 307 593 l 381 874 l 3 874 l -215 994 l -215 1092 l 1163 1092 l 1379 972 l 1379 874 l 1128 874 z "},"घ":{"ha":1314,"x_min":-225,"x_max":1479,"o":"m 1226 874 l 1226 -14 l 1128 -14 l 904 114 l 913 125 q 722 90 822 90 q 475 138 594 90 q 282 260 356 185 q 208 415 208 336 q 227 499 208 458 q 281 572 246 539 q 137 669 193 610 q 81 801 81 728 q 96 874 81 839 l -7 874 l -225 994 l -225 1092 l 1263 1092 l 1479 972 l 1478 874 l 1226 874 m 590 247 q 790 301 704 247 q 968 463 875 356 l 968 874 l 572 874 l 572 810 q 497 819 533 819 q 392 796 431 819 q 354 735 354 772 q 366 687 354 707 q 401 649 378 667 q 500 672 450 667 l 718 551 l 718 454 q 653 460 685 460 q 559 438 597 460 q 503 385 521 417 q 485 321 485 353 q 592 247 485 247 l 590 247 z "},"ङ":{"ha":1299,"x_min":-226,"x_max":1540,"o":"m 1540 872 l 935 872 l 935 583 l 556 583 q 497 562 522 583 q 472 511 472 540 q 485 469 472 490 q 569 493 535 486 q 636 500 603 500 q 840 451 732 500 q 1019 331 947 403 q 1092 193 1092 258 q 1023 95 1092 143 q 844 17 954 47 q 615 -14 733 -14 q 539 -10 582 -14 q 471 -3 496 -7 l 6 378 l 74 458 l 278 292 q 421 210 349 235 q 558 186 493 186 q 686 199 629 186 q 775 232 743 211 q 807 276 807 253 q 790 310 807 294 q 750 325 772 325 q 668 276 708 325 q 440 356 549 301 q 265 478 332 411 q 199 606 199 546 q 235 699 199 653 q 332 774 272 744 q 453 803 392 803 l 678 803 l 678 874 l -8 874 l -226 994 l -226 1092 l 1322 1092 l 1540 971 l 1540 872 m 1314 672 l 1314 458 l 1215 458 l 1057 522 l 1057 736 l 1154 736 l 1314 672 z "},"च":{"ha":1346,"x_min":-207,"x_max":1510,"o":"m 1510 875 l 1258 875 l 1258 -12 l 1160 -12 l 936 115 l 1001 196 q 886 179 951 179 q 677 225 786 179 q 496 349 568 271 q 424 518 424 428 q 426 553 424 531 l 244 553 l 28 672 l 28 771 l 663 771 l 869 651 l 869 553 q 799 560 836 560 q 710 522 742 560 q 679 417 679 483 q 703 347 679 372 q 768 321 726 321 q 865 359 822 321 q 969 481 907 397 l 1003 524 l 1003 874 l 10 874 l -207 994 l -207 1092 l 1294 1092 l 1510 974 l 1510 875 z "},"छ":{"ha":1540,"x_min":-225,"x_max":1679,"o":"m 1267 740 q 1440 574 1371 681 q 1508 351 1508 467 q 1428 153 1508 235 q 1206 28 1349 71 q 879 -14 1064 -14 q 553 31 703 -14 q 315 155 403 75 q 226 336 226 235 q 272 468 226 407 q 151 563 197 504 q 106 692 106 621 q 139 807 106 761 q 231 874 172 853 l -7 874 l -225 994 l -225 1092 l 1461 1092 l 1679 972 l 1679 874 l 1267 874 l 1267 740 m 401 874 l 599 765 l 599 667 q 524 676 560 676 q 423 656 464 676 q 382 603 382 636 q 406 561 382 578 q 519 578 458 578 l 738 458 l 738 360 q 653 365 706 365 q 542 333 581 365 q 503 254 503 300 q 549 174 503 204 q 686 143 596 143 q 913 166 808 143 q 1090 233 1017 189 q 906 361 981 278 q 832 543 832 444 q 881 690 832 628 q 1010 776 931 753 l 1010 874 l 401 874 m 1172 628 q 1128 581 1147 628 q 1110 464 1110 535 q 1168 353 1110 353 q 1210 364 1190 353 q 1231 471 1231 413 q 1216 581 1231 533 q 1172 628 1201 628 z "},"ज":{"ha":1242,"x_min":-201,"x_max":1407,"o":"m 1156 874 l 1156 -14 l 1057 -14 l 833 114 l 899 196 l 899 375 l 654 375 l 735 308 q 744 229 744 271 q 704 110 744 165 q 594 20 664 54 q 436 -14 524 -14 q 261 10 333 -14 l 53 175 l 94 263 q 251 192 190 213 q 357 172 313 172 q 437 203 407 172 q 467 279 467 235 q 442 382 467 332 q 368 472 417 432 l 324 510 l 388 592 l 388 593 l 899 593 l 899 874 l 17 874 l -201 994 l -201 1092 l 1190 1092 l 1407 972 l 1407 874 l 1156 874 z "},"झ":{"ha":1575,"x_min":-185,"x_max":1740,"o":"m 1488 872 l 1488 -15 l 1389 -15 l 1165 113 l 1231 194 l 1231 358 q 1158 319 1194 332 q 1078 301 1122 306 q 1126 190 1126 242 q 1058 94 1126 142 q 880 15 990 46 q 651 -17 769 -15 l 771 -86 q 1068 -156 886 -156 q 1168 -144 1115 -156 l 1364 -254 l 1364 -351 q 1229 -369 1292 -369 q 1074 -349 1149 -369 q 931 -293 1000 -328 q 758 -199 861 -258 l 322 56 q 126 197 201 113 q 50 371 50 281 q 74 449 50 418 q 140 479 97 479 q 268 413 204 479 q 381 231 332 347 q 583 186 479 186 q 716 199 657 186 q 808 232 775 211 q 842 276 842 253 q 824 310 842 294 q 783 325 806 325 q 701 276 742 325 q 444 354 550 300 q 285 475 338 408 q 233 606 233 542 q 270 699 233 653 q 367 774 307 744 q 488 803 426 803 l 711 803 l 711 874 l 33 874 l -185 994 l -185 1092 l 1524 1092 l 1740 972 l 1739 872 l 1488 872 m 924 467 q 1083 533 1001 467 q 1232 713 1165 599 l 1232 871 l 968 871 l 968 582 l 589 582 q 531 560 556 582 q 507 510 507 539 q 518 468 507 490 q 602 492 568 485 q 669 499 636 499 q 785 482 726 499 q 922 468 826 468 l 924 467 z "},"ञ":{"ha":1244,"x_min":-201,"x_max":1410,"o":"m 1158 875 l 1158 -12 l 1060 -12 l 836 115 l 901 197 l 901 353 q 797 344 856 347 q 670 206 763 260 q 453 153 578 153 q 286 176 356 153 l 92 332 l 133 418 q 375 342 290 342 q 499 386 456 342 q 542 501 542 431 q 523 576 542 549 q 471 603 504 603 q 399 568 433 603 q 339 471 364 533 l 132 590 l 132 689 q 252 749 179 722 q 382 776 325 776 q 533 747 454 776 q 677 667 611 718 q 779 553 743 617 q 901 668 843 593 l 901 874 l 15 874 l -201 994 l -201 1092 l 1193 1092 l 1410 972 l 1410 875 l 1158 875 z "},"ट":{"ha":1108,"x_min":-201,"x_max":1318,"o":"m 583 522 q 475 493 522 522 q 401 414 428 464 q 374 303 374 364 q 416 179 374 222 q 529 136 458 136 q 690 185 615 136 q 850 342 765 233 l 1057 221 l 1057 124 q 877 24 983 61 q 668 -14 771 -14 q 401 50 531 -14 q 190 215 271 114 q 108 422 108 317 q 158 578 108 506 q 291 695 208 651 q 468 739 374 739 l 494 739 l 494 874 l 6 874 l -201 994 l -201 1092 l 1111 1092 l 1318 972 l 1318 874 l 751 874 l 751 522 l 583 522 z "},"ठ":{"ha":1211,"x_min":-201,"x_max":1413,"o":"m 751 728 q 928 629 849 692 q 1056 488 1008 567 q 1103 331 1103 410 q 1045 153 1103 232 q 887 31 988 75 q 661 -14 786 -14 q 399 50 528 -14 q 189 216 269 114 q 108 424 108 318 q 160 583 108 510 q 296 697 213 656 q 468 739 379 739 l 494 739 l 494 874 l 6 874 l -201 994 l -201 1092 l 1206 1092 l 1413 972 l 1413 874 l 751 874 l 751 728 m 825 428 q 751 568 825 528 l 751 521 l 583 521 q 433 460 492 521 q 374 288 374 400 q 417 177 374 219 q 532 135 461 135 q 749 214 672 135 q 825 429 825 293 l 825 428 z "},"ड":{"ha":1121,"x_min":-226,"x_max":1289,"o":"m 556 583 q 497 562 522 583 q 472 511 472 540 q 485 469 472 490 q 569 493 535 486 q 636 500 603 500 q 840 451 732 500 q 1019 331 947 403 q 1092 193 1092 258 q 1023 95 1092 143 q 844 17 954 47 q 615 -14 733 -14 q 539 -10 582 -14 q 471 -3 496 -7 l 6 378 l 74 458 l 278 292 q 421 210 349 235 q 558 186 493 186 q 686 199 629 186 q 775 232 743 211 q 807 276 807 253 q 790 310 807 294 q 750 325 772 325 q 668 276 708 325 q 440 356 549 301 q 265 478 332 411 q 199 606 199 546 q 235 699 199 653 q 332 774 272 744 q 453 803 392 803 l 678 803 l 678 874 l -8 874 l -226 994 l -226 1092 l 1071 1092 l 1289 972 l 1289 874 l 935 874 l 935 585 l 556 585 l 556 583 z "},"ढ":{"ha":1075,"x_min":-201,"x_max":1285,"o":"m 542 522 q 395 482 447 522 q 343 368 343 442 q 385 249 343 307 q 499 152 428 192 q 650 104 569 113 q 501 216 561 150 q 442 343 442 282 q 483 426 442 397 q 600 456 524 456 q 805 404 694 456 q 991 278 915 353 q 1067 138 1067 203 q 991 26 1067 65 q 779 -14 915 -14 q 456 53 608 -14 q 210 233 303 121 q 118 469 118 344 q 157 603 118 542 q 262 702 196 665 q 406 739 328 739 l 585 739 l 585 874 l 6 874 l -201 994 l -201 1092 l 1078 1092 l 1285 972 l 1285 874 l 842 874 l 842 522 l 542 522 m 768 274 q 734 253 749 274 q 719 206 719 233 q 774 160 719 160 q 806 164 792 160 q 810 194 810 179 q 798 251 810 229 q 768 272 786 272 l 768 274 z "},"ण":{"ha":1390,"x_min":-201,"x_max":1556,"o":"m 1304 874 l 1304 -14 l 1206 -14 l 982 114 l 1047 196 l 1047 874 l 844 874 l 844 544 q 802 423 843 483 q 693 324 761 363 q 549 286 625 286 q 352 329 454 286 q 182 444 250 372 q 114 601 114 517 l 114 874 l 17 874 l -201 994 l -201 1092 l 1339 1092 l 1556 972 l 1556 874 l 1304 874 m 371 874 l 371 551 q 454 442 371 442 q 512 460 482 442 q 563 513 542 478 q 588 596 585 549 l 588 874 l 371 874 z "},"त":{"ha":1019,"x_min":-201,"x_max":1183,"o":"m 932 874 l 932 -14 l 833 -14 l 610 114 l 675 196 l 675 375 l 521 375 q 388 253 388 375 q 407 174 388 206 q 476 113 426 143 l 563 57 l 497 -26 l 119 197 q 110 308 110 244 q 190 522 110 451 q 432 593 269 593 l 675 593 l 675 874 l 15 874 l -201 994 l -201 1092 l 967 1092 l 1183 972 l 1183 874 l 932 874 z "},"थ":{"ha":1239,"x_min":44,"x_max":1404,"o":"m 1153 876 l 1153 -11 l 1054 -11 l 831 117 l 896 199 l 896 253 q 601 189 772 189 q 374 233 493 189 q 165 342 254 276 q 49 469 75 408 l 114 553 q 136 551 124 551 q 347 615 269 551 q 199 681 268 638 q 87 784 129 725 q 44 908 44 843 q 80 1012 44 963 q 174 1091 115 1061 q 297 1121 232 1121 q 479 1065 385 1121 q 636 913 574 1008 q 699 706 699 817 q 603 501 699 586 q 350 392 508 415 q 507 343 394 343 q 644 367 583 343 q 761 442 704 392 q 896 586 818 493 l 896 874 l 857 874 l 642 994 l 642 1092 l 1188 1092 l 1404 972 l 1404 876 l 1153 876 m 322 844 q 337 777 322 800 q 379 754 351 754 q 421 765 401 754 l 421 774 q 410 911 421 863 q 376 960 399 960 q 337 927 351 960 q 322 843 322 894 l 322 844 z "},"द":{"ha":1058,"x_min":-201,"x_max":1268,"o":"m 543 524 q 394 478 444 524 q 344 356 344 432 q 389 231 344 281 q 506 182 433 182 q 582 196 542 182 q 572 281 572 247 q 596 376 572 340 q 671 411 619 411 q 828 369 743 411 q 973 263 914 328 q 1032 133 1032 199 q 993 53 1032 90 q 886 -1 954 15 l 1131 -144 l 1067 -226 l 689 -7 q 403 84 535 11 q 195 265 272 157 q 118 489 118 372 q 159 610 118 551 q 267 703 200 668 q 406 739 333 739 l 539 739 l 539 874 l 6 874 l -201 994 l -201 1092 l 1061 1092 l 1268 972 l 1268 874 l 796 874 l 796 522 l 542 522 l 543 524 z "},"ध":{"ha":1438,"x_min":110,"x_max":1603,"o":"m 1350 872 l 1350 -15 l 1251 -15 l 1028 113 l 1093 194 l 1093 242 q 995 201 1043 213 q 883 190 947 190 q 595 240 728 190 q 384 372 463 290 q 306 543 306 454 q 365 682 306 622 q 110 1007 110 828 q 184 1165 110 1106 q 383 1225 258 1225 q 583 1188 483 1225 q 746 1093 682 1151 q 810 976 810 1035 q 778 902 810 935 q 691 851 746 869 q 568 832 636 832 q 546 835 560 832 l 457 907 l 457 1004 q 493 996 479 996 q 522 1005 511 996 q 532 1029 532 1014 q 485 1063 532 1063 q 413 1030 439 1063 q 388 940 388 997 q 414 837 388 885 q 489 753 440 789 q 592 768 539 768 l 808 651 l 808 553 q 735 560 774 560 q 623 530 661 560 q 585 450 585 500 q 751 349 585 349 q 879 369 826 349 q 978 429 932 389 q 1094 547 1025 469 l 1094 874 l 1056 874 l 840 994 l 840 1092 l 1386 1092 l 1603 972 l 1601 872 l 1350 872 z "},"न":{"ha":1082,"x_min":-215,"x_max":1247,"o":"m 996 874 l 996 -14 l 897 -14 l 674 114 l 739 196 l 739 375 l 557 375 q 486 253 533 306 q 396 201 439 201 q 269 253 342 201 q 143 377 196 306 q 90 500 90 449 q 158 572 90 551 q 386 593 226 593 l 739 593 l 739 874 l 4 874 l -215 994 l -215 1092 l 1031 1092 l 1247 972 l 1247 874 l 996 874 z "},"ऩ":{"ha":1082,"x_min":-215,"x_max":1247,"o":"m 996 874 l 996 -14 l 897 -14 l 674 114 l 739 196 l 739 375 l 557 375 q 486 253 533 306 q 396 201 439 201 q 269 253 342 201 q 143 377 196 306 q 90 500 90 449 q 158 572 90 551 q 386 593 226 593 l 739 593 l 739 874 l 4 874 l -215 994 l -215 1092 l 1031 1092 l 1247 972 l 1247 874 l 996 874 m 525 -272 l 426 -272 l 268 -210 l 268 4 l 365 4 l 525 -58 l 525 -272 z "},"प":{"ha":990,"x_min":-201,"x_max":1156,"o":"m 1156 874 l 904 874 l 904 -14 l 806 -14 l 582 114 l 647 196 l 647 299 q 554 286 606 286 q 355 333 458 286 q 183 458 251 379 q 114 629 114 538 l 114 874 l 17 874 l -201 994 l -201 1092 l 939 1092 l 1156 972 l 1156 874 m 371 874 l 371 579 q 460 442 371 442 q 538 478 504 442 q 624 596 571 514 q 647 633 631 608 l 647 874 l 371 874 z "},"फ":{"ha":1519,"x_min":-201,"x_max":1721,"o":"m 904 749 q 989 757 942 757 q 1188 710 1085 757 q 1359 585 1290 664 q 1428 414 1428 506 q 1363 250 1428 319 q 1189 160 1297 181 l 982 281 l 982 378 q 1053 371 1015 371 q 1125 403 1100 371 q 1150 492 1150 435 q 1083 588 1150 588 q 1008 556 1042 588 q 922 449 975 524 l 904 424 l 904 -14 l 806 -14 l 582 114 l 647 196 l 647 299 q 554 286 606 286 q 355 333 458 286 q 183 458 251 379 q 114 629 114 538 l 114 874 l 17 874 l -201 994 l -201 1092 l 1515 1092 l 1721 972 l 1721 874 l 917 874 l 904 876 l 904 749 m 460 444 q 538 481 504 444 q 624 599 571 517 q 647 636 631 611 l 647 876 l 371 876 l 371 582 q 460 444 371 444 z "},"ब":{"ha":1014,"x_min":-201,"x_max":1178,"o":"m 1178 874 l 926 874 l 926 -14 l 828 -14 l 604 114 l 669 194 q 554 178 619 178 q 345 224 454 178 q 164 348 236 269 q 92 517 92 426 q 157 680 92 611 q 331 769 222 749 l 538 650 l 538 551 q 474 558 508 558 l 613 446 l 671 524 l 671 874 l 15 874 l -201 994 l -201 1092 l 963 1092 l 1178 972 l 1178 874 m 344 414 q 368 344 344 369 q 433 318 392 318 q 539 365 488 318 l 367 506 q 346 415 346 471 l 344 414 z "},"भ":{"ha":1189,"x_min":-8,"x_max":1354,"o":"m 1103 872 l 1103 -15 l 1004 -15 l 781 113 l 846 194 l 846 374 l 592 374 q 521 252 568 304 q 431 200 474 200 q 292 251 371 200 q 157 374 214 303 q 100 499 100 446 q 160 567 100 546 q 358 592 219 589 l 358 658 q 185 715 269 671 q 46 823 100 758 q -8 961 -8 888 q 52 1074 -8 1029 q 210 1119 113 1119 q 397 1072 301 1119 q 553 941 492 1024 q 615 761 615 858 l 615 593 l 846 593 l 846 874 l 807 874 l 592 994 l 592 1092 l 1138 1092 l 1354 972 l 1354 872 l 1103 872 m 324 810 q 358 818 342 810 l 358 826 q 350 929 358 903 q 324 956 342 956 q 284 933 300 956 q 268 875 268 910 q 283 827 268 844 q 324 810 297 810 z "},"म":{"ha":1226,"x_min":-215,"x_max":1392,"o":"m 1140 874 l 1140 -14 l 1042 -14 l 818 114 l 883 196 l 883 375 l 582 375 q 511 253 558 306 q 421 201 464 201 q 283 253 361 201 q 147 376 204 304 q 90 500 90 447 q 150 569 90 547 q 349 593 210 590 l 349 874 l 4 874 l -215 994 l -215 1092 l 1175 1092 l 1392 972 l 1392 874 l 1140 874 m 883 874 l 606 874 l 606 593 l 883 593 l 883 874 z "},"य":{"ha":1075,"x_min":-144,"x_max":1240,"o":"m 989 874 l 989 -14 l 890 -14 l 667 114 l 732 196 l 732 274 q 526 232 646 232 q 334 277 436 232 q 152 388 232 322 q 46 510 72 453 l 110 593 q 196 650 163 604 q 229 769 229 696 q 217 874 229 836 l 74 874 l -144 994 l -144 1092 l 1024 1092 l 1240 972 l 1240 874 l 989 874 m 433 386 q 594 440 515 386 q 733 578 674 494 l 733 874 l 446 874 q 508 675 508 781 q 460 542 508 600 q 328 454 411 483 q 432 388 351 388 l 433 386 z "},"र":{"ha":767,"x_min":-192,"x_max":978,"o":"m 606 874 q 683 701 656 796 q 710 508 710 606 q 663 339 710 415 q 546 226 617 263 l 874 33 l 808 -50 l 318 239 q 160 355 228 283 q 92 486 92 426 q 137 566 92 539 q 261 593 182 593 q 436 568 339 593 q 442 639 442 597 q 396 874 442 757 l 28 874 l -192 994 l -192 1092 l 757 1092 l 976 972 l 978 874 l 606 874 z "},"ऱ":{"ha":767,"x_min":-192,"x_max":978,"o":"m 606 874 q 683 701 656 796 q 710 508 710 606 q 663 339 710 415 q 546 226 617 263 l 874 33 l 808 -50 l 318 239 q 160 355 228 283 q 92 486 92 426 q 137 566 92 539 q 261 593 182 593 q 436 568 339 593 q 442 639 442 597 q 396 874 442 757 l 28 874 l -192 994 l -192 1092 l 757 1092 l 976 972 l 978 874 l 606 874 m 506 -272 l 407 -272 l 249 -210 l 249 4 l 346 4 l 506 -58 l 506 -272 z "},"ल":{"ha":1342,"x_min":-201,"x_max":1508,"o":"m 1257 872 l 1257 -15 l 1158 -15 l 935 113 l 1000 194 l 1000 353 q 799 261 925 313 l 592 381 l 592 479 l 629 492 q 601 564 621 543 q 546 585 582 585 q 450 540 488 585 q 413 428 413 496 q 442 324 413 367 q 539 242 471 282 l 676 161 l 626 69 l 144 349 q 135 464 135 407 q 170 603 135 538 q 276 712 206 669 q 451 754 347 754 q 642 706 546 754 q 808 579 739 658 q 999 725 936 654 l 999 874 l 14 874 l -201 994 l -201 1092 l 1290 1092 l 1507 972 l 1508 872 l 1257 872 z "},"ळ":{"ha":1486,"x_min":-201,"x_max":1688,"o":"m 1131 724 q 1319 593 1243 678 q 1394 408 1394 508 q 1323 247 1394 315 q 1140 160 1251 178 l 933 279 l 933 379 q 1015 368 976 368 q 1107 406 1075 368 q 1139 513 1139 443 q 1122 588 1139 564 q 1068 613 1104 613 q 982 574 1021 613 q 869 428 943 535 l 850 400 l 821 358 q 739 250 774 289 q 654 185 704 211 q 533 158 604 158 q 333 206 438 158 q 160 335 229 254 q 92 511 92 417 q 163 673 92 604 q 344 761 233 742 l 553 640 l 553 540 q 469 551 508 551 q 378 514 410 551 q 346 407 346 476 q 417 307 346 307 q 476 326 449 307 q 526 376 503 344 q 593 471 550 407 l 621 514 q 707 636 676 596 q 778 708 738 676 q 874 753 819 740 l 874 874 l 15 874 l -201 994 l -201 1092 l 1471 1092 l 1688 972 l 1688 874 l 1131 875 l 1131 724 z "},"ऴ":{"ha":1486,"x_min":-201,"x_max":1688,"o":"m 1131 724 q 1319 593 1243 678 q 1394 408 1394 508 q 1323 247 1394 315 q 1140 160 1251 178 l 933 279 l 933 379 q 1015 368 976 368 q 1107 406 1075 368 q 1139 513 1139 443 q 1122 588 1139 564 q 1068 613 1104 613 q 982 574 1021 613 q 869 428 943 535 l 850 400 l 821 358 q 739 250 774 289 q 654 185 704 211 q 533 158 604 158 q 333 206 438 158 q 160 335 229 254 q 92 511 92 417 q 163 673 92 604 q 344 761 233 742 l 553 640 l 553 540 q 469 551 508 551 q 378 514 410 551 q 346 407 346 476 q 417 307 346 307 q 476 326 449 307 q 526 376 503 344 q 593 471 550 407 l 621 514 q 707 636 676 596 q 778 708 738 676 q 874 753 819 740 l 874 874 l 15 874 l -201 994 l -201 1092 l 1471 1092 l 1688 972 l 1688 874 l 1131 875 l 1131 724 m 894 -228 l 796 -228 l 638 -165 l 638 49 l 735 49 l 894 -14 l 894 -228 z "},"व":{"ha":1014,"x_min":-201,"x_max":1178,"o":"m 1178 875 l 926 875 l 926 -12 l 828 -12 l 604 115 l 669 196 q 554 179 619 179 q 345 225 454 179 q 164 349 236 271 q 92 518 92 428 q 157 681 92 613 q 331 771 222 750 l 538 651 l 538 553 q 467 560 504 560 q 378 522 410 560 q 347 417 347 483 q 371 347 347 372 q 436 321 394 321 q 533 359 490 321 q 638 481 575 397 l 671 524 l 671 874 l 15 874 l -201 994 l -201 1092 l 963 1092 l 1178 974 l 1178 875 z "},"श":{"ha":1332,"x_min":115,"x_max":1497,"o":"m 749 624 q 699 365 749 472 l 897 253 l 832 169 l 642 278 q 569 221 608 240 q 490 201 529 201 q 338 252 424 201 q 190 373 251 303 q 128 497 128 443 q 172 567 128 540 q 308 593 217 593 q 474 575 388 593 q 489 658 483 608 q 313 713 400 669 q 171 822 226 756 q 115 961 115 888 q 176 1074 115 1029 q 335 1119 238 1119 q 527 1064 432 1119 q 685 896 622 1008 q 747 624 747 783 l 749 624 m 1246 874 l 1246 -14 l 1149 -14 l 925 114 l 989 196 l 989 874 l 951 874 l 736 994 l 736 1092 l 1282 1092 l 1497 972 l 1497 874 l 1246 874 m 396 876 q 410 828 396 846 q 450 811 424 811 q 492 822 472 811 q 477 931 488 904 q 450 957 467 957 q 410 934 426 957 q 394 876 394 911 l 396 876 z "},"ष":{"ha":990,"x_min":-201,"x_max":1156,"o":"m 1156 874 l 904 874 l 904 -14 l 806 -14 l 582 114 l 647 196 l 647 299 q 554 286 606 286 q 355 333 458 286 q 183 458 251 379 q 114 629 114 538 l 114 874 l 17 874 l -201 994 l -201 1092 l 939 1092 l 1156 972 l 1156 874 m 371 875 l 371 835 l 417 832 l 647 633 l 647 875 l 371 875 m 460 443 q 531 474 499 443 q 604 568 563 504 l 578 568 l 371 747 l 371 581 q 460 443 371 443 z "},"स":{"ha":1317,"x_min":-192,"x_max":1482,"o":"m 1482 874 l 1231 874 l 1231 -14 l 1132 -14 l 908 114 l 974 196 l 974 358 q 889 347 933 347 q 790 365 835 347 l 701 436 q 644 311 686 367 q 546 226 601 256 l 874 33 l 808 -50 l 318 239 q 160 355 228 283 q 92 486 92 426 q 137 566 92 539 q 261 593 182 593 q 436 568 339 593 q 442 639 442 597 q 396 874 442 757 l 28 874 l -192 994 l -192 1092 l 1264 1092 l 1482 972 l 1482 874 m 808 572 q 892 590 853 572 q 974 651 931 607 l 974 874 l 606 874 q 703 597 683 750 q 808 572 764 572 z "},"ह":{"ha":919,"x_min":-107,"x_max":1083,"o":"m 492 556 q 428 540 449 556 q 408 490 408 524 q 433 425 408 453 q 641 368 536 417 q 814 249 746 319 q 882 106 882 178 q 851 6 882 51 q 753 -87 821 -40 l 536 33 l 536 131 q 589 169 574 150 q 604 211 604 188 q 583 260 604 243 q 521 278 561 278 q 408 230 451 278 q 364 107 364 182 q 381 28 364 61 q 437 -36 397 -4 q 551 -110 476 -68 l 842 -283 l 776 -367 l 96 29 q 86 126 86 81 q 128 294 86 224 q 250 399 171 365 l 142 460 q 132 539 132 494 q 408 772 132 772 l 472 772 l 472 874 l 100 874 l -107 994 l -107 1092 l 876 1092 l 1083 972 l 1083 874 l 729 874 l 729 554 l 492 554 l 492 556 z "},"क़":{"ha":1486,"x_min":-201,"x_max":1688,"o":"m 869 746 q 953 754 907 754 q 1152 708 1049 754 q 1324 582 1256 661 q 1393 411 1393 503 q 1327 247 1393 317 q 1153 157 1261 178 l 947 278 l 947 375 q 1018 368 981 368 q 1104 406 1074 368 q 1138 511 1135 444 q 1071 607 1138 607 q 988 572 1022 606 q 907 474 953 539 l 874 426 l 869 422 l 869 -14 l 771 -14 l 547 114 l 599 179 q 529 172 564 172 q 331 219 433 172 q 159 344 228 265 q 90 517 90 424 q 156 680 90 611 q 329 769 221 749 l 536 650 l 536 551 q 465 558 503 558 q 378 520 410 558 q 344 415 347 482 q 362 344 344 368 q 413 319 379 319 q 500 357 463 321 q 585 463 538 393 l 610 500 l 614 504 l 614 874 l 15 874 l -201 994 l -201 1092 l 1471 1092 l 1688 972 l 1688 874 l 869 874 l 869 746 m 425 -217 l 326 -217 l 168 -154 l 168 60 l 265 60 l 425 -3 l 425 -217 z "},"ख़":{"ha":1790,"x_min":-192,"x_max":1956,"o":"m 1956 875 l 1704 875 l 1704 -12 l 1606 -12 l 1382 115 l 1447 196 q 1332 179 1397 179 q 1123 225 1232 179 q 942 349 1014 271 q 869 518 869 428 q 935 681 869 613 q 1108 771 1000 750 l 1315 651 l 1315 553 q 1244 560 1282 560 q 1156 522 1188 560 q 1125 417 1125 483 q 1149 347 1125 372 q 1214 321 1172 321 q 1310 359 1268 321 q 1415 481 1353 397 l 1449 524 l 1449 874 l 606 874 q 683 701 656 796 q 710 508 710 606 q 663 339 710 415 q 546 226 617 263 l 874 33 l 808 -50 l 318 239 q 160 355 228 283 q 92 486 92 426 q 137 566 92 539 q 261 593 182 593 q 436 568 339 593 q 442 639 442 597 q 396 874 442 757 l 28 874 l -192 994 l -192 1092 l 1739 1092 l 1956 974 l 1956 875 m 400 -272 l 301 -272 l 143 -210 l 143 4 l 240 4 l 400 -58 l 400 -272 z "},"ग़":{"ha":1214,"x_min":-215,"x_max":1379,"o":"m 1128 874 l 1128 -14 l 1029 -14 l 806 114 l 871 196 l 871 874 l 638 874 l 638 447 q 601 332 638 389 q 512 238 565 275 q 413 201 458 201 q 278 252 356 201 q 146 374 201 303 q 90 499 90 444 q 132 569 90 544 q 254 593 174 593 q 381 578 307 593 l 381 874 l 3 874 l -215 994 l -215 1092 l 1163 1092 l 1379 972 l 1379 874 l 1128 874 m 525 -272 l 426 -272 l 268 -210 l 268 4 l 365 4 l 525 -58 l 525 -272 z "},"ज़":{"ha":1242,"x_min":-201,"x_max":1407,"o":"m 1156 874 l 1156 -14 l 1057 -14 l 833 114 l 899 196 l 899 375 l 654 375 l 735 308 q 744 229 744 271 q 704 110 744 165 q 594 20 664 54 q 436 -14 524 -14 q 261 10 333 -14 l 53 175 l 94 263 q 251 192 190 213 q 357 172 313 172 q 437 203 407 172 q 467 279 467 235 q 442 382 467 332 q 368 472 417 432 l 324 510 l 388 592 l 388 593 l 899 593 l 899 874 l 17 874 l -201 994 l -201 1092 l 1190 1092 l 1407 972 l 1407 874 l 1156 874 m 554 -446 l 456 -446 l 297 -383 l 297 -169 l 394 -169 l 554 -232 l 554 -446 z "},"ड़":{"ha":1121,"x_min":-226,"x_max":1289,"o":"m 556 583 q 497 562 522 583 q 472 511 472 540 q 485 469 472 490 q 569 493 535 486 q 636 500 603 500 q 840 451 732 500 q 1019 331 947 403 q 1092 193 1092 258 q 1023 95 1092 143 q 844 17 954 47 q 615 -14 733 -14 q 539 -10 582 -14 q 471 -3 496 -7 l 6 378 l 74 458 l 278 292 q 421 210 349 235 q 558 186 493 186 q 686 199 629 186 q 775 232 743 211 q 807 276 807 253 q 790 310 807 294 q 750 325 772 325 q 668 276 708 325 q 440 356 549 301 q 265 478 332 411 q 199 606 199 546 q 235 699 199 653 q 332 774 272 744 q 453 803 392 803 l 678 803 l 678 874 l -8 874 l -226 994 l -226 1092 l 1071 1092 l 1289 972 l 1289 874 l 935 874 l 935 585 l 556 585 l 556 583 m 260 -247 l 161 -247 l 3 -185 l 3 29 l 100 29 l 260 -33 l 260 -247 z "},"ढ़":{"ha":1075,"x_min":-201,"x_max":1285,"o":"m 542 522 q 395 482 447 522 q 343 368 343 442 q 385 249 343 307 q 499 152 428 192 q 650 104 569 113 q 501 216 561 150 q 442 343 442 282 q 483 426 442 397 q 600 456 524 456 q 805 404 694 456 q 991 278 915 353 q 1067 138 1067 203 q 991 26 1067 65 q 779 -14 915 -14 q 456 53 608 -14 q 210 233 303 121 q 118 469 118 344 q 157 603 118 542 q 262 702 196 665 q 406 739 328 739 l 585 739 l 585 874 l 6 874 l -201 994 l -201 1092 l 1078 1092 l 1285 972 l 1285 874 l 842 874 l 842 522 l 542 522 m 768 274 q 734 253 749 274 q 719 206 719 233 q 774 160 719 160 q 806 164 792 160 q 810 194 810 179 q 798 251 810 229 q 768 272 786 272 l 768 274 m 388 -303 l 289 -303 l 131 -240 l 131 -26 l 228 -26 l 388 -89 l 388 -303 z "},"फ़":{"ha":1519,"x_min":-201,"x_max":1721,"o":"m 904 749 q 989 757 942 757 q 1188 710 1085 757 q 1359 585 1290 664 q 1428 414 1428 506 q 1363 250 1428 319 q 1189 160 1297 181 l 982 281 l 982 378 q 1053 371 1015 371 q 1125 403 1100 371 q 1150 492 1150 435 q 1083 588 1150 588 q 1008 556 1042 588 q 922 449 975 524 l 904 424 l 904 -14 l 806 -14 l 582 114 l 647 196 l 647 299 q 554 286 606 286 q 355 333 458 286 q 183 458 251 379 q 114 629 114 538 l 114 874 l 17 874 l -201 994 l -201 1092 l 1515 1092 l 1721 972 l 1721 874 l 917 874 l 904 876 l 904 749 m 460 444 q 538 481 504 444 q 624 599 571 517 q 647 636 631 611 l 647 876 l 371 876 l 371 582 q 460 444 371 444 m 453 -126 l 354 -126 l 196 -64 l 196 150 l 293 150 l 453 88 l 453 -126 z "},"य़":{"ha":1075,"x_min":-144,"x_max":1240,"o":"m 989 874 l 989 -14 l 890 -14 l 667 114 l 732 196 l 732 274 q 526 232 646 232 q 334 277 436 232 q 152 388 232 322 q 46 510 72 453 l 110 593 q 196 650 163 604 q 229 769 229 696 q 217 874 229 836 l 74 874 l -144 994 l -144 1092 l 1024 1092 l 1240 972 l 1240 874 l 989 874 m 433 386 q 594 440 515 386 q 733 578 674 494 l 733 874 l 446 874 q 508 675 508 781 q 460 542 508 600 q 328 454 411 483 q 432 388 351 388 l 433 386 m 453 -189 l 354 -189 l 196 -126 l 196 88 l 293 88 l 453 25 l 453 -189 z "},"ॹ":{"ha":1231,"x_min":-201,"x_max":1407,"o":"m 1156 874 l 1156 -14 l 1057 -14 l 833 114 l 899 196 l 899 375 l 654 375 l 735 308 q 744 229 744 271 q 704 110 744 165 q 594 20 664 54 q 436 -14 524 -14 q 261 10 333 -14 l 53 175 l 94 263 q 251 192 190 213 q 357 172 313 172 q 437 203 407 172 q 467 279 467 235 q 442 382 467 332 q 368 472 417 432 l 324 510 l 388 592 l 388 593 l 899 593 l 899 874 l 17 874 l -201 994 l -201 1092 l 1190 1092 l 1407 972 l 1407 874 l 1156 874 m 225 -312 l 126 -312 l -32 -250 l -32 -36 l 65 -36 l 225 -99 l 225 -312 m 554 -500 l 456 -500 l 297 -437 l 297 -224 l 394 -224 l 554 -286 l 554 -500 m 868 -312 l 769 -312 l 611 -250 l 611 -36 l 708 -36 l 868 -99 l 868 -312 z "},"ॻ":{"ha":1232,"x_min":-215,"x_max":1396,"o":"m 1144 874 l 1144 -297 l 201 -297 l 50 -176 l 50 -79 l 888 -79 l 888 874 l 638 874 l 638 447 q 601 332 638 389 q 512 238 565 275 q 413 201 458 201 q 278 252 356 201 q 146 374 201 303 q 90 499 90 444 q 132 569 90 544 q 254 593 174 593 q 381 578 307 593 l 381 874 l 3 874 l -215 994 l -215 1092 l 1181 1092 l 1396 972 l 1396 874 l 1144 874 z "},"ॼ":{"ha":1246,"x_min":-201,"x_max":1411,"o":"m 1160 874 l 1160 -297 l 232 -297 l 81 -176 l 81 -79 l 903 -79 l 903 375 l 654 375 l 735 308 q 744 229 744 271 q 704 110 744 165 q 594 20 664 54 q 436 -14 524 -14 q 261 10 333 -14 l 53 175 l 94 263 q 251 192 190 213 q 357 172 313 172 q 437 203 407 172 q 467 279 467 235 q 442 382 467 332 q 368 472 417 432 l 324 510 l 388 592 l 388 593 l 903 593 l 903 874 l 17 874 l -201 994 l -201 1092 l 1194 1092 l 1411 972 l 1411 874 l 1160 874 z "},"ॾ":{"ha":1121,"x_min":-226,"x_max":1289,"o":"m 556 583 q 497 562 522 583 q 472 511 472 540 q 485 469 472 490 q 569 493 535 486 q 636 500 603 500 q 840 451 732 500 q 1019 331 947 403 q 1092 193 1092 258 q 1023 95 1092 143 q 844 17 954 47 q 615 -14 733 -14 q 539 -10 582 -14 q 471 -3 496 -7 l 6 378 l 74 458 l 278 292 q 421 210 349 235 q 558 186 493 186 q 686 199 629 186 q 775 232 743 211 q 807 276 807 253 q 790 310 807 294 q 750 325 772 325 q 668 276 708 325 q 440 356 549 301 q 265 478 332 411 q 199 606 199 546 q 235 699 199 653 q 332 774 272 744 q 453 803 392 803 l 678 803 l 678 874 l -8 874 l -226 994 l -226 1092 l 1071 1092 l 1289 972 l 1289 874 l 935 874 l 935 585 l 556 585 l 556 583 m 1153 -297 l 210 -297 l 60 -176 l 60 -79 l 1003 -79 l 1153 -199 l 1153 -297 z "},"ॿ":{"ha":1036,"x_min":-201,"x_max":1201,"o":"m 949 874 l 949 -297 l 294 -297 l 144 -176 l 144 -79 l 692 -79 l 692 204 q 554 178 632 178 q 345 224 454 178 q 164 348 236 269 q 92 517 92 426 q 157 680 92 611 q 331 769 222 749 l 538 650 l 538 551 q 474 558 508 558 l 613 446 q 640 483 619 454 l 689 546 l 693 543 l 693 874 l 15 874 l -201 994 l -201 1092 l 985 1092 l 1201 972 l 1200 874 l 949 874 m 344 414 q 368 344 344 369 q 433 318 392 318 q 539 365 488 318 l 367 506 q 346 415 346 471 l 344 414 z "},"ꣻ":{"ha":1513,"x_min":285,"x_max":1228,"o":"m 1228 874 l 501 874 l 285 994 l 285 1092 l 1011 1092 l 1228 972 l 1228 874 z "},"⁄":{"ha":339,"x_min":-307,"x_max":644,"o":"m -219 -276 l -307 -232 l 556 1393 l 644 1349 l -219 -276 z "},"½":{"ha":1661,"x_min":67,"x_max":1599,"o":"m 488 578 l 86 578 l 86 654 l 194 728 l 194 1029 l 67 1058 l 107 1143 l 507 1143 l 507 1067 l 400 993 l 400 690 l 528 663 l 488 578 m 374 -276 l 286 -232 l 1149 1393 l 1238 1349 l 374 -276 m 1599 -129 l 1483 -111 l 950 -111 l 950 -24 q 1147 113 1079 61 q 1242 196 1215 164 q 1269 256 1269 228 q 1247 293 1269 278 q 1190 308 1225 308 q 976 253 1114 308 l 943 339 l 1097 447 q 1221 464 1147 464 q 1441 422 1358 464 q 1524 311 1524 381 q 1457 213 1524 274 q 1253 72 1390 151 l 1468 72 l 1513 165 l 1599 139 l 1599 -129 z "},"⅓":{"ha":1569,"x_min":67,"x_max":1515,"o":"m 488 578 l 86 578 l 86 654 l 194 728 l 194 1029 l 67 1058 l 107 1143 l 507 1143 l 507 1067 l 400 993 l 400 690 l 528 663 l 488 578 m 374 -276 l 286 -232 l 1149 1393 l 1238 1349 l 374 -276 m 1293 138 q 1463 65 1410 103 q 1515 -26 1515 26 q 1389 -212 1515 -131 q 985 -365 1263 -293 l 958 -272 q 1163 -205 1093 -233 q 1262 -146 1233 -176 q 1290 -72 1290 -115 q 1255 -5 1290 -33 q 1142 50 1219 24 l 1142 121 q 1220 187 1197 156 q 1243 257 1243 218 q 1219 310 1243 289 q 1156 331 1194 331 q 986 276 1106 331 l 953 350 l 1107 458 q 1171 467 1140 467 q 1321 446 1253 467 q 1428 390 1389 425 q 1468 313 1468 354 q 1422 224 1464 267 q 1294 136 1379 182 l 1293 138 z "},"⅔":{"ha":1744,"x_min":50,"x_max":1690,"o":"m 706 557 l 590 575 l 57 575 l 57 663 q 254 799 186 747 q 349 882 322 850 q 376 942 376 914 q 354 980 376 965 q 297 994 332 994 q 83 939 221 994 l 50 1025 l 204 1133 q 328 1150 254 1150 q 548 1108 465 1150 q 631 997 631 1067 q 564 899 631 960 q 360 758 497 838 l 575 758 l 619 851 l 706 825 l 706 557 m 549 -276 l 461 -232 l 1324 1393 l 1413 1349 l 549 -276 m 1468 138 q 1638 65 1585 103 q 1690 -26 1690 26 q 1564 -212 1690 -131 q 1160 -365 1438 -293 l 1133 -272 q 1338 -205 1268 -233 q 1437 -146 1408 -176 q 1465 -72 1465 -115 q 1430 -5 1465 -33 q 1317 50 1394 24 l 1317 121 q 1395 187 1372 156 q 1418 257 1418 218 q 1394 310 1418 289 q 1331 331 1369 331 q 1161 276 1281 331 l 1128 350 l 1282 458 q 1346 467 1315 467 q 1496 446 1428 467 q 1603 390 1564 425 q 1643 313 1643 354 q 1597 224 1639 267 q 1469 136 1554 182 l 1468 138 z "},"¼":{"ha":1478,"x_min":67,"x_max":1488,"o":"m 488 578 l 86 578 l 86 654 l 194 728 l 194 1029 l 67 1058 l 107 1143 l 507 1143 l 507 1067 l 400 993 l 400 690 l 528 663 l 488 578 m 374 -276 l 286 -232 l 1149 1393 l 1238 1349 l 374 -276 m 1318 -79 l 1318 -260 l 1113 -318 l 1113 -79 l 701 -79 l 701 -6 l 1113 426 l 1318 483 l 1318 33 l 1488 33 l 1449 -79 l 1318 -79 m 1113 271 l 888 33 l 1113 33 l 1113 271 z "},"¾":{"ha":1521,"x_min":21,"x_max":1532,"o":"m 361 824 q 531 751 478 789 q 583 660 583 713 q 457 474 583 556 q 53 321 331 393 l 26 414 q 231 481 161 453 q 330 540 301 510 q 358 614 358 571 q 323 681 358 653 q 210 736 288 710 l 210 807 q 288 873 265 842 q 311 943 311 904 q 287 996 311 975 q 224 1017 263 1017 q 54 963 174 1017 l 21 1036 l 175 1144 q 239 1153 208 1153 q 389 1132 321 1153 q 497 1076 457 1111 q 536 999 536 1040 q 490 910 532 953 q 363 822 447 868 l 361 824 m 418 -276 l 331 -232 l 1193 1393 l 1282 1349 l 418 -276 m 1363 -79 l 1363 -260 l 1157 -318 l 1157 -79 l 746 -79 l 746 -6 l 1157 426 l 1363 483 l 1363 33 l 1532 33 l 1493 -79 l 1363 -79 m 1157 271 l 932 33 l 1157 33 l 1157 271 z "},"⅛":{"ha":1763,"x_min":67,"x_max":1721,"o":"m 488 578 l 86 578 l 86 654 l 194 728 l 194 1029 l 67 1058 l 107 1143 l 507 1143 l 507 1067 l 400 993 l 400 690 l 528 663 l 488 578 m 374 -276 l 286 -232 l 1149 1393 l 1238 1349 l 374 -276 m 1494 361 q 1663 256 1604 304 q 1721 138 1721 207 q 1663 24 1721 85 q 1523 -78 1606 -36 q 1375 -119 1440 -119 q 1169 -89 1260 -119 q 1028 -5 1078 -58 q 978 113 978 49 q 1026 213 978 163 q 1186 336 1075 264 q 1076 422 1115 378 q 1036 521 1036 465 q 1090 622 1036 568 q 1221 712 1143 675 q 1363 749 1299 749 q 1514 724 1447 749 q 1617 660 1581 700 q 1654 572 1654 619 q 1617 481 1650 528 q 1494 361 1583 435 m 1343 635 q 1280 615 1303 635 q 1257 565 1257 596 q 1295 483 1257 519 q 1404 407 1333 446 q 1443 472 1435 449 q 1451 526 1451 496 q 1422 604 1451 574 q 1343 635 1392 635 m 1381 -4 q 1466 24 1433 -4 q 1499 94 1499 53 q 1468 166 1499 133 q 1396 224 1438 199 q 1269 292 1354 249 q 1214 222 1228 250 q 1200 158 1200 193 q 1225 77 1200 115 q 1292 17 1250 39 q 1381 -6 1333 -6 l 1381 -4 z "},"⅜":{"ha":1807,"x_min":21,"x_max":1765,"o":"m 361 824 q 531 751 478 789 q 583 660 583 713 q 457 474 583 556 q 53 321 331 393 l 26 414 q 231 481 161 453 q 330 540 301 510 q 358 614 358 571 q 323 681 358 653 q 210 736 288 710 l 210 807 q 288 873 265 842 q 311 943 311 904 q 287 996 311 975 q 224 1017 263 1017 q 54 963 174 1017 l 21 1036 l 175 1144 q 239 1153 208 1153 q 389 1132 321 1153 q 497 1076 457 1111 q 536 999 536 1040 q 490 910 532 953 q 363 822 447 868 l 361 824 m 418 -276 l 331 -232 l 1193 1393 l 1282 1349 l 418 -276 m 1539 361 q 1707 256 1649 304 q 1765 138 1765 207 q 1708 24 1765 85 q 1567 -78 1650 -36 q 1419 -119 1485 -119 q 1213 -89 1304 -119 q 1072 -5 1122 -58 q 1022 113 1022 49 q 1071 213 1022 163 q 1231 336 1119 264 q 1120 422 1160 378 q 1081 521 1081 465 q 1134 622 1081 568 q 1265 712 1188 675 q 1407 749 1343 749 q 1558 724 1492 749 q 1662 660 1625 700 q 1699 572 1699 619 q 1661 481 1694 528 q 1539 361 1628 435 m 1388 635 q 1324 615 1347 635 q 1301 565 1301 596 q 1340 483 1301 519 q 1449 407 1378 446 q 1488 472 1479 449 q 1496 526 1496 496 q 1466 604 1496 574 q 1388 635 1436 635 m 1425 -4 q 1510 24 1478 -4 q 1543 94 1543 53 q 1513 166 1543 133 q 1440 224 1482 199 q 1314 292 1399 249 q 1258 222 1272 250 q 1244 158 1244 193 q 1269 77 1244 115 q 1336 17 1294 39 q 1425 -6 1378 -6 l 1425 -4 z "},"⅝":{"ha":1896,"x_min":51,"x_max":1854,"o":"m 208 917 q 465 828 375 869 q 591 743 556 786 q 626 643 626 700 q 547 499 626 560 q 352 399 468 439 q 76 319 236 358 l 51 413 q 273 476 199 449 q 374 531 347 504 q 400 597 400 558 q 376 656 400 631 q 283 710 351 682 q 78 775 214 738 l 163 1142 l 475 1142 l 517 1229 l 600 1210 l 600 943 l 489 960 l 218 960 l 208 915 l 208 917 m 507 -276 l 419 -232 l 1282 1393 l 1371 1349 l 507 -276 m 1628 361 q 1796 256 1738 304 q 1854 138 1854 207 q 1797 24 1854 85 q 1656 -78 1739 -36 q 1508 -119 1574 -119 q 1302 -89 1393 -119 q 1161 -5 1211 -58 q 1111 113 1111 49 q 1160 213 1111 163 q 1319 336 1208 264 q 1209 422 1249 378 q 1169 521 1169 465 q 1223 622 1169 568 q 1354 712 1276 675 q 1496 749 1432 749 q 1647 724 1581 749 q 1751 660 1714 700 q 1788 572 1788 619 q 1750 481 1783 528 q 1628 361 1717 435 m 1476 635 q 1413 615 1436 635 q 1390 565 1390 596 q 1428 483 1390 519 q 1538 407 1467 446 q 1576 472 1568 449 q 1585 526 1585 496 q 1555 604 1585 574 q 1476 635 1525 635 m 1514 -4 q 1599 24 1567 -4 q 1632 94 1632 53 q 1601 166 1632 133 q 1529 224 1571 199 q 1403 292 1488 249 q 1347 222 1361 250 q 1333 158 1333 193 q 1358 77 1333 115 q 1425 17 1383 39 q 1514 -6 1467 -6 l 1514 -4 z "},"⅞":{"ha":1814,"x_min":86,"x_max":1772,"o":"m 725 1043 l 253 319 l 144 351 l 544 961 l 215 961 l 172 868 l 86 893 l 86 1158 l 200 1142 l 725 1142 l 725 1043 m 425 -276 l 338 -232 l 1200 1393 l 1289 1349 l 425 -276 m 1546 361 q 1714 256 1656 304 q 1772 138 1772 207 q 1715 24 1772 85 q 1574 -78 1657 -36 q 1426 -119 1492 -119 q 1220 -89 1311 -119 q 1079 -5 1129 -58 q 1029 113 1029 49 q 1078 213 1029 163 q 1238 336 1126 264 q 1127 422 1167 378 q 1088 521 1088 465 q 1141 622 1088 568 q 1272 712 1194 675 q 1414 749 1350 749 q 1565 724 1499 749 q 1669 660 1632 700 q 1706 572 1706 619 q 1668 481 1701 528 q 1546 361 1635 435 m 1394 635 q 1331 615 1354 635 q 1308 565 1308 596 q 1347 483 1308 519 q 1456 407 1385 446 q 1494 472 1486 449 q 1503 526 1503 496 q 1473 604 1503 574 q 1394 635 1443 635 m 1432 -4 q 1517 24 1485 -4 q 1550 94 1550 53 q 1519 166 1550 133 q 1447 224 1489 199 q 1321 292 1406 249 q 1265 222 1279 250 q 1251 158 1251 193 q 1276 77 1251 115 q 1343 17 1301 39 q 1432 -6 1385 -6 l 1432 -4 z "},"₀":{"ha":907,"x_min":75,"x_max":832,"o":"m 492 465 q 668 429 590 465 q 789 330 746 393 q 832 189 832 267 q 766 35 832 107 q 602 -78 700 -36 q 413 -119 504 -119 q 238 -83 315 -119 q 118 15 161 -47 q 75 156 75 78 q 140 309 75 238 q 303 423 206 381 q 492 465 401 465 m 428 338 q 297 201 297 338 q 344 63 297 118 q 478 8 390 8 q 610 143 610 8 q 563 282 610 226 q 428 338 515 338 z "},"₁":{"ha":550,"x_min":49,"x_max":510,"o":"m 469 -108 l 68 -108 l 68 -32 l 176 42 l 176 343 l 49 372 l 89 457 l 489 457 l 489 381 l 382 307 l 382 4 l 510 -24 l 469 -108 z "},"₂":{"ha":768,"x_min":50,"x_max":706,"o":"m 706 -129 l 590 -111 l 57 -111 l 57 -24 q 254 113 186 61 q 349 196 322 164 q 376 256 376 228 q 354 293 376 278 q 297 308 332 308 q 83 253 221 308 l 50 339 l 204 447 q 328 464 254 464 q 548 422 465 464 q 631 311 631 381 q 564 213 631 274 q 360 72 497 151 l 575 72 l 619 165 l 706 139 l 706 -129 z "},"₃":{"ha":638,"x_min":21,"x_max":583,"o":"m 361 138 q 531 65 478 103 q 583 -26 583 26 q 457 -212 583 -131 q 53 -365 331 -293 l 26 -272 q 231 -205 161 -233 q 330 -146 301 -176 q 358 -72 358 -115 q 323 -5 358 -33 q 210 50 288 24 l 210 121 q 288 187 265 156 q 311 257 311 218 q 287 310 311 289 q 224 331 263 331 q 54 276 174 331 l 21 350 l 175 458 q 239 467 208 467 q 389 446 321 467 q 497 390 457 425 q 536 313 536 354 q 490 224 532 267 q 363 136 447 182 l 361 138 z "},"₄":{"ha":818,"x_min":42,"x_max":828,"o":"m 658 -79 l 658 -260 l 453 -318 l 453 -79 l 42 -79 l 42 -6 l 453 426 l 658 483 l 658 33 l 828 33 l 789 -79 l 658 -79 m 453 271 l 228 33 l 453 33 l 453 271 z "},"₅":{"ha":726,"x_min":51,"x_max":626,"o":"m 208 231 q 465 142 375 183 q 591 57 556 100 q 626 -43 626 14 q 547 -187 626 -126 q 352 -287 468 -247 q 76 -367 236 -328 l 51 -274 q 273 -210 199 -237 q 374 -155 347 -182 q 400 -89 400 -128 q 376 -30 400 -56 q 283 24 351 -4 q 78 89 214 51 l 163 456 l 475 456 l 517 543 l 600 524 l 600 257 l 489 274 l 218 274 l 208 229 l 208 231 z "},"₆":{"ha":836,"x_min":74,"x_max":792,"o":"m 692 663 q 388 447 479 551 q 296 231 296 343 q 340 71 296 133 q 468 8 385 8 q 569 124 569 8 q 518 267 569 208 q 392 354 467 326 l 454 444 q 622 409 544 444 q 745 310 699 374 q 792 169 792 247 q 734 34 792 101 q 586 -76 676 -33 q 404 -119 496 -119 q 232 -80 307 -119 q 115 29 157 -40 q 74 185 74 99 q 122 383 74 293 q 294 563 169 472 q 647 749 419 653 l 692 663 z "},"₇":{"ha":753,"x_min":86,"x_max":725,"o":"m 725 357 l 253 -367 l 144 -335 l 544 275 l 215 275 l 172 182 l 86 207 l 86 472 l 200 456 l 725 456 l 725 357 z "},"₈":{"ha":831,"x_min":46,"x_max":789,"o":"m 563 361 q 731 256 672 304 q 789 138 789 207 q 731 24 789 85 q 591 -78 674 -36 q 443 -119 508 -119 q 237 -89 328 -119 q 96 -5 146 -58 q 46 113 46 49 q 94 213 46 163 q 254 336 143 264 q 144 422 183 378 q 104 521 104 465 q 158 622 104 568 q 289 712 211 675 q 431 749 367 749 q 582 724 515 749 q 685 660 649 700 q 722 572 722 619 q 685 481 718 528 q 563 361 651 435 m 411 635 q 348 615 371 635 q 325 565 325 596 q 363 483 325 519 q 472 407 401 446 q 511 472 503 449 q 519 526 519 496 q 490 604 519 574 q 411 635 460 635 m 449 -4 q 534 24 501 -4 q 567 94 567 53 q 536 166 567 133 q 464 224 506 199 q 338 292 422 249 q 282 222 296 250 q 268 158 268 193 q 293 77 268 115 q 360 17 318 39 q 449 -6 401 -6 l 449 -4 z "},"₉":{"ha":822,"x_min":68,"x_max":786,"o":"m 456 465 q 627 426 551 465 q 744 319 703 388 q 786 165 786 250 q 739 -22 786 63 q 568 -191 692 -106 q 221 -367 444 -276 l 176 -281 q 474 -81 385 -176 q 564 119 564 15 q 519 276 564 214 q 390 338 474 338 q 290 221 290 338 q 340 78 290 138 q 465 -10 390 19 l 386 -100 q 230 -58 303 -93 q 113 38 157 -22 q 68 175 68 99 q 126 311 68 243 q 274 422 183 379 q 456 465 364 465 z "},"⁰":{"ha":907,"x_min":75,"x_max":832,"o":"m 492 1151 q 668 1115 590 1151 q 789 1016 746 1079 q 832 875 832 953 q 766 722 832 793 q 602 608 700 650 q 413 567 504 567 q 238 603 315 567 q 118 701 161 639 q 75 842 75 764 q 140 995 75 924 q 303 1109 206 1067 q 492 1151 401 1151 m 428 1024 q 297 888 297 1024 q 344 749 297 804 q 478 694 390 694 q 610 829 610 694 q 563 968 610 913 q 428 1024 515 1024 z "},"¹":{"ha":593,"x_min":67,"x_max":528,"o":"m 488 578 l 86 578 l 86 654 l 194 728 l 194 1029 l 67 1058 l 107 1143 l 507 1143 l 507 1067 l 400 993 l 400 690 l 528 663 l 488 578 z "},"²":{"ha":768,"x_min":50,"x_max":706,"o":"m 706 557 l 590 575 l 57 575 l 57 663 q 254 799 186 747 q 349 882 322 850 q 376 942 376 914 q 354 980 376 965 q 297 994 332 994 q 83 939 221 994 l 50 1025 l 204 1133 q 328 1150 254 1150 q 548 1108 465 1150 q 631 997 631 1067 q 564 899 631 960 q 360 758 497 838 l 575 758 l 619 851 l 706 825 l 706 557 z "},"³":{"ha":638,"x_min":21,"x_max":583,"o":"m 361 824 q 531 751 478 789 q 583 660 583 713 q 457 474 583 556 q 53 321 331 393 l 26 414 q 231 481 161 453 q 330 540 301 510 q 358 614 358 571 q 323 681 358 653 q 210 736 288 710 l 210 807 q 288 873 265 842 q 311 943 311 904 q 287 996 311 975 q 224 1017 263 1017 q 54 963 174 1017 l 21 1036 l 175 1144 q 239 1153 208 1153 q 389 1132 321 1153 q 497 1076 457 1111 q 536 999 536 1040 q 490 910 532 953 q 363 822 447 868 l 361 824 z "},"⁴":{"ha":818,"x_min":42,"x_max":828,"o":"m 658 607 l 658 426 l 453 368 l 453 607 l 42 607 l 42 681 l 453 1113 l 658 1169 l 658 719 l 828 719 l 789 607 l 658 607 m 453 957 l 228 719 l 453 719 l 453 957 z "},"⁵":{"ha":726,"x_min":51,"x_max":626,"o":"m 208 917 q 465 828 375 869 q 591 743 556 786 q 626 643 626 700 q 547 499 626 560 q 352 399 468 439 q 76 319 236 358 l 51 413 q 273 476 199 449 q 374 531 347 504 q 400 597 400 558 q 376 656 400 631 q 283 710 351 682 q 78 775 214 738 l 163 1142 l 475 1142 l 517 1229 l 600 1210 l 600 943 l 489 960 l 218 960 l 208 915 l 208 917 z "},"⁶":{"ha":836,"x_min":74,"x_max":792,"o":"m 692 1349 q 388 1133 479 1238 q 296 917 296 1029 q 340 757 296 819 q 468 694 385 694 q 569 810 569 694 q 518 953 569 894 q 392 1040 467 1013 l 454 1131 q 622 1095 544 1131 q 745 997 699 1060 q 792 856 792 933 q 734 720 792 788 q 586 610 676 653 q 404 567 496 567 q 232 606 307 567 q 115 715 157 646 q 74 871 74 785 q 122 1069 74 979 q 294 1249 169 1158 q 647 1435 419 1339 l 692 1349 z "},"⁷":{"ha":753,"x_min":86,"x_max":725,"o":"m 725 1043 l 253 319 l 144 351 l 544 961 l 215 961 l 172 868 l 86 893 l 86 1158 l 200 1142 l 725 1142 l 725 1043 z "},"⁸":{"ha":831,"x_min":46,"x_max":789,"o":"m 563 1047 q 731 942 672 990 q 789 824 789 893 q 731 710 789 771 q 591 608 674 650 q 443 567 508 567 q 237 597 328 567 q 96 681 146 628 q 46 799 46 735 q 94 899 46 849 q 254 1022 143 950 q 144 1108 183 1064 q 104 1207 104 1151 q 158 1308 104 1254 q 289 1398 211 1361 q 431 1435 367 1435 q 582 1410 515 1435 q 685 1346 649 1386 q 722 1258 722 1306 q 685 1167 718 1214 q 563 1047 651 1121 m 411 1321 q 348 1301 371 1321 q 325 1251 325 1282 q 363 1169 325 1206 q 472 1093 401 1132 q 511 1158 503 1135 q 519 1213 519 1182 q 490 1290 519 1260 q 411 1321 460 1321 m 449 682 q 534 710 501 682 q 567 781 567 739 q 536 852 567 819 q 464 910 506 885 q 338 978 422 935 q 282 908 296 936 q 268 844 268 879 q 293 763 268 801 q 360 703 318 725 q 449 681 401 681 l 449 682 z "},"⁹":{"ha":822,"x_min":68,"x_max":786,"o":"m 456 1151 q 627 1113 551 1151 q 744 1005 703 1074 q 786 851 786 936 q 739 665 786 749 q 568 495 692 581 q 221 319 444 410 l 176 406 q 474 606 385 510 q 564 806 564 701 q 519 962 564 900 q 390 1024 474 1024 q 290 907 290 1024 q 340 765 290 824 q 465 676 390 706 l 386 586 q 230 628 303 593 q 113 724 157 664 q 68 861 68 785 q 126 997 68 929 q 274 1108 183 1065 q 456 1151 364 1151 z "},"०":{"ha":1042,"x_min":136,"x_max":906,"o":"m 436 803 q 647 753 536 803 q 831 617 757 703 q 906 431 906 531 q 867 296 906 356 q 761 201 829 236 q 607 167 693 167 q 396 217 507 167 q 210 352 285 267 q 136 538 136 438 q 174 673 136 613 q 281 768 213 733 q 436 803 349 803 m 528 646 q 446 595 478 646 q 414 471 414 544 q 441 360 414 397 q 514 322 468 322 q 597 372 565 322 q 628 497 628 422 q 601 608 628 571 q 528 646 574 646 z "},"१":{"ha":865,"x_min":29,"x_max":668,"o":"m 269 1106 q 470 1040 379 1106 q 615 863 561 975 q 668 615 668 750 q 638 299 668 497 q 581 -14 607 101 l 482 -14 l 324 50 q 372 318 351 175 q 403 583 393 461 q 221 642 307 594 q 82 759 135 690 q 29 899 29 828 q 62 1001 29 954 q 150 1077 94 1049 q 269 1106 206 1106 m 304 829 q 363 736 304 736 q 407 747 392 736 q 390 891 404 839 q 354 943 376 943 q 320 910 335 943 q 306 829 306 876 l 304 829 z "},"२":{"ha":1035,"x_min":119,"x_max":1140,"o":"m 646 263 q 482 193 558 193 q 333 240 415 193 q 192 356 250 288 q 133 478 133 424 q 180 547 133 522 q 308 572 226 572 q 500 542 397 572 q 583 675 557 610 q 610 810 610 740 q 536 908 610 908 q 434 870 489 908 q 335 769 379 832 l 119 889 l 119 988 q 267 1072 171 1038 q 451 1106 364 1106 q 657 1048 556 1106 q 822 900 758 990 q 886 718 886 810 q 840 523 886 626 q 722 336 794 419 l 1140 -3 l 1068 -81 l 646 263 z "},"३":{"ha":1149,"x_min":114,"x_max":1047,"o":"m 1047 253 q 990 135 1047 199 q 849 29 932 72 q 693 -14 765 -14 q 601 -7 653 -14 l 890 -242 l 818 -319 l 292 108 q 162 232 210 164 q 114 372 114 300 q 138 450 114 419 q 204 481 161 481 q 340 401 286 481 q 410 182 394 321 q 521 160 471 160 q 638 181 578 160 q 736 236 697 203 q 775 303 775 269 q 758 365 775 339 q 692 427 742 392 q 528 531 642 463 l 528 628 q 626 698 588 650 q 665 804 665 746 q 649 882 665 856 q 594 908 632 908 q 487 869 542 908 q 390 769 432 831 l 175 889 l 175 988 q 329 1073 232 1040 q 513 1106 426 1106 q 711 1047 611 1106 q 876 901 811 989 q 942 729 942 813 q 821 496 942 581 q 987 372 926 436 q 1047 253 1047 308 m 292 246 l 279 257 l 292 246 z "},"४":{"ha":1144,"x_min":111,"x_max":1000,"o":"m 769 543 q 947 375 894 446 q 1000 229 1000 304 q 956 106 1000 161 q 836 18 913 50 q 665 -14 760 -14 q 420 40 538 -14 q 231 180 303 93 q 160 361 160 267 q 195 494 160 428 q 304 633 231 561 l 371 696 l 311 738 q 111 1071 111 876 q 121 1143 111 1110 l 185 1226 l 399 1100 q 389 1008 389 1063 q 456 776 389 863 l 586 900 q 669 1001 646 957 q 693 1092 693 1044 q 679 1158 693 1125 l 729 1226 l 957 1093 q 978 1000 978 1051 q 950 894 978 946 q 863 782 922 842 l 676 607 l 768 543 l 769 543 m 549 156 q 672 205 622 156 q 722 326 722 254 q 691 434 722 381 q 601 536 660 488 l 563 499 q 465 383 493 433 q 438 276 438 333 q 549 156 438 156 z "},"५":{"ha":1135,"x_min":147,"x_max":1240,"o":"m 803 86 q 661 -12 744 -6 q 498 36 590 -12 q 339 153 406 85 q 272 272 272 221 q 323 340 272 314 q 469 367 374 367 q 626 350 535 367 q 638 636 638 461 q 582 632 611 632 q 385 675 488 632 q 215 791 283 718 q 147 949 147 864 l 147 1107 l 246 1107 l 404 1043 l 404 897 q 425 815 404 843 q 488 788 446 788 q 557 805 521 788 q 617 856 593 822 q 642 936 642 890 l 642 1107 l 739 1107 l 899 1043 l 899 610 q 847 186 899 344 l 1240 -133 l 1168 -211 l 803 86 z "},"६":{"ha":1300,"x_min":101,"x_max":1513,"o":"m 978 308 q 813 238 900 264 q 646 211 725 211 q 426 255 538 211 q 242 376 315 299 q 169 550 169 454 q 190 642 169 597 q 249 721 211 686 q 142 813 183 757 q 101 939 101 868 q 161 1074 101 1026 q 319 1121 221 1121 q 378 1118 344 1121 l 596 999 l 596 900 q 519 910 557 910 q 419 893 461 910 q 378 850 378 876 q 464 799 378 800 l 682 679 l 682 581 q 597 588 643 588 q 487 553 525 588 q 449 469 449 518 q 481 401 449 429 q 553 374 513 374 q 706 420 644 374 q 814 544 768 467 q 790 704 790 629 q 816 833 790 786 q 886 879 842 879 q 1008 821 940 879 q 1124 680 1076 763 q 1171 531 1171 597 q 1144 452 1171 493 q 1068 371 1117 411 l 1513 11 l 1439 -67 l 978 308 z "},"७":{"ha":1426,"x_min":126,"x_max":1289,"o":"m 879 1001 q 1084 939 990 1001 q 1233 770 1178 876 q 1289 540 1289 664 q 1219 260 1289 388 q 1031 60 1150 133 q 769 -14 911 -14 q 449 86 597 -14 q 214 355 301 186 q 126 718 126 524 q 153 940 126 831 q 229 1143 181 1050 l 294 1226 l 508 1100 q 426 815 449 933 q 404 549 404 696 q 473 264 404 368 q 675 160 542 160 q 881 243 799 160 q 994 481 964 326 q 818 542 901 494 q 685 657 735 590 q 635 792 635 724 q 667 897 635 849 q 756 974 700 946 q 878 1001 811 1001 l 879 1001 m 971 632 q 1011 642 997 632 l 1011 663 q 999 794 1011 749 q 964 840 988 840 q 927 807 942 840 q 913 725 913 774 q 971 633 913 633 l 971 632 z "},"८":{"ha":1169,"x_min":-125,"x_max":1154,"o":"m 643 874 q 502 820 558 874 q 446 675 446 767 q 485 577 446 615 q 583 517 525 539 q 744 468 640 496 q 927 412 858 439 q 1044 335 996 385 q 1092 204 1092 285 q 1051 72 1092 126 q 939 -26 1010 17 l 732 93 l 732 192 q 792 215 771 193 q 814 274 814 238 q 764 338 814 313 q 606 394 714 363 q 385 474 474 435 q 233 587 297 513 q 168 776 168 661 q 188 874 168 826 l 96 874 l -125 994 l -125 1092 l 935 1092 l 1154 972 l 1154 874 l 643 874 z "},"९":{"ha":1049,"x_min":88,"x_max":964,"o":"m 964 151 q 780 38 885 88 q 564 -12 675 -12 q 345 37 457 -12 q 160 174 233 86 q 88 368 88 261 q 143 520 88 451 q 292 635 199 589 q 157 875 157 750 q 198 994 157 942 q 313 1078 239 1047 q 479 1108 386 1108 q 658 1072 569 1108 q 801 976 746 1035 q 857 858 857 918 q 825 785 857 818 q 738 734 793 753 q 614 715 682 715 q 593 718 607 715 l 504 790 l 504 888 q 542 879 528 879 q 569 889 558 879 q 579 914 579 899 q 531 946 579 946 q 461 915 488 946 q 435 833 435 885 q 539 649 435 725 l 681 571 l 681 472 q 596 479 640 479 q 481 451 535 479 q 394 378 426 424 q 363 281 363 332 q 389 218 363 243 q 458 193 415 193 q 746 367 599 193 l 964 249 l 964 151 z "},"Ⅰ":{"ha":708,"x_min":67,"x_max":643,"o":"m 593 0 l 92 0 l 92 89 l 226 194 l 226 665 l 67 706 l 117 807 l 618 807 l 618 718 l 483 613 l 483 142 l 643 101 l 593 0 z "},"Ⅱ":{"ha":1417,"x_min":67,"x_max":1351,"o":"m 593 0 l 92 0 l 92 89 l 226 194 l 226 665 l 67 706 l 117 807 l 618 807 l 618 718 l 483 613 l 483 142 l 643 101 l 593 0 m 1301 0 l 800 0 l 800 89 l 935 194 l 935 665 l 775 706 l 825 807 l 1326 807 l 1326 718 l 1192 613 l 1192 142 l 1351 101 l 1301 0 z "},"Ⅲ":{"ha":2125,"x_min":67,"x_max":2060,"o":"m 593 0 l 92 0 l 92 89 l 226 194 l 226 665 l 67 706 l 117 807 l 618 807 l 618 718 l 483 613 l 483 142 l 643 101 l 593 0 m 1301 0 l 800 0 l 800 89 l 935 194 l 935 665 l 775 706 l 825 807 l 1326 807 l 1326 718 l 1192 613 l 1192 142 l 1351 101 l 1301 0 m 2010 0 l 1508 0 l 1508 89 l 1643 194 l 1643 665 l 1483 706 l 1533 807 l 2035 807 l 2035 718 l 1900 613 l 1900 142 l 2060 101 l 2010 0 z "},"Ⅳ":{"ha":1894,"x_min":67,"x_max":1894,"o":"m 593 0 l 92 0 l 92 89 l 226 194 l 226 665 l 67 706 l 117 807 l 618 807 l 618 718 l 483 613 l 483 142 l 643 101 l 593 0 m 1724 589 l 1440 43 l 1172 -28 l 847 633 l 697 704 l 747 806 l 1292 806 l 1292 717 l 1138 631 l 1367 176 l 1588 604 l 1390 706 l 1440 807 l 1894 807 l 1894 717 l 1724 589 z "},"Ⅴ":{"ha":1186,"x_min":-11,"x_max":1186,"o":"m 1015 589 l 732 43 l 464 -28 l 139 633 l -11 704 l 39 806 l 583 806 l 583 717 l 429 631 l 658 176 l 879 604 l 682 706 l 732 807 l 1186 807 l 1186 717 l 1015 589 z "},"Ⅵ":{"ha":1894,"x_min":-11,"x_max":1829,"o":"m 1015 589 l 732 43 l 464 -28 l 139 633 l -11 704 l 39 806 l 583 806 l 583 717 l 429 631 l 658 176 l 879 604 l 682 706 l 732 807 l 1186 807 l 1186 717 l 1015 589 m 1779 0 l 1278 0 l 1278 89 l 1413 194 l 1413 665 l 1253 706 l 1303 807 l 1804 807 l 1804 718 l 1669 613 l 1669 142 l 1829 101 l 1779 0 z "},"Ⅶ":{"ha":2603,"x_min":-11,"x_max":2538,"o":"m 1015 589 l 732 43 l 464 -28 l 139 633 l -11 704 l 39 806 l 583 806 l 583 717 l 429 631 l 658 176 l 879 604 l 682 706 l 732 807 l 1186 807 l 1186 717 l 1015 589 m 1779 0 l 1278 0 l 1278 89 l 1413 194 l 1413 665 l 1253 706 l 1303 807 l 1804 807 l 1804 718 l 1669 613 l 1669 142 l 1829 101 l 1779 0 m 2488 0 l 1986 0 l 1986 89 l 2121 194 l 2121 665 l 1961 706 l 2011 807 l 2513 807 l 2513 718 l 2378 613 l 2378 142 l 2538 101 l 2488 0 z "},"Ⅷ":{"ha":3311,"x_min":-11,"x_max":3246,"o":"m 1015 589 l 732 43 l 464 -28 l 139 633 l -11 704 l 39 806 l 583 806 l 583 717 l 429 631 l 658 176 l 879 604 l 682 706 l 732 807 l 1186 807 l 1186 717 l 1015 589 m 1779 0 l 1278 0 l 1278 89 l 1413 194 l 1413 665 l 1253 706 l 1303 807 l 1804 807 l 1804 718 l 1669 613 l 1669 142 l 1829 101 l 1779 0 m 2488 0 l 1986 0 l 1986 89 l 2121 194 l 2121 665 l 1961 706 l 2011 807 l 2513 807 l 2513 718 l 2378 613 l 2378 142 l 2538 101 l 2488 0 m 3196 0 l 2694 0 l 2694 89 l 2829 194 l 2829 665 l 2669 706 l 2719 807 l 3221 807 l 3221 718 l 3086 613 l 3086 142 l 3246 101 l 3196 0 z "},"Ⅸ":{"ha":1918,"x_min":67,"x_max":1908,"o":"m 593 0 l 92 0 l 92 89 l 226 194 l 226 665 l 67 706 l 117 807 l 618 807 l 618 718 l 483 613 l 483 142 l 643 101 l 593 0 m 1858 1 l 1360 1 l 1360 90 l 1440 142 l 1258 299 l 1092 181 l 1239 101 l 1189 0 l 735 0 l 735 89 l 763 103 l 1154 382 l 921 588 l 714 707 l 764 808 l 1263 808 l 1263 719 l 1176 672 l 1358 517 l 1506 626 l 1357 707 l 1407 808 l 1861 808 l 1861 719 l 1829 703 l 1467 432 l 1751 179 l 1908 103 l 1858 1 z "},"Ⅹ":{"ha":1210,"x_min":6,"x_max":1200,"o":"m 1150 1 l 651 1 l 651 90 l 732 142 l 550 299 l 383 181 l 531 101 l 481 0 l 26 0 l 26 89 l 54 103 l 446 382 l 213 588 l 6 707 l 56 808 l 554 808 l 554 719 l 468 672 l 650 517 l 797 626 l 649 707 l 699 808 l 1153 808 l 1153 719 l 1121 703 l 758 432 l 1043 179 l 1200 103 l 1150 1 z "},"Ⅺ":{"ha":1894,"x_min":-11,"x_max":1829,"o":"m 1015 589 l 732 43 l 464 -28 l 139 633 l -11 704 l 39 806 l 583 806 l 583 717 l 429 631 l 658 176 l 879 604 l 682 706 l 732 807 l 1186 807 l 1186 717 l 1015 589 m 1779 0 l 1278 0 l 1278 89 l 1413 194 l 1413 665 l 1253 706 l 1303 807 l 1804 807 l 1804 718 l 1669 613 l 1669 142 l 1829 101 l 1779 0 z "},"Ⅻ":{"ha":2626,"x_min":6,"x_max":2561,"o":"m 1150 1 l 651 1 l 651 90 l 732 142 l 550 299 l 383 181 l 531 101 l 481 0 l 26 0 l 26 89 l 54 103 l 446 382 l 213 588 l 6 707 l 56 808 l 554 808 l 554 719 l 468 672 l 650 517 l 797 626 l 649 707 l 699 808 l 1153 808 l 1153 719 l 1121 703 l 758 432 l 1043 179 l 1200 103 l 1150 1 m 1803 0 l 1301 0 l 1301 89 l 1436 194 l 1436 665 l 1276 706 l 1326 807 l 1828 807 l 1828 718 l 1693 613 l 1693 142 l 1853 101 l 1803 0 m 2511 0 l 2010 0 l 2010 89 l 2144 194 l 2144 665 l 1985 706 l 2035 807 l 2536 807 l 2536 718 l 2401 613 l 2401 142 l 2561 101 l 2511 0 z "},"Ⅼ":{"ha":1036,"x_min":36,"x_max":996,"o":"m 888 -1 l 61 -1 l 61 88 l 192 190 l 192 667 l 36 706 l 86 807 l 599 807 l 599 718 l 467 615 l 467 119 l 690 119 l 908 432 l 996 396 l 996 -26 l 888 -1 z "},"Ⅽ":{"ha":1114,"x_min":75,"x_max":1064,"o":"m 675 821 q 862 800 756 821 q 1018 756 968 779 l 1018 454 l 864 454 q 744 601 813 554 q 594 647 675 647 q 485 619 536 647 q 405 542 435 590 q 375 439 375 494 q 406 304 375 365 q 498 206 436 243 q 651 169 560 169 q 1004 290 775 169 l 1064 194 l 811 3 q 694 -22 750 -17 q 574 -28 639 -28 q 315 24 428 -28 q 138 168 201 76 q 75 372 75 260 q 170 595 75 492 q 406 760 265 699 q 675 821 547 821 z "}}}
